<?xml version="1.0" standalone="no"?>
<!DOCTYPE svg PUBLIC "-//W3C//DTD SVG 1.1//EN" "http://www.w3.org/Graphics/SVG/1.1/DTD/svg11.dtd" >
<svg xmlns="http://www.w3.org/2000/svg">
<metadata></metadata>
<defs>
<font id="aktiv_grotesklight_italic" horiz-adv-x="1212" >
<font-face units-per-em="2048" ascent="1638" descent="-410" />
<missing-glyph horiz-adv-x="458" />
<glyph unicode="&#xfb01;" horiz-adv-x="1050" d="M121 0l203 956h-164l20 99h164l29 129q35 160 117.5 227.5t201.5 67.5q47 0 86 -8.5t74 -22.5l-37 -96q-27 10 -53.5 16t-71.5 6q-86 0 -132 -47t-66 -139l-29 -133h280l-20 -99h-281l-202 -956h-119zM701 0l223 1055h119l-224 -1055h-118zM955 1284l36 178h136l-37 -178 h-135z" />
<glyph unicode="&#xfb02;" horiz-adv-x="1050" d="M121 0l203 956h-164l20 99h164l29 129q35 160 117.5 227.5t201.5 67.5q47 0 86 -8.5t74 -22.5l-37 -96q-27 10 -53.5 16t-71.5 6q-86 0 -132 -47t-66 -139l-29 -133h280l-20 -99h-281l-202 -956h-119zM701 0l309 1462h119l-310 -1462h-118z" />
<glyph unicode="&#xfb03;" horiz-adv-x="1683" d="M121 0l203 956h-164l20 99h164l29 129q35 160 117.5 227.5t201.5 67.5q47 0 86 -8.5t74 -22.5l-37 -96q-27 10 -53.5 16t-71.5 6q-86 0 -132 -47t-66 -139l-29 -133h280l-20 -99h-281l-202 -956h-119zM754 0l203 956h-164l20 99h164l29 129q35 160 117.5 227.5 t201.5 67.5q47 0 86 -8.5t74 -22.5l-37 -96q-27 10 -53.5 16t-71.5 6q-86 0 -132 -47t-66 -139l-29 -133h280l-20 -99h-281l-202 -956h-119zM1334 0l223 1055h119l-224 -1055h-118zM1588 1284l36 178h136l-37 -178h-135z" />
<glyph unicode="&#xfb04;" horiz-adv-x="1683" d="M121 0l203 956h-164l20 99h164l29 129q35 160 117.5 227.5t201.5 67.5q47 0 86 -8.5t74 -22.5l-37 -96q-27 10 -53.5 16t-71.5 6q-86 0 -132 -47t-66 -139l-29 -133h280l-20 -99h-281l-202 -956h-119zM754 0l203 956h-164l20 99h164l29 129q35 160 117.5 227.5 t201.5 67.5q47 0 86 -8.5t74 -22.5l-37 -96q-27 10 -53.5 16t-71.5 6q-86 0 -132 -47t-66 -139l-29 -133h280l-20 -99h-281l-202 -956h-119zM1334 0l309 1462h119l-310 -1462h-118z" />
<glyph unicode="&#xd;" horiz-adv-x="458" />
<glyph horiz-adv-x="0" />
<glyph horiz-adv-x="0" />
<glyph unicode=" "  horiz-adv-x="458" />
<glyph unicode="&#x09;" horiz-adv-x="458" />
<glyph unicode="&#xa0;" horiz-adv-x="458" />
<glyph unicode="!" horiz-adv-x="421" d="M63 0l39 188h148l-39 -188h-148zM160 395l217 1067h125l-234 -1067h-108z" />
<glyph unicode="&#x22;" horiz-adv-x="618" d="M182 958l92 496h123l-116 -496h-99zM501 958l92 496h123l-116 -496h-99z" />
<glyph unicode="#" d="M39 379l16 90h228l168 455h-230l19 94h245l133 371h115l-137 -371h379l133 371h115l-133 -371h213l-19 -94h-229l-168 -455h231l-16 -90h-246l-135 -379h-115l139 379h-378l-138 -379h-112l135 379h-213zM397 469h379l164 455h-379z" />
<glyph unicode="$" d="M84 354h111q4 -135 81.5 -199.5t200.5 -80.5l127 602q-166 39 -254 120t-88 228q0 102 40 182t109.5 134.5t162 83t196.5 30.5l35 160h100l-37 -166q92 -12 157 -46t105.5 -81t63.5 -102.5t33 -110.5l-111 -23q-12 51 -29.5 95.5t-47 78t-75.5 56t-116 31.5l-123 -580 l31 -6q172 -35 251.5 -126t79.5 -228q0 -201 -131 -321t-383 -120h-20l-39 -188h-100l41 196q-76 10 -142.5 36t-117 71t-80 112.5t-31.5 161.5zM377 1020q0 -92 62.5 -149.5t181.5 -82.5l8 -2l119 564q-104 -4 -175 -34t-115 -76t-62.5 -103.5t-18.5 -116.5zM575 68h9 q186 0 283.5 87t97.5 240q0 35 -6.5 73t-28 72.5t-62.5 62.5t-110 42l-58 12z" />
<glyph unicode="%" horiz-adv-x="1818" d="M178 883q0 94 27.5 194.5t83 183t137.5 135t192 52.5q129 0 207 -83t78 -224q0 -96 -26.5 -195.5t-81 -182.5t-137 -135.5t-193.5 -52.5q-129 0 -208 83t-79 225zM293 893q0 -98 40 -159.5t136 -61.5q80 0 140.5 43t100.5 110.5t59 148.5t19 156q0 98 -40 160t-136 62 q-80 0 -140 -43t-100 -111t-59.5 -148.5t-19.5 -156.5zM401 0l1020 1415h129l-1015 -1415h-134zM1047 264q0 94 27.5 194.5t82.5 183.5t137 135t193 52q129 0 207 -82.5t78 -224.5q0 -96 -27 -195.5t-81 -182.5t-137 -135t-194 -52q-129 0 -207.5 83t-78.5 224zM1161 274 q0 -98 40 -159.5t136 -61.5q80 0 140.5 43t100.5 110.5t59.5 148.5t19.5 157q0 98 -40 159.5t-136 61.5q-80 0 -140.5 -43t-100.5 -110.5t-59.5 -148.5t-19.5 -157z" />
<glyph unicode="&#x26;" horiz-adv-x="1265" d="M76 324q0 94 29.5 165.5t85 129t136.5 106.5t183 100q-41 70 -72.5 149t-31.5 169q0 68 24.5 127t69.5 102t108.5 68.5t141.5 25.5q70 0 122 -21.5t86.5 -57t52 -80.5t17.5 -93q0 -88 -28.5 -151.5t-78 -111.5t-116 -85t-139.5 -73l319 -498q53 80 82 174t39 193h117 q-12 -127 -56.5 -246t-122.5 -213l132 -203h-134l-77 119q-82 -72 -188.5 -112t-237.5 -40q-127 0 -215 32t-143.5 83t-80 115t-24.5 127zM203 332q0 -45 16.5 -91t55 -84t104.5 -62.5t162 -24.5q121 0 212 36.5t156 98.5l-346 536q-80 -41 -146.5 -79.5t-114.5 -85 t-73.5 -105.5t-25.5 -139zM524 1147q0 -74 25.5 -140.5t62.5 -132.5q70 33 126.5 65t96 68.5t61.5 84t22 112.5q0 76 -47.5 122t-129.5 46q-104 0 -160.5 -61.5t-56.5 -163.5z" />
<glyph unicode="'" horiz-adv-x="299" d="M182 958l92 496h123l-116 -496h-99z" />
<glyph unicode="(" horiz-adv-x="499" d="M129 254q0 166 30.5 334t90 328.5t145.5 310t197 276.5h115q-211 -274 -331 -595.5t-120 -678.5q0 -131 16.5 -244.5t59.5 -238.5h-111q-20 47 -37.5 108.5t-30 129t-18.5 137t-6 133.5z" />
<glyph unicode=")" horiz-adv-x="499" d="M-106 -254q211 274 330.5 596t119.5 678q0 131 -16.5 244.5t-59.5 238.5h111q20 -47 37.5 -108.5t30 -129t18.5 -137t6 -133.5q0 -166 -30.5 -333.5t-90 -328.5t-145.5 -310.5t-197 -276.5h-114z" />
<glyph unicode="*" horiz-adv-x="770" d="M250 1202l47 101l217 -111l37 270h119l-70 -272l227 104l39 -106l-258 -80l140 -219l-109 -53l-104 221l-193 -221l-88 71l227 207z" />
<glyph unicode="+" d="M193 643l24 109h412l92 438h110l-92 -438h412l-25 -109h-411l-92 -440h-111l92 440h-411z" />
<glyph unicode="," horiz-adv-x="405" d="M-31 -201l142 398h143l-180 -398h-105z" />
<glyph unicode="-" horiz-adv-x="800" d="M133 530l25 123h596l-25 -123h-596z" />
<glyph unicode="." horiz-adv-x="407" d="M45 0l39 190h154l-39 -190h-154z" />
<glyph unicode="/" horiz-adv-x="618" d="M-68 0l779 1503h129l-779 -1503h-129z" />
<glyph unicode="0" d="M127 440q0 100 16.5 214t50 226.5t88 216t130 183.5t174 127t223.5 47q92 0 169 -32.5t130 -94t83 -151t30 -201.5q0 -100 -15.5 -214t-48.5 -226.5t-86 -216t-129 -182.5t-176 -126t-227 -47q-92 0 -169 33t-130.5 94.5t-83 149.5t-29.5 200zM258 446q0 -80 17.5 -148.5 t53.5 -117.5t90 -77.5t130 -28.5q137 0 238.5 81t169 210t100.5 287.5t33 316.5q0 80 -17.5 148.5t-53.5 117.5t-90 77.5t-130 28.5q-92 0 -167 -36.5t-135.5 -102t-105.5 -151.5t-74.5 -186.5t-44 -207t-14.5 -211.5z" />
<glyph unicode="1" d="M379 1169l459 246h133l-299 -1415h-123l272 1282l-391 -207z" />
<glyph unicode="2" d="M70 0l22 111q96 76 212 160.5t237 174.5q100 74 194 145t167 146.5t117 160.5t44 187q0 123 -70.5 189.5t-199.5 66.5q-84 0 -146.5 -17t-111 -51t-82 -85t-60.5 -119l-108 23q23 70 61.5 135t100 115.5t148.5 81t206 30.5q90 0 162.5 -27.5t123 -75.5t77 -116t26.5 -148 q0 -111 -46 -206t-121 -177.5t-172 -158.5t-202 -150q-98 -72 -197.5 -141.5t-187.5 -138.5h750l-47 -115h-897z" />
<glyph unicode="3" d="M121 358h115q6 -78 34.5 -133t75.5 -89t108.5 -49t133.5 -15q164 0 263 88t99 264q0 127 -64.5 193.5t-180.5 66.5h-199l24 113h164q82 0 149.5 17t116 55t75 97.5t26.5 141.5q0 104 -73 168.5t-210 64.5q-84 0 -146.5 -13t-108.5 -44t-78.5 -80t-59.5 -119l-109 21 q20 72 58.5 135.5t98 110.5t145.5 74.5t204 27.5q100 0 175 -27.5t124 -73.5t74 -108.5t25 -130.5q0 -82 -22.5 -143.5t-62.5 -107.5t-92.5 -76.5t-113.5 -51.5q57 -25 93 -61.5t56.5 -78.5t28.5 -85t8 -80q0 -102 -33.5 -188t-96 -147.5t-155 -96.5t-208.5 -35 q-92 0 -175 24.5t-146.5 75t-100.5 124t-39 171.5z" />
<glyph unicode="4" d="M90 371l21 100l884 944h131l-200 -944h209l-37 -100h-193l-78 -371h-118l77 371h-696zM248 471h559l164 774z" />
<glyph unicode="5" d="M137 334h115q8 -135 81 -198.5t242 -63.5q94 0 167 32.5t123 91t76 140.5t26 178q0 61 -16.5 112.5t-49.5 89.5t-82 59.5t-117 21.5q-106 0 -192 -32t-168 -101h-109l209 751h748l-23 -112h-649l-143 -517q41 29 79 50.5t78.5 35t88 20.5t104.5 7q88 0 156.5 -30.5 t114.5 -83t71 -120t25 -143.5q0 -111 -35 -212t-101.5 -178t-163 -123t-221.5 -46q-88 0 -165.5 19.5t-137 63.5t-94.5 114.5t-37 173.5z" />
<glyph unicode="6" d="M166 436q0 86 15.5 195.5t49 222.5t86 221.5t127 192.5t173 135t221.5 51q178 0 269 -77t112 -224l-107 -25q-27 127 -94.5 171t-188.5 44q-84 0 -160.5 -35.5t-144 -113.5t-123 -203t-92.5 -305q80 117 179.5 169t232.5 52q98 0 172 -33.5t122 -88t72.5 -124 t24.5 -143.5q0 -127 -36 -229.5t-101.5 -175t-159.5 -111.5t-213 -39q-109 0 -189.5 35t-136 98.5t-83 149.5t-27.5 190zM291 377q0 -59 19.5 -114.5t58.5 -98.5t96 -68.5t135 -25.5q188 0 287.5 111.5t99.5 334.5q0 59 -17.5 112.5t-53 92.5t-87.5 61.5t-122 22.5 q-78 0 -152 -28.5t-133.5 -84t-95 -135.5t-35.5 -180z" />
<glyph unicode="7" d="M287 1303l22 112h944l-22 -112q-236 -313 -437.5 -637t-365.5 -666h-139q88 176 179 340t188.5 323.5t206 317.5t233.5 322h-809z" />
<glyph unicode="8" d="M92 315q0 111 40 184.5t97.5 122t120 73t107.5 34.5q-35 16 -69 44t-60.5 62.5t-43 78.5t-16.5 96q0 94 34 175t100.5 140t167 94t233.5 35q104 0 182 -27.5t130 -74.5t79 -110.5t27 -133.5q0 -90 -32 -157.5t-80 -115t-106.5 -76t-111.5 -40.5q41 -12 84 -36t76.5 -60.5 t55 -86t21.5 -112.5q0 -117 -42 -203t-116.5 -143.5t-180 -86t-234.5 -28.5q-115 0 -201 28.5t-144 77t-88 112t-30 134.5zM219 332q0 -55 19.5 -103.5t60.5 -85.5t106.5 -57t157.5 -20t172 18t138.5 60t92 110t33.5 166q0 49 -19 93t-60 78t-105.5 53.5t-155.5 19.5 q-231 0 -335.5 -90.5t-104.5 -241.5zM387 1010q0 -45 17.5 -87t54.5 -76t93 -54.5t132 -20.5q82 0 156.5 18.5t132 58.5t92.5 103.5t35 155.5q0 47 -16.5 91t-53.5 78t-94 54.5t-139 20.5q-109 0 -187 -27t-127 -74t-72.5 -109.5t-23.5 -131.5z" />
<glyph unicode="9" d="M129 285h119q8 -63 32.5 -104.5t62.5 -65t87 -32.5t111 -9q88 0 164.5 36.5t138 114.5t104.5 200t68 292q-80 -109 -177.5 -155t-230.5 -46q-98 0 -172 35t-122 90t-72.5 124t-24.5 136q0 127 36 229.5t103.5 174t162.5 110.5t214 39q106 0 187 -36t135.5 -100.5 t81 -154.5t26.5 -196q0 -104 -13 -219t-44 -226.5t-79 -213t-117.5 -178.5t-164 -122t-215.5 -45q-109 0 -182.5 25.5t-119.5 69.5t-68.5 102.5t-30.5 124.5zM342 903q0 -57 17.5 -109.5t53.5 -91t88 -61.5t122 -23q76 0 150.5 26t134 77t95 127t35.5 174q0 63 -18.5 122.5 t-56 104.5t-95 72t-133.5 27q-188 0 -290.5 -111t-102.5 -334z" />
<glyph unicode=":" horiz-adv-x="407" d="M45 0l39 190h154l-39 -190h-154zM227 864l39 190h154l-39 -190h-154z" />
<glyph unicode=";" horiz-adv-x="407" d="M-31 -201l142 398h143l-180 -398h-105zM225 864l39 190h154l-39 -190h-154z" />
<glyph unicode="&#x3c;" d="M217 649l19 90l1003 437l-27 -132l-845 -352l694 -362l-27 -117z" />
<glyph unicode="=" d="M170 412l25 112h880l-24 -112h-881zM268 870l25 113h881l-25 -113h-881z" />
<glyph unicode="&#x3e;" d="M102 213l27 133l846 350l-694 365l26 115l817 -437l-18 -90z" />
<glyph unicode="?" horiz-adv-x="1013" d="M211 1133q25 80 64.5 145t98 111.5t138.5 72t184 25.5q94 0 165 -25.5t117 -68.5t68.5 -101t22.5 -121q0 -135 -66.5 -233t-177.5 -186q-49 -39 -95 -74t-84 -73t-65.5 -83t-39.5 -104l-4 -23h-119l4 23q16 76 48 131t74 100t92 84t103 82q43 35 82 72t66.5 79t44 90 t16.5 107q-2 100 -68.5 158.5t-195.5 58.5q-70 0 -125 -12t-100 -43t-80 -83t-64 -130zM326 0l39 188h151l-39 -188h-151z" />
<glyph unicode="@" horiz-adv-x="1898" d="M88 336q0 213 70.5 398.5t203 323.5t321.5 217t427 79q164 0 304 -46t243.5 -131t162 -207t58.5 -272q0 -135 -30.5 -263t-95 -226t-163 -157.5t-231.5 -59.5q-82 0 -134.5 38t-62.5 109q-70 -78 -148.5 -118.5t-176.5 -40.5q-90 0 -151.5 34.5t-99.5 90t-53.5 125 t-13.5 139.5q4 117 44 218t105.5 176t152.5 118t190 43q195 0 274 -166l33 141h108l-151 -700q-2 -10 -3 -18.5t-1 -16.5q0 -82 110 -82q100 0 171 52t116 137t66.5 193.5t21.5 223.5q0 133 -47 237.5t-133 176.5t-206 108.5t-267 36.5q-205 0 -370 -67.5t-280.5 -187.5 t-177 -285.5t-61.5 -364.5q0 -145 46 -267t133 -211t213 -138.5t286 -51.5q94 0 174 9.5t146.5 33t123 62.5t103.5 98h131q-104 -162 -272.5 -233.5t-409.5 -73.5q-168 0 -314.5 49t-254 146.5t-169 241t-61.5 329.5zM641 358q0 -141 54.5 -210.5t154.5 -69.5q53 0 95 11 t89 44q66 45 106 109.5t62 167.5l17 73q25 102 13.5 168t-58.5 111q-35 35 -74 49t-96 14q-80 0 -146.5 -37.5t-115 -102t-75 -149.5t-26.5 -178z" />
<glyph unicode="A" horiz-adv-x="1353" d="M-57 0l888 1462h148l268 -1462h-129l-82 446h-688l-268 -446h-137zM418 561h598l-139 764z" />
<glyph unicode="B" horiz-adv-x="1277" d="M86 0l309 1462h473q129 0 212 -30.5t130 -77.5t64.5 -103.5t17.5 -105.5q0 -287 -315 -381q106 -41 164.5 -126t58.5 -187t-35 -186.5t-109.5 -143t-190 -90t-277.5 -31.5h-502zM231 111h375q127 0 215 20.5t142.5 63.5t79 107.5t24.5 150.5q0 53 -19.5 100t-59.5 82 t-101.5 54.5t-147.5 19.5h-381zM383 821h358q80 0 157 14.5t136.5 50.5t95 97t35.5 156q0 47 -15 86t-52 67.5t-97.5 45t-150.5 16.5h-354z" />
<glyph unicode="C" horiz-adv-x="1452" d="M162 563q0 186 52 356.5t152.5 299.5t244 204.5t327.5 75.5q229 0 359 -124t153 -349l-125 -25q-27 199 -119 294.5t-278 95.5q-145 0 -262 -64.5t-199 -175.5t-126 -259.5t-44 -316.5q0 -104 28.5 -195t84 -159.5t138.5 -107.5t191 -39q106 0 188.5 27.5t142.5 77.5 t100 119t59 151h137q-25 -102 -76 -191.5t-130 -155t-185.5 -102.5t-243.5 -37q-121 0 -225.5 41t-181 118t-119.5 188.5t-43 252.5z" />
<glyph unicode="D" horiz-adv-x="1437" d="M86 0l309 1462h463q127 0 230.5 -43t177 -119.5t113.5 -183t40 -235.5q0 -184 -52 -345t-160.5 -280t-274.5 -187.5t-391 -68.5h-455zM233 111h326q180 0 316.5 54t228.5 155.5t138 244t46 320.5q0 96 -28.5 181t-84 149.5t-138.5 101.5t-191 37h-348z" />
<glyph unicode="E" horiz-adv-x="1204" d="M86 0l309 1462h920l-23 -112h-794l-115 -537h754l-25 -117h-754l-125 -581h838l-49 -115h-936z" />
<glyph unicode="F" horiz-adv-x="1132" d="M86 0l309 1462h879l-23 -112h-753l-119 -555h706l-24 -117h-707l-143 -678h-125z" />
<glyph unicode="G" horiz-adv-x="1456" d="M160 563q0 178 50 346t148.5 299t245 211t340.5 80q197 0 330 -100.5t172 -298.5l-121 -27q-31 160 -133 239t-260 79q-156 0 -274.5 -69t-199.5 -182.5t-122 -261t-41 -303.5q0 -102 28.5 -193t84 -159.5t137.5 -108.5t186 -40q88 0 157.5 12t124 31.5t92.5 42t66 43.5 l89 407h-420l24 113h539l-123 -578q-35 -31 -87 -62.5t-123 -58t-157 -44t-188 -17.5q-123 0 -226.5 43t-179 122t-117.5 189.5t-42 245.5z" />
<glyph unicode="H" horiz-adv-x="1411" d="M86 0l309 1462h125l-137 -647h825l138 647h124l-309 -1462h-125l148 698h-826l-147 -698h-125z" />
<glyph unicode="I" horiz-adv-x="460" d="M86 0l309 1462h125l-309 -1462h-125z" />
<glyph unicode="J" horiz-adv-x="1179" d="M57 352v24.5t2 26.5h119v-26q0 -63 13.5 -118.5t49 -96.5t96 -64.5t155.5 -23.5q195 0 290 106.5t136 302.5l206 979h125l-213 -1003q-53 -256 -186 -376t-363 -120q-96 0 -175 23.5t-135 73t-88 122t-32 170.5z" />
<glyph unicode="K" horiz-adv-x="1302" d="M86 0l309 1462h125l-160 -760l928 760h150l-660 -557l402 -905h-144l-360 829l-348 -280l-117 -549h-125z" />
<glyph unicode="L" horiz-adv-x="1126" d="M86 0l309 1462h125l-284 -1345h794l-51 -117h-893z" />
<glyph unicode="M" horiz-adv-x="1716" d="M86 0l309 1462h156l252 -1317l813 1317h160l-310 -1462h-116l266 1253l-98 -157q-37 -59 -93.5 -150.5t-139.5 -223.5t-194.5 -310.5t-256.5 -411.5h-119l-248 1245l-264 -1245h-117z" />
<glyph unicode="N" horiz-adv-x="1413" d="M86 0l309 1462h131l555 -1269l271 1269h121l-310 -1462h-129l-557 1274l-270 -1274h-121z" />
<glyph unicode="O" horiz-adv-x="1548" d="M164 565q0 168 54 336t155.5 300t248 215t332.5 83q121 0 226.5 -41t183.5 -118.5t122 -189.5t44 -255q0 -170 -52.5 -336t-153.5 -299t-247.5 -215t-337.5 -82q-121 0 -226 41t-183 118t-122 188.5t-44 254.5zM297 571q0 -109 28.5 -200.5t86 -157.5t140 -102.5 t191.5 -36.5q154 0 276 70.5t206 186t128 262t44 298.5q0 109 -29 200t-86 157.5t-140 103.5t-192 37q-154 0 -275.5 -72t-205.5 -186.5t-128 -262t-44 -297.5z" />
<glyph unicode="P" horiz-adv-x="1267" d="M86 0l309 1462h465q131 0 218 -32.5t140.5 -84t76 -115t22.5 -124.5q0 -135 -46 -232.5t-129 -160t-200 -92t-258 -29.5h-350l-125 -592h-123zM356 700h346q109 0 199 19.5t153.5 67t98.5 125t35 196.5q0 53 -18.5 98t-59.5 78t-107.5 51.5t-162.5 18.5h-344z" />
<glyph unicode="Q" horiz-adv-x="1548" d="M164 565q0 168 54 336t155.5 300t248 215t332.5 83q121 0 226.5 -41t183.5 -118.5t122 -189.5t44 -255q0 -111 -22.5 -221.5t-66.5 -212t-108.5 -189.5t-148.5 -155l131 -201l-96 -63l-129 200q-78 -41 -165 -65.5t-186 -24.5q-121 0 -226 41t-183 118t-122 188.5 t-44 254.5zM297 571q0 -109 28.5 -200.5t86 -157.5t140 -102.5t191.5 -36.5q156 0 285 76l-149 233l94 61l147 -227q68 57 119 134t86 164t53.5 183.5t18.5 192.5q0 109 -29 200t-86 157.5t-140 103.5t-192 37q-154 0 -275.5 -72t-205.5 -186.5t-128 -262t-44 -297.5z" />
<glyph unicode="R" horiz-adv-x="1280" d="M86 0l309 1462h451q131 0 219 -31.5t140 -83t73.5 -116t21.5 -127.5q0 -182 -93 -286.5t-259 -147.5l168 -670h-141l-152 645q-35 -4 -78 -5t-83 -1h-318l-135 -639h-123zM367 750h352q104 0 189 17t143.5 58t90.5 108.5t32 170.5q0 51 -16.5 97t-57.5 80t-109.5 53.5 t-173.5 19.5h-321z" />
<glyph unicode="S" horiz-adv-x="1314" d="M90 383h123q8 -82 37 -140.5t80 -96t128 -55t185 -17.5q106 0 182 26.5t123 73.5t69.5 110.5t22.5 139.5q0 37 -8 75t-31.5 70.5t-66.5 58t-111 40.5l-211 45q-158 35 -250 118.5t-92 237.5q0 106 37 187t106.5 135.5t168 81t219.5 26.5q125 0 215 -31.5t149.5 -84 t91 -121t41.5 -142.5l-116 -24q-23 143 -111 219t-280 76q-115 0 -192 -25t-122 -67t-63.5 -96t-18.5 -113q0 -49 11.5 -89t39 -73t75.5 -56.5t122 -40.5l203 -43q92 -18 155.5 -53t101.5 -83t55.5 -106t17.5 -124q0 -113 -42 -198t-115 -143t-171 -88t-213 -30 q-96 0 -191.5 16.5t-172 62.5t-127 128t-54.5 213z" />
<glyph unicode="T" horiz-adv-x="1208" d="M238 1348l24 114h1139l-25 -114h-506l-284 -1348h-125l284 1348h-507z" />
<glyph unicode="U" horiz-adv-x="1384" d="M176 389q0 43 6 91t17 102l186 880h125l-188 -891q-20 -94 -21 -178q0 -160 85 -239.5t265 -79.5q113 0 194 31.5t137 94t94 156t65 215.5l188 891h125l-188 -889q-35 -162 -88.5 -277.5t-128 -189t-175 -108.5t-227.5 -35q-106 0 -193 24.5t-148.5 77t-95.5 133.5 t-34 191z" />
<glyph unicode="V" horiz-adv-x="1329" d="M256 1462h133l221 -1321l779 1321h139l-877 -1462h-135z" />
<glyph unicode="W" horiz-adv-x="1865" d="M254 1462h131l72 -1306l635 1300h133l82 -1298l620 1304h139l-720 -1462h-144l-80 1300l-626 -1300h-138z" />
<glyph unicode="X" horiz-adv-x="1255" d="M-53 0l682 778l-332 684h139l283 -606l538 606h142l-623 -702l371 -760h-143l-322 674l-592 -674h-143z" />
<glyph unicode="Y" horiz-adv-x="1204" d="M258 1462h135l279 -723l585 723h144l-682 -829l-133 -633h-125l133 633z" />
<glyph unicode="Z" horiz-adv-x="1198" d="M-4 0l20 102l1139 1248h-868l22 112h1030l-22 -104l-1135 -1243h912l-50 -115h-1048z" />
<glyph unicode="[" horiz-adv-x="520" d="M20 -254l375 1757h340l-22 -102h-217l-330 -1553h217l-23 -102h-340z" />
<glyph unicode="\" horiz-adv-x="618" d="M256 1503h121l139 -1503h-121z" />
<glyph unicode="]" horiz-adv-x="520" d="M-115 -254l23 102h217l330 1553h-217l22 102h340l-375 -1757h-340z" />
<glyph unicode="^" d="M188 627l590 821h107l241 -821h-120l-199 692l-490 -692h-129z" />
<glyph unicode="_" horiz-adv-x="1024" d="M-158 -358l23 106h1022l-23 -106h-1022z" />
<glyph unicode="`" horiz-adv-x="776" d="M379 1483h151l183 -275h-119z" />
<glyph unicode="a" horiz-adv-x="1075" d="M51 252q0 111 45 183.5t126 118.5t191.5 66.5t241.5 26.5l213 8l4 21q4 27 8.5 52.5t4.5 47.5q0 92 -53.5 151.5t-190.5 59.5q-76 0 -129 -9t-90 -29.5t-62.5 -55.5t-46.5 -86l-110 18q49 143 156.5 202.5t291.5 59.5q182 0 268.5 -84.5t86.5 -226.5q0 -29 -4.5 -58.5 t-10.5 -60.5l-139 -657h-119l31 150q-72 -72 -166 -123.5t-233 -51.5q-137 0 -225.5 75t-88.5 202zM178 254q0 -70 45 -121t158 -51q68 0 134.5 15.5t117.5 49.5q41 27 70.5 52.5t51 54.5t37 65.5t25.5 86.5l33 155l-197 -8q-135 -6 -226 -25.5t-146.5 -55.5t-79 -90 t-23.5 -128z" />
<glyph unicode="b" horiz-adv-x="1193" d="M61 0l310 1462h118l-118 -565q82 92 176 141t211 49q104 0 176 -38.5t116 -101t63.5 -143.5t19.5 -165q0 -121 -38 -240.5t-112 -215t-180.5 -156t-243.5 -60.5q-106 0 -198.5 48t-147.5 147l-33 -162h-119zM260 344q0 -68 22.5 -115t67.5 -88q41 -35 93 -53t122 -18 q98 0 179 46t139.5 124.5t90.5 181t32 217.5q0 174 -69 260t-194 86q-66 0 -117 -16.5t-108 -55.5q-80 -53 -137 -134t-84 -206l-18 -88q-18 -84 -19 -141z" />
<glyph unicode="c" horiz-adv-x="1134" d="M119 408q0 162 47 287.5t127 212.5t185.5 133t221.5 46q100 0 172 -28.5t118 -77.5t69.5 -112.5t30.5 -131.5l-113 -22q-6 49 -20.5 97t-45 86t-82 62.5t-131.5 24.5q-102 0 -185 -42t-142.5 -116.5t-91 -179t-31.5 -227.5q0 -74 16.5 -138.5t53 -111.5t95 -73.5 t142.5 -26.5q78 0 136.5 20.5t100.5 56t69.5 84t45.5 101.5h121q-25 -80 -65.5 -146.5t-100 -114.5t-139.5 -76t-180 -28q-104 0 -183 35t-133.5 94.5t-81 139t-26.5 172.5z" />
<glyph unicode="d" horiz-adv-x="1189" d="M117 412q0 121 38 241.5t110.5 217t179 156.5t245.5 60q106 0 198.5 -49t147.5 -147l121 571h119l-311 -1462h-119l33 158q-78 -98 -169.5 -144.5t-207.5 -46.5q-104 0 -178 40t-120 102.5t-66.5 142.5t-20.5 160zM244 416q0 -168 73.5 -257t202.5 -89q66 0 115 14 t102 51q78 55 133.5 138t81.5 208l19 88q18 82 18 144q0 66 -22.5 113.5t-67.5 86.5q-41 35 -93 53.5t-122 18.5q-98 0 -179 -45t-139.5 -123t-90 -181.5t-31.5 -219.5z" />
<glyph unicode="e" horiz-adv-x="1146" d="M119 418q0 162 45 286.5t123 209.5t181 129t222 44q98 0 173 -31.5t124 -86t73.5 -128t24.5 -157.5q0 -31 -2 -75t-8 -79l-6 -32h-825q-2 -20 -2 -39.5v-42.5q0 -72 19.5 -135.5t59 -110.5t101 -75.5t147.5 -28.5q76 0 130.5 16t92 44t62.5 66.5t41 83.5h117 q-25 -68 -59.5 -125t-88 -98t-127 -63.5t-176.5 -22.5q-111 0 -193.5 37t-138 99.5t-83 143.5t-27.5 171zM260 600h705q4 18 5 45t1 49q0 63 -17.5 117.5t-54.5 94.5t-91 62.5t-128 22.5q-162 0 -271.5 -102.5t-148.5 -288.5z" />
<glyph unicode="f" horiz-adv-x="632" d="M121 0l203 956h-164l20 99h164l29 129q35 160 117.5 227.5t201.5 67.5q47 0 86 -8.5t74 -22.5l-37 -96q-27 10 -53.5 16t-71.5 6q-86 0 -132 -47t-66 -139l-29 -133h280l-20 -99h-281l-202 -956h-119z" />
<glyph unicode="g" horiz-adv-x="1187" d="M41 -115h113q8 -55 27.5 -94t53 -63.5t86 -35.5t128.5 -11q174 0 269 84.5t138 285.5l31 144q-70 -90 -168 -134.5t-215 -44.5q-104 0 -176 38t-117 98.5t-64.5 136.5t-19.5 149q0 115 37 230.5t108.5 209t177 151.5t240.5 58q106 0 198.5 -49t147.5 -147l35 164h119 l-217 -1016q-23 -106 -62 -191.5t-100 -144.5t-150.5 -91t-211.5 -32q-86 0 -160 16.5t-127 52.5t-86 94t-35 142zM254 440q0 -154 69.5 -237.5t194.5 -83.5q66 0 126.5 16.5t117.5 54.5q80 53 126 129t73 201l10 49q18 82 18 146q0 66 -22.5 112.5t-67.5 85.5 q-41 35 -93 53.5t-122 18.5q-98 0 -178 -45t-135.5 -121t-86 -174t-30.5 -205z" />
<glyph unicode="h" horiz-adv-x="1142" d="M61 0l310 1462h118l-122 -579q102 111 208.5 157.5t202.5 46.5q147 0 224 -79.5t77 -221.5q0 -53 -12 -110l-143 -676h-119l139 653q6 29 10 57.5t4 57.5q0 96 -44 154.5t-154 58.5q-59 0 -130 -24.5t-136 -75.5q-66 -53 -114 -109.5t-69 -153.5l-131 -618h-119z" />
<glyph unicode="i" horiz-adv-x="417" d="M68 0l223 1055h119l-224 -1055h-118zM322 1284l36 178h136l-37 -178h-135z" />
<glyph unicode="j" horiz-adv-x="417" d="M-317 -344l41 98q25 -10 57.5 -19t83.5 -9q84 0 125 50t59 136l242 1143h119l-232 -1092q-16 -72 -36.5 -134t-55.5 -108.5t-88 -74t-133 -27.5q-70 0 -112 12.5t-70 24.5zM322 1284l36 178h136l-37 -178h-135z" />
<glyph unicode="k" horiz-adv-x="1009" d="M61 0l310 1462h118l-186 -891l637 484h154l-449 -355l270 -700h-133l-237 635l-275 -205l-90 -430h-119z" />
<glyph unicode="l" horiz-adv-x="417" d="M68 0l309 1462h119l-310 -1462h-118z" />
<glyph unicode="m" horiz-adv-x="1746" d="M61 0l224 1055h118l-36 -172q92 111 193.5 157.5t184.5 46.5q102 0 168 -54t84 -156q53 61 109.5 102t110 64.5t102.5 33.5t90 10q139 0 205.5 -75.5t66.5 -192.5q0 -31 -5 -77t-15 -97l-137 -645h-119l133 623q10 43 17.5 96t7.5 94q0 68 -38 118t-132 50 q-59 0 -126 -20.5t-132 -73.5q-61 -49 -94 -99.5t-54 -140.5l-137 -647h-119l131 614q10 53 18.5 104.5t8.5 80.5q0 78 -35 130t-125 52q-63 0 -123.5 -23.5t-126.5 -76.5q-66 -51 -107.5 -110.5t-64.5 -166.5l-127 -604h-119z" />
<glyph unicode="n" horiz-adv-x="1142" d="M61 0l224 1055h118l-36 -172q102 111 208.5 157.5t202.5 46.5q147 0 224 -79.5t77 -221.5q0 -53 -12 -110l-143 -676h-119l139 653q6 29 10 57.5t4 57.5q0 96 -44 154.5t-154 58.5q-59 0 -130 -24.5t-136 -75.5q-66 -53 -114 -109.5t-69 -153.5l-131 -618h-119z" />
<glyph unicode="o" horiz-adv-x="1214" d="M121 406q0 158 48 283.5t131 214.5t193.5 136t235.5 47q92 0 169 -31.5t132 -89t87 -138t32 -179.5q0 -158 -47 -283.5t-128 -215t-192.5 -136.5t-240.5 -47q-92 0 -169 32t-132.5 89t-87 138t-31.5 180zM248 416q0 -154 76.5 -250t226.5 -96q106 0 193 44t148.5 120.5 t95.5 181t34 223.5q0 154 -77 250t-226 96q-106 0 -193.5 -44t-149 -121t-95 -181t-33.5 -223z" />
<glyph unicode="p" horiz-adv-x="1193" d="M-25 -397l310 1452h118l-32 -158q82 92 176 141t211 49q104 0 175 -37.5t116 -99t64.5 -140.5t19.5 -161q0 -121 -37 -242.5t-110 -219t-179.5 -159t-247.5 -61.5q-106 0 -198.5 48t-147.5 147l-119 -559h-119zM260 346q0 -70 22.5 -117t67.5 -88q41 -35 93 -53t122 -18 q98 0 179 46t139.5 124.5t90.5 181t32 217.5q0 174 -69 260t-194 86q-66 0 -117 -16.5t-108 -55.5q-80 -53 -137 -134t-84 -206l-18 -88q-18 -80 -19 -139z" />
<glyph unicode="q" horiz-adv-x="1191" d="M117 414q0 117 38 237.5t110.5 217t179 157.5t245.5 61q106 0 198.5 -49t147.5 -147l35 164h119l-311 -1452h-119l119 555q-78 -98 -169.5 -144.5t-207.5 -46.5q-104 0 -178 39t-120 101.5t-66.5 142.5t-20.5 164zM244 416q0 -168 73.5 -257t202.5 -89q66 0 115 14 t102 51q78 55 133.5 138t81.5 208l19 88q18 80 18 140q0 68 -22.5 115.5t-67.5 88.5q-84 72 -219 72q-98 0 -179 -46t-137.5 -125t-88 -182.5t-31.5 -215.5z" />
<glyph unicode="r" horiz-adv-x="690" d="M61 0l224 1055h118l-36 -172q98 109 180 148.5t168 39.5q23 0 47 -3t39 -7l-33 -109q-35 6 -76 6q-33 0 -86 -14t-112 -63q-66 -53 -114 -110.5t-69 -154.5l-131 -616h-119z" />
<glyph unicode="s" horiz-adv-x="1052" d="M63 293h115q0 -66 25.5 -110t68.5 -69.5t99.5 -35.5t120.5 -10q152 0 219 64.5t67 152.5q0 82 -38 121.5t-138 62.5l-121 27q-152 35 -219 96t-67 172q0 82 34.5 143.5t92 101.5t132 59t152.5 19q102 0 173 -22.5t115 -61t67.5 -92t31.5 -112.5l-108 -21q-10 53 -29.5 92 t-53.5 65t-83 38t-121 12q-76 0 -130 -16.5t-88 -45t-50.5 -65.5t-16.5 -76q0 -35 8.5 -62.5t30 -49t59.5 -38t97 -28.5l133 -29q123 -27 192.5 -91t69.5 -197q-2 -82 -38 -142.5t-94 -99.5t-134 -58.5t-158 -19.5q-74 0 -148.5 15.5t-134 53.5t-96.5 100.5t-37 156.5z" />
<glyph unicode="t" horiz-adv-x="675" d="M160 956l20 99h164l62 291h118l-61 -291h299l-21 -99h-299l-141 -665q-4 -23 -7 -42.5t-3 -37.5q0 -131 129 -131q53 0 84 8t59 18l21 -96q-35 -12 -77 -22.5t-99 -10.5q-113 0 -174.5 54.5t-61.5 163.5q0 23 2 46t8 50l142 665h-164z" />
<glyph unicode="u" horiz-adv-x="1120" d="M121 264q0 27 3 56.5t9 58.5l143 676h119l-141 -664q-4 -25 -7 -55.5t-3 -59.5q0 -41 8 -76.5t29.5 -64.5t58.5 -45t92 -16q59 0 125 23.5t129 76.5t110.5 109.5t67.5 152.5l131 619h119l-223 -1055h-119l37 172q-98 -111 -198.5 -158t-196.5 -47q-76 0 -131.5 22.5 t-91 62.5t-53 94.5t-17.5 117.5z" />
<glyph unicode="v" horiz-adv-x="1015" d="M141 1055h131l164 -926l561 926h136l-650 -1055h-139z" />
<glyph unicode="w" horiz-adv-x="1456" d="M147 1055h127l50 -922l462 916h140l67 -916l443 922h131l-533 -1055h-137l-70 922l-460 -922h-138z" />
<glyph unicode="x" horiz-adv-x="978" d="M-55 0l512 569l-252 486h127l207 -416l379 416h137l-457 -506l276 -549h-126l-236 475l-426 -475h-141z" />
<glyph unicode="y" horiz-adv-x="1019" d="M-49 -367l39 97q18 -8 42.5 -15.5t55.5 -7.5q37 0 61.5 9.5t47 30t45 55t55.5 87.5l76 125l-232 1041h129l193 -905l532 905h142l-734 -1194q-39 -59 -70.5 -107.5t-65.5 -82t-72.5 -51t-92.5 -17.5q-47 0 -84.5 8t-66.5 22z" />
<glyph unicode="z" horiz-adv-x="919" d="M-29 0l21 100l833 854h-649l21 101h796l-20 -101l-834 -854h703l-37 -100h-834z" />
<glyph unicode="{" horiz-adv-x="538" d="M100 571l23 107h4q84 0 121 39t53 117l94 442q27 131 99.5 179t185.5 48h86l-23 -100h-94q-59 0 -89 -28.5t-40 -82.5l-104 -489q-35 -158 -154 -178q84 -18 84 -115q0 -31 -6 -64l-104 -489q-4 -10 -4.5 -20.5t-0.5 -20.5q0 -35 18.5 -52.5t65.5 -17.5h99l-23 -100h-86 q-92 0 -144 30.5t-52 114.5q0 18 3 39t7 43l94 443q6 33 6 61q0 47 -24.5 70.5t-90.5 23.5h-4z" />
<glyph unicode="|" horiz-adv-x="413" d="M8 -254l375 1757h123l-375 -1757h-123z" />
<glyph unicode="}" horiz-adv-x="538" d="M-125 -254l23 100h92q59 0 89 29t40 82l104 489q35 158 152 179q-84 16 -84 112q0 33 8 66l104 489q2 10 3.5 20.5t1.5 18.5q0 35 -18.5 53.5t-65.5 18.5h-99l23 100h86q92 0 143 -30.5t51 -116.5q0 -39 -8 -80l-94 -442q-4 -16 -6 -32t-2 -30q0 -47 25.5 -70.5 t91.5 -23.5h4l-23 -107h-4q-86 0 -122 -38.5t-52 -116.5l-94 -443q-14 -66 -40 -109.5t-62 -70t-82 -37t-101 -10.5h-84z" />
<glyph unicode="~" d="M135 541q16 106 47 169.5t71 96.5t88 42t97 9q82 0 141.5 -39t109.5 -86t99.5 -86t110.5 -39q82 0 129 48.5t68 170.5h102q-16 -106 -48 -169.5t-73 -97.5t-90 -44t-98 -10q-82 0 -141.5 40t-110.5 87t-100.5 87t-108.5 40q-82 0 -125 -48t-65 -171h-103z" />
<glyph unicode="&#xa1;" horiz-adv-x="421" d="M-18 -397l231 1056h109l-216 -1056h-124zM231 866l39 189h148l-39 -189h-148z" />
<glyph unicode="&#xa2;" d="M217 586q0 160 46 284.5t124 211.5t181.5 134.5t217.5 49.5l37 168h101l-37 -174q76 -12 130 -45t91 -79t55.5 -103.5t24.5 -117.5l-113 -22q-6 43 -17 85t-35 79t-62.5 63.5t-96.5 36.5l-192 -909q74 2 128 24.5t94 58.5t66.5 83t45.5 100h120q-25 -80 -64.5 -146.5 t-98 -115.5t-136 -77t-176.5 -30l-35 -163h-100l35 170q-82 14 -144.5 53t-104.5 96t-63.5 130t-21.5 155zM346 598q0 -127 53.5 -222t173.5 -120l193 905q-96 -6 -174 -50t-132 -118.5t-84 -175t-30 -219.5z" />
<glyph unicode="&#xa3;" d="M109 0l22 113q61 51 112.5 104t88.5 112.5t58.5 126t21.5 144.5q0 14 -1 26.5t-1 26.5h-183l23 105h147l-12 94t-6 98q0 111 24.5 203t79 159.5t141.5 104.5t214 37q166 0 255 -81t124 -238l-113 -29q-31 135 -91.5 189.5t-183.5 54.5q-92 0 -155.5 -27t-101 -76 t-54 -117.5t-16.5 -152.5q0 -59 6 -112.5t12 -106.5h463l-22 -105h-431v-35q0 -162 -72.5 -284.5t-187.5 -220.5h791l-43 -113h-909z" />
<glyph unicode="&#xa4;" d="M135 281l139 120q-47 88 -47 201q0 141 44 251t120 187l-90 127l90 66l86 -123q59 39 129 59.5t144 20.5q156 0 254 -98l143 125l67 -82l-147 -129q45 -86 45 -193q0 -139 -42 -248.5t-116 -185.5l95 -131l-93 -66l-88 125q-126 -82 -280 -82q-150 0 -248 92l-137 -118z M348 616q0 -129 63.5 -205.5t186.5 -76.5q88 0 160.5 36t123 98t78 148t27.5 185q0 129 -62.5 204.5t-185.5 75.5q-90 0 -161.5 -35.5t-123 -98t-79 -147.5t-27.5 -184z" />
<glyph unicode="&#xa5;" d="M143 346l23 103h381l35 163l-23 64h-352l20 104h289l-252 635h133l258 -704l568 704h133l-518 -635h286l-20 -104h-350l-52 -64l-34 -163h395l-23 -103h-395l-72 -346h-120l71 346h-381z" />
<glyph unicode="&#xa6;" horiz-adv-x="413" d="M8 -254l154 723h123l-154 -723h-123zM236 815l147 688h123l-148 -688h-122z" />
<glyph unicode="&#xa7;" horiz-adv-x="1044" d="M33 88h112q6 -53 25.5 -94t58.5 -69.5t99.5 -44t146.5 -15.5q94 0 152.5 19.5t90.5 52t43 74.5t11 85q0 49 -33.5 101.5t-134.5 81.5l-168 49q-152 45 -217 116.5t-65 180.5q0 113 62.5 195.5t191.5 113.5q-84 39 -117 102.5t-33 137.5q0 90 34 151t92 100t136 55.5 t164 16.5q115 0 192.5 -28.5t127 -71.5t73 -95.5t31.5 -99.5l-111 -20q-10 45 -29.5 84t-56.5 66.5t-94 44t-141 16.5q-92 0 -150.5 -17.5t-92.5 -47.5t-46 -70.5t-12 -88.5q0 -57 39 -104t131 -76l166 -51q147 -47 212.5 -117.5t65.5 -179.5q0 -113 -60.5 -196t-189.5 -113 q86 -41 118 -108.5t32 -135.5q0 -92 -33 -155.5t-89 -101.5t-134 -54.5t-168 -16.5q-123 0 -206 32t-133 80t-71.5 105.5t-21.5 110.5zM274 621q0 -63 44 -110.5t147 -80.5l61 -20q29 -10 55.5 -13.5t49.5 -3.5q45 0 88 15.5t75.5 46t53 78t20.5 112.5q0 66 -43 111t-147 80 l-62 20q-53 16 -98 16q-47 0 -91 -14t-78 -44t-54.5 -78t-20.5 -115z" />
<glyph unicode="&#xa8;" horiz-adv-x="776" d="M301 1268l37 174h133l-37 -174h-133zM629 1268l37 174h135l-37 -174h-135z" />
<glyph unicode="&#xa9;" horiz-adv-x="1581" d="M154 731q0 166 54 301t149.5 230.5t222.5 147.5t272 52q154 0 282 -52t220 -147.5t142 -230.5t50 -301t-54 -301t-147.5 -230.5t-220.5 -147.5t-272 -52q-154 0 -283 52t-221 147.5t-143 230.5t-51 301zM272 731q0 -141 42 -257t119 -198.5t182.5 -128t234.5 -45.5 q127 0 232.5 45.5t182 128t119.5 198.5t43 257t-43 257t-119.5 198t-182 127t-232.5 45q-129 0 -234.5 -45t-182.5 -127t-119 -198t-42 -257zM475 727q0 96 26.5 175t77 134.5t121 86t158.5 30.5q137 0 217 -67.5t105 -190.5l-103 -21q-20 86 -69.5 136.5t-151.5 50.5 q-70 0 -120 -24.5t-81.5 -69.5t-46 -105.5t-14.5 -132.5q0 -70 14.5 -130t46 -104t80.5 -70t119 -26q104 0 158.5 52.5t70.5 144.5h113q-25 -135 -111 -213t-233 -78q-178 0 -277.5 111.5t-99.5 310.5z" />
<glyph unicode="&#xaa;" horiz-adv-x="868" d="M211 891q0 80 30.5 134t88 88t139.5 50.5t184 20.5l148 6l2 10q4 20 5 36.5t1 31.5q0 63 -38 102t-128 39q-53 0 -91 -6t-64.5 -20.5t-44 -40t-31.5 -62.5l-93 16q37 111 117 157t213 46q131 0 195.5 -62.5t64.5 -166.5q0 -20 -2 -43t-6 -45l-100 -477h-101l19 94 q-53 -45 -116.5 -79t-158.5 -34q-102 0 -167.5 56.5t-65.5 148.5zM319 893q0 -45 33 -80t105 -35q47 0 94 12.5t82 34.5q57 35 86 75t43 104l22 102l-133 -6q-94 -4 -157.5 -18.5t-102.5 -39t-55.5 -61.5t-16.5 -88z" />
<glyph unicode="&#xab;" horiz-adv-x="960" d="M131 526l381 453h121l-371 -459l168 -450h-113zM518 526l381 453h121l-371 -459l168 -450h-113z" />
<glyph unicode="&#xac;" d="M207 768l22 106h918l-115 -544h-108l92 438h-809z" />
<glyph unicode="&#xad;" horiz-adv-x="800" d="M133 530l25 123h596l-25 -123h-596z" />
<glyph unicode="&#xae;" horiz-adv-x="983" d="M209 1061q0 100 32.5 182t89 138.5t133.5 87t163 30.5q94 0 170.5 -30.5t132 -87t85 -138.5t29.5 -182q0 -102 -32.5 -183t-89 -137.5t-133 -87t-162.5 -30.5q-92 0 -169 30.5t-132.5 87t-86 137t-30.5 183.5zM303 1061q0 -170 88 -263t234 -93q145 0 235 93t90 263 t-90 263t-235 93t-233.5 -93t-88.5 -263zM469 862v414h154q55 0 88.5 -11.5t53 -28.5t26 -39.5t6.5 -47.5q0 -45 -15.5 -70.5t-56.5 -42.5l90 -174h-92l-78 156h-92v-156h-84zM553 1090h78q55 0 68.5 19t13.5 46q0 23 -17.5 38t-77.5 15h-65v-118z" />
<glyph unicode="&#xaf;" horiz-adv-x="776" d="M287 1284l22 105h500l-23 -105h-499z" />
<glyph unicode="&#xb0;" horiz-adv-x="647" d="M164 1186q0 57 20.5 106t57.5 85t87 56.5t109 20.5q57 0 106.5 -20.5t86.5 -56.5t57.5 -85t20.5 -106q0 -59 -20.5 -108.5t-57.5 -86.5t-86 -57.5t-107 -20.5q-59 0 -109 20.5t-87 57.5t-57.5 86.5t-20.5 108.5zM268 1184q0 -82 46 -130t124 -48q74 0 120 48t46 130 q0 78 -46 128t-120 50q-78 0 -124 -50t-46 -128z" />
<glyph unicode="&#xb1;" d="M66 0l22 113h938l-22 -113h-938zM193 643l24 109h412l92 438h110l-92 -438h412l-25 -109h-411l-92 -440h-111l92 440h-411z" />
<glyph unicode="&#xb2;" horiz-adv-x="843" d="M182 604l17 90q72 53 149.5 108.5t155.5 112.5q49 35 91 67t73.5 67.5t50 77.5t18.5 98q0 49 -36.5 88t-102.5 39q-88 0 -135 -34t-80 -118l-98 23q29 94 104.5 159.5t214.5 65.5q109 0 176.5 -62.5t67.5 -160.5q0 -70 -23.5 -124t-64.5 -99.5t-94.5 -86.5t-110.5 -81 q-43 -31 -91 -63t-97 -69h391l-39 -98h-537z" />
<glyph unicode="&#xb3;" horiz-adv-x="843" d="M209 831h94q8 -86 61.5 -126.5t131.5 -40.5q98 0 151 47t53 137q0 66 -34.5 100.5t-96.5 34.5h-127l21 88h112q86 0 133.5 44t47.5 122q0 49 -37 86t-109 37q-94 0 -142 -33t-83 -119l-92 21q14 47 38.5 87t63.5 69.5t92.5 46t124.5 16.5q61 0 107.5 -17.5t77 -46 t45 -66.5t14.5 -77q0 -88 -42 -138t-105 -79q49 -33 70.5 -76t21.5 -96q0 -123 -77 -200t-232 -77q-57 0 -108.5 16.5t-90.5 49.5t-61.5 81t-22.5 109z" />
<glyph unicode="&#xb4;" horiz-adv-x="776" d="M330 1208l272 275h168l-305 -275h-135z" />
<glyph unicode="&#xb5;" horiz-adv-x="1120" d="M-33 -397l309 1452h119l-141 -664q-4 -25 -7 -51.5t-3 -54.5q0 -41 8 -79t29.5 -66.5t58.5 -47t92 -18.5q59 0 125 23.5t129 76.5t110.5 109.5t67.5 152.5l131 619h119l-223 -1055h-119l37 172q-98 -111 -198.5 -158t-196.5 -47q-88 0 -142.5 26.5t-85.5 80.5l-100 -471 h-119z" />
<glyph unicode="&#xb6;" horiz-adv-x="1193" d="M180 985q0 100 34 187.5t110.5 152t198.5 101t298 36.5h449l-371 -1747h-127l348 1641h-280l-348 -1641h-127l196 930q-106 0 -179 30t-118 78t-64.5 109.5t-19.5 122.5z" />
<glyph unicode="&#xb7;" horiz-adv-x="407" d="M186 670l39 190h154l-39 -190h-154z" />
<glyph unicode="&#xb8;" horiz-adv-x="776" d="M23 -401l20 90q29 -6 51.5 -9.5t50.5 -3.5q66 0 102 16.5t36 61.5q0 31 -34 50.5t-116 19.5h-24l102 182h94l-63 -112q88 -14 121.5 -53.5t33.5 -80.5q0 -100 -71.5 -138t-180.5 -38q-29 0 -61.5 4t-60.5 11z" />
<glyph unicode="&#xb9;" horiz-adv-x="843" d="M344 1294l256 125h129l-174 -815h-119l148 692l-201 -94z" />
<glyph unicode="&#xba;" horiz-adv-x="884" d="M205 1004q0 115 34.5 205.5t95 155.5t141.5 99.5t171 34.5q66 0 122 -22.5t97 -64.5t63.5 -100.5t22.5 -129.5q0 -115 -33.5 -207t-93 -156.5t-140.5 -99.5t-175 -35q-68 0 -123 23.5t-96 65.5t-63.5 100.5t-22.5 130.5zM313 1016q0 -106 52.5 -172t156.5 -66 q74 0 133.5 31t101.5 83t64.5 123.5t22.5 153.5q0 106 -52.5 172t-156.5 66q-74 0 -133.5 -30.5t-101.5 -84t-64.5 -124t-22.5 -152.5z" />
<glyph unicode="&#xbb;" horiz-adv-x="980" d="M-4 70l371 458l-168 451h110l189 -457l-379 -452h-123zM404 70l371 458l-168 451h110l189 -457l-379 -452h-123z" />
<glyph unicode="&#xbc;" horiz-adv-x="1837" d="M264 1294l256 125h129l-174 -815h-119l148 692l-201 -94zM371 0l1020 1415h129l-1016 -1415h-133zM1060 207l17 76l532 534h105l-111 -520h103l-37 -90h-86l-43 -205h-101l43 205h-422zM1206 297h297l78 377z" />
<glyph unicode="&#xbd;" horiz-adv-x="1837" d="M264 1294l256 125h129l-174 -815h-119l148 692l-201 -94zM307 0l1020 1415h129l-1016 -1415h-133zM1093 2l17 90q72 53 149.5 108.5t155.5 112.5q49 35 91 67t73.5 67.5t50 77.5t18.5 98q0 49 -36.5 88t-102.5 39q-88 0 -135 -34t-80 -118l-98 23q29 94 104.5 159.5 t214.5 65.5q109 0 176.5 -62.5t67.5 -160.5q0 -70 -23.5 -124t-64.5 -99.5t-94.5 -86.5t-110.5 -81q-43 -31 -91 -63t-97 -69h391l-39 -98h-537z" />
<glyph unicode="&#xbe;" horiz-adv-x="1837" d="M191 831h94q8 -86 61.5 -126.5t131.5 -40.5q98 0 151 47t53 137q0 66 -34.5 100.5t-96.5 34.5h-127l21 88h112q86 0 133.5 44t47.5 122q0 49 -37 86t-109 37q-94 0 -142 -33t-83 -119l-92 21q14 47 38.5 87t63.5 69.5t92.5 46t124.5 16.5q61 0 107.5 -17.5t77 -46 t45 -66.5t14.5 -77q0 -88 -42 -138t-105 -79q49 -33 70.5 -76t21.5 -96q0 -123 -77 -200t-232 -77q-57 0 -108.5 16.5t-90.5 49.5t-61.5 81t-22.5 109zM447 0l1020 1415h129l-1016 -1415h-133zM1060 207l17 76l532 534h105l-111 -520h103l-37 -90h-86l-43 -205h-101l43 205 h-422zM1206 297h297l78 377z" />
<glyph unicode="&#xbf;" horiz-adv-x="1009" d="M18 -111q0 135 67 231.5t177 184.5q49 39 95 74t84 72.5t66 82t40 103.5l4 22h119l-4 -22q-16 -78 -48 -132t-74 -98.5t-92.5 -83t-103.5 -81.5q-43 -35 -82 -71t-66.5 -77t-44 -89t-16.5 -107q2 -100 68.5 -157.5t195.5 -57.5q70 0 125.5 12t100.5 43t79.5 83t63.5 130 l105 -21q-25 -80 -65 -145.5t-98.5 -111.5t-138 -71.5t-184.5 -25.5q-94 0 -164.5 24.5t-117 67.5t-69 99t-22.5 122zM571 866l39 189h152l-39 -189h-152z" />
<glyph unicode="&#xc0;" horiz-adv-x="1353" d="M-57 0l888 1462h148l268 -1462h-129l-82 446h-688l-268 -446h-137zM418 561h598l-139 764zM708 1849h154l180 -264h-121z" />
<glyph unicode="&#xc1;" horiz-adv-x="1353" d="M-57 0l888 1462h148l268 -1462h-129l-82 446h-688l-268 -446h-137zM418 561h598l-139 764zM782 1585l272 264h166l-307 -264h-131z" />
<glyph unicode="&#xc2;" horiz-adv-x="1353" d="M-57 0l888 1462h148l268 -1462h-129l-82 446h-688l-268 -446h-137zM418 561h598l-139 764zM641 1585l285 264h117l174 -264h-123l-121 170l-205 -170h-127z" />
<glyph unicode="&#xc3;" horiz-adv-x="1353" d="M-57 0l888 1462h148l268 -1462h-129l-82 446h-688l-268 -446h-137zM418 561h598l-139 764zM576 1602q16 106 65 160.5t148 54.5q51 0 89 -18.5t70.5 -40t62.5 -40t64 -18.5q53 0 78 26.5t35 88.5h102q-16 -106 -65.5 -161t-147.5 -55q-51 0 -88.5 18.5t-70.5 41t-63.5 41 t-63.5 18.5q-53 0 -78 -27.5t-37 -88.5h-100z" />
<glyph unicode="&#xc4;" horiz-adv-x="1353" d="M-57 0l888 1462h148l268 -1462h-129l-82 446h-688l-268 -446h-137zM418 561h598l-139 764zM680 1628l39 178h137l-39 -178h-137zM1016 1628l39 178h139l-39 -178h-139z" />
<glyph unicode="&#xc5;" horiz-adv-x="1353" d="M-57 0l856 1409q-37 25 -60.5 66t-23.5 100q0 98 58 147.5t136 49.5q39 0 74 -12.5t62.5 -37t44 -61.5t16.5 -86q0 -70 -33 -115t-82 -65l256 -1395h-129l-82 446h-688l-268 -446h-137zM418 561h598l-139 764zM805 1575q0 -57 28.5 -84t75.5 -27q49 0 77 27t28 84 q0 59 -28 87t-77 28q-47 0 -75.5 -28t-28.5 -87z" />
<glyph unicode="&#xc6;" horiz-adv-x="2072" d="M-72 0l1174 1462h1081l-22 -112h-744l-114 -537h702l-25 -117h-702l-125 -581h786l-49 -115h-878l106 510h-639l-407 -510h-144zM571 625h572l155 725h-145z" />
<glyph unicode="&#xc7;" horiz-adv-x="1452" d="M162 563q0 186 52 356.5t152.5 299.5t244 204.5t327.5 75.5q229 0 359 -124t153 -349l-125 -25q-27 199 -119 294.5t-278 95.5q-145 0 -262 -64.5t-199 -175.5t-126 -259.5t-44 -316.5q0 -104 28.5 -195t84 -159.5t138.5 -107.5t191 -39q106 0 188.5 27.5t142.5 77.5 t100 119t59 151h137q-25 -98 -73 -183.5t-119.5 -150t-169 -104.5t-222.5 -46l-45 -84q47 -8 79 -24.5t50.5 -37t26.5 -43t8 -40.5q0 -53 -20.5 -88t-55 -56.5t-84 -29.5t-106.5 -8q-33 0 -65.5 4t-63.5 10l22 92q31 -6 52.5 -9t54.5 -3q70 0 107.5 18.5t37.5 65.5 q0 33 -35.5 54t-123.5 21h-25l88 158q-113 8 -209 52t-165.5 121t-108.5 183.5t-39 241.5z" />
<glyph unicode="&#xc8;" horiz-adv-x="1204" d="M86 0l309 1462h920l-23 -112h-794l-115 -537h754l-25 -117h-754l-125 -581h838l-49 -115h-936zM686 1849h154l180 -264h-121z" />
<glyph unicode="&#xc9;" horiz-adv-x="1204" d="M86 0l309 1462h920l-23 -112h-794l-115 -537h754l-25 -117h-754l-125 -581h838l-49 -115h-936zM727 1585l272 264h166l-307 -264h-131z" />
<glyph unicode="&#xca;" horiz-adv-x="1204" d="M86 0l309 1462h920l-23 -112h-794l-115 -537h754l-25 -117h-754l-125 -581h838l-49 -115h-936zM583 1585l285 264h117l174 -264h-123l-121 170l-205 -170h-127z" />
<glyph unicode="&#xcb;" horiz-adv-x="1204" d="M86 0l309 1462h920l-23 -112h-794l-115 -537h754l-25 -117h-754l-125 -581h838l-49 -115h-936zM637 1628l39 178h137l-39 -178h-137zM973 1628l39 178h139l-39 -178h-139z" />
<glyph unicode="&#xcc;" horiz-adv-x="460" d="M86 0l309 1462h125l-309 -1462h-125zM243 1849h154l180 -264h-121z" />
<glyph unicode="&#xcd;" horiz-adv-x="460" d="M86 0l309 1462h125l-309 -1462h-125zM358 1585l272 264h166l-307 -264h-131z" />
<glyph unicode="&#xce;" horiz-adv-x="460" d="M86 0l309 1462h125l-309 -1462h-125zM196 1585l285 264h117l174 -264h-123l-121 170l-205 -170h-127z" />
<glyph unicode="&#xcf;" horiz-adv-x="460" d="M86 0l309 1462h125l-309 -1462h-125zM235 1628l39 178h137l-39 -178h-137zM571 1628l39 178h139l-39 -178h-139z" />
<glyph unicode="&#xd0;" horiz-adv-x="1458" d="M86 700l25 111h168l137 651h463q127 0 230 -43t177 -119.5t114 -183t40 -235.5q0 -184 -52.5 -345t-161 -280t-274.5 -187.5t-391 -68.5h-455l148 700h-168zM254 111h326q180 0 316 54t228.5 155.5t138.5 244t46 320.5q0 96 -29 181t-84 149.5t-138 101.5t-192 37h-348 l-117 -543h410l-25 -111h-407z" />
<glyph unicode="&#xd1;" horiz-adv-x="1413" d="M86 0l309 1462h131l555 -1269l271 1269h121l-310 -1462h-129l-557 1274l-270 -1274h-121zM621 1602q16 106 65 160.5t148 54.5q51 0 89 -18.5t70.5 -40t62.5 -40t64 -18.5q53 0 78 26.5t35 88.5h102q-16 -106 -65.5 -161t-147.5 -55q-51 0 -88.5 18.5t-70.5 41t-63.5 41 t-63.5 18.5q-53 0 -78 -27.5t-37 -88.5h-100z" />
<glyph unicode="&#xd2;" horiz-adv-x="1548" d="M164 565q0 168 54 336t155.5 300t248 215t332.5 83q121 0 226.5 -41t183.5 -118.5t122 -189.5t44 -255q0 -170 -52.5 -336t-153.5 -299t-247.5 -215t-337.5 -82q-121 0 -226 41t-183 118t-122 188.5t-44 254.5zM297 571q0 -109 28.5 -200.5t86 -157.5t140 -102.5 t191.5 -36.5q154 0 276 70.5t206 186t128 262t44 298.5q0 109 -29 200t-86 157.5t-140 103.5t-192 37q-154 0 -275.5 -72t-205.5 -186.5t-128 -262t-44 -297.5zM780 1849h154l180 -264h-121z" />
<glyph unicode="&#xd3;" horiz-adv-x="1548" d="M164 565q0 168 54 336t155.5 300t248 215t332.5 83q121 0 226.5 -41t183.5 -118.5t122 -189.5t44 -255q0 -170 -52.5 -336t-153.5 -299t-247.5 -215t-337.5 -82q-121 0 -226 41t-183 118t-122 188.5t-44 254.5zM297 571q0 -109 28.5 -200.5t86 -157.5t140 -102.5 t191.5 -36.5q154 0 276 70.5t206 186t128 262t44 298.5q0 109 -29 200t-86 157.5t-140 103.5t-192 37q-154 0 -275.5 -72t-205.5 -186.5t-128 -262t-44 -297.5zM840 1585l272 264h166l-307 -264h-131z" />
<glyph unicode="&#xd4;" horiz-adv-x="1548" d="M164 565q0 168 54 336t155.5 300t248 215t332.5 83q121 0 226.5 -41t183.5 -118.5t122 -189.5t44 -255q0 -170 -52.5 -336t-153.5 -299t-247.5 -215t-337.5 -82q-121 0 -226 41t-183 118t-122 188.5t-44 254.5zM297 571q0 -109 28.5 -200.5t86 -157.5t140 -102.5 t191.5 -36.5q154 0 276 70.5t206 186t128 262t44 298.5q0 109 -29 200t-86 157.5t-140 103.5t-192 37q-154 0 -275.5 -72t-205.5 -186.5t-128 -262t-44 -297.5zM706 1585l285 264h117l174 -264h-123l-121 170l-205 -170h-127z" />
<glyph unicode="&#xd5;" horiz-adv-x="1548" d="M164 565q0 168 54 336t155.5 300t248 215t332.5 83q121 0 226.5 -41t183.5 -118.5t122 -189.5t44 -255q0 -170 -52.5 -336t-153.5 -299t-247.5 -215t-337.5 -82q-121 0 -226 41t-183 118t-122 188.5t-44 254.5zM297 571q0 -109 28.5 -200.5t86 -157.5t140 -102.5 t191.5 -36.5q154 0 276 70.5t206 186t128 262t44 298.5q0 109 -29 200t-86 157.5t-140 103.5t-192 37q-154 0 -275.5 -72t-205.5 -186.5t-128 -262t-44 -297.5zM641 1602q16 106 65 160.5t148 54.5q51 0 89 -18.5t70.5 -40t62.5 -40t64 -18.5q53 0 78 26.5t35 88.5h102 q-16 -106 -65.5 -161t-147.5 -55q-51 0 -88.5 18.5t-70.5 41t-63.5 41t-63.5 18.5q-53 0 -78 -27.5t-37 -88.5h-100z" />
<glyph unicode="&#xd6;" horiz-adv-x="1548" d="M164 565q0 168 54 336t155.5 300t248 215t332.5 83q121 0 226.5 -41t183.5 -118.5t122 -189.5t44 -255q0 -170 -52.5 -336t-153.5 -299t-247.5 -215t-337.5 -82q-121 0 -226 41t-183 118t-122 188.5t-44 254.5zM297 571q0 -109 28.5 -200.5t86 -157.5t140 -102.5 t191.5 -36.5q154 0 276 70.5t206 186t128 262t44 298.5q0 109 -29 200t-86 157.5t-140 103.5t-192 37q-154 0 -275.5 -72t-205.5 -186.5t-128 -262t-44 -297.5zM745 1628l39 178h137l-39 -178h-137zM1081 1628l39 178h139l-39 -178h-139z" />
<glyph unicode="&#xd7;" d="M190 354l414 342l-280 348l84 68l280 -346l418 354l70 -76l-424 -356l264 -336l-86 -69l-262 338l-408 -345z" />
<glyph unicode="&#xd8;" horiz-adv-x="1548" d="M141 2l146 168q-59 74 -91 173t-32 222q0 168 54 336t155.5 300t248 215t332.5 83q111 0 207 -33.5t172 -97.5l142 162l84 -68l-152 -174q59 -74 91 -172t32 -221q0 -170 -52.5 -336t-153.5 -299t-247.5 -215t-337.5 -82q-223 0 -377 129l-137 -158zM297 571 q0 -90 18.5 -166.5t57.5 -138.5l880 1012q-55 53 -130.5 82t-172.5 29q-154 0 -275.5 -72t-205.5 -186.5t-128 -262t-44 -297.5zM440 182q115 -108 303 -108q154 0 276 70.5t206 186t128 262t44 298.5q0 178 -74 301z" />
<glyph unicode="&#xd9;" horiz-adv-x="1384" d="M176 389q0 43 6 91t17 102l186 880h125l-188 -891q-20 -94 -21 -178q0 -160 85 -239.5t265 -79.5q113 0 194 31.5t137 94t94 156t65 215.5l188 891h125l-188 -889q-35 -162 -88.5 -277.5t-128 -189t-175 -108.5t-227.5 -35q-106 0 -193 24.5t-148.5 77t-95.5 133.5 t-34 191zM725 1849h154l180 -264h-121z" />
<glyph unicode="&#xda;" horiz-adv-x="1384" d="M176 389q0 43 6 91t17 102l186 880h125l-188 -891q-20 -94 -21 -178q0 -160 85 -239.5t265 -79.5q113 0 194 31.5t137 94t94 156t65 215.5l188 891h125l-188 -889q-35 -162 -88.5 -277.5t-128 -189t-175 -108.5t-227.5 -35q-106 0 -193 24.5t-148.5 77t-95.5 133.5 t-34 191zM799 1585l272 264h166l-307 -264h-131z" />
<glyph unicode="&#xdb;" horiz-adv-x="1384" d="M176 389q0 43 6 91t17 102l186 880h125l-188 -891q-20 -94 -21 -178q0 -160 85 -239.5t265 -79.5q113 0 194 31.5t137 94t94 156t65 215.5l188 891h125l-188 -889q-35 -162 -88.5 -277.5t-128 -189t-175 -108.5t-227.5 -35q-106 0 -193 24.5t-148.5 77t-95.5 133.5 t-34 191zM639 1585l285 264h117l174 -264h-123l-121 170l-205 -170h-127z" />
<glyph unicode="&#xdc;" horiz-adv-x="1384" d="M176 389q0 43 6 91t17 102l186 880h125l-188 -891q-20 -94 -21 -178q0 -160 85 -239.5t265 -79.5q113 0 194 31.5t137 94t94 156t65 215.5l188 891h125l-188 -889q-35 -162 -88.5 -277.5t-128 -189t-175 -108.5t-227.5 -35q-106 0 -193 24.5t-148.5 77t-95.5 133.5 t-34 191zM696 1628l39 178h137l-39 -178h-137zM1032 1628l39 178h139l-39 -178h-139z" />
<glyph unicode="&#xdd;" horiz-adv-x="1204" d="M258 1462h135l279 -723l585 723h144l-682 -829l-133 -633h-125l133 633zM706 1585l272 264h166l-307 -264h-131z" />
<glyph unicode="&#xde;" horiz-adv-x="1267" d="M86 0l309 1462h123l-59 -284h340q131 0 218 -33t140 -84t75.5 -115t22.5 -125q0 -135 -46 -232t-129 -159.5t-199.5 -92.5t-257.5 -30h-351l-63 -307h-123zM297 416h344q109 0 199 19.5t153.5 66.5t98 125t34.5 196q0 53 -18 98.5t-59 78t-108 51t-163 18.5h-344z" />
<glyph unicode="&#xdf;" horiz-adv-x="1148" d="M66 0l229 1087q41 193 150.5 292.5t308.5 99.5q90 0 156.5 -26t110.5 -69t65.5 -100t21.5 -121q0 -143 -72.5 -234t-212.5 -138q51 -14 98.5 -43t83 -72t56 -99.5t20.5 -123.5q0 -102 -26.5 -190.5t-84 -152t-150.5 -99.5t-224 -36q-66 0 -135.5 13.5t-122.5 42.5l41 96 q53 -27 112.5 -38t112.5 -11q98 0 165 26.5t109 74.5t60 115.5t18 151.5q0 135 -84 210t-239 75h-121l23 105h90q72 0 137 18t115.5 58t80 99.5t29.5 143.5q0 92 -55 158.5t-182 66.5q-143 0 -224.5 -74.5t-115.5 -242.5l-226 -1063h-118z" />
<glyph unicode="&#xe0;" horiz-adv-x="1075" d="M51 252q0 111 45 183.5t126 118.5t191.5 66.5t241.5 26.5l213 8l4 21q4 27 8.5 52.5t4.5 47.5q0 92 -53.5 151.5t-190.5 59.5q-76 0 -129 -9t-90 -29.5t-62.5 -55.5t-46.5 -86l-110 18q49 143 156.5 202.5t291.5 59.5q182 0 268.5 -84.5t86.5 -226.5q0 -29 -4.5 -58.5 t-10.5 -60.5l-139 -657h-119l31 150q-72 -72 -166 -123.5t-233 -51.5q-137 0 -225.5 75t-88.5 202zM178 254q0 -70 45 -121t158 -51q68 0 134.5 15.5t117.5 49.5q41 27 70.5 52.5t51 54.5t37 65.5t25.5 86.5l33 155l-197 -8q-135 -6 -226 -25.5t-146.5 -55.5t-79 -90 t-23.5 -128zM490 1483h151l183 -275h-119z" />
<glyph unicode="&#xe1;" horiz-adv-x="1075" d="M51 252q0 111 45 183.5t126 118.5t191.5 66.5t241.5 26.5l213 8l4 21q4 27 8.5 52.5t4.5 47.5q0 92 -53.5 151.5t-190.5 59.5q-76 0 -129 -9t-90 -29.5t-62.5 -55.5t-46.5 -86l-110 18q49 143 156.5 202.5t291.5 59.5q182 0 268.5 -84.5t86.5 -226.5q0 -29 -4.5 -58.5 t-10.5 -60.5l-139 -657h-119l31 150q-72 -72 -166 -123.5t-233 -51.5q-137 0 -225.5 75t-88.5 202zM178 254q0 -70 45 -121t158 -51q68 0 134.5 15.5t117.5 49.5q41 27 70.5 52.5t51 54.5t37 65.5t25.5 86.5l33 155l-197 -8q-135 -6 -226 -25.5t-146.5 -55.5t-79 -90 t-23.5 -128zM543 1208l272 275h168l-305 -275h-135z" />
<glyph unicode="&#xe2;" horiz-adv-x="1075" d="M51 252q0 111 45 183.5t126 118.5t191.5 66.5t241.5 26.5l213 8l4 21q4 27 8.5 52.5t4.5 47.5q0 92 -53.5 151.5t-190.5 59.5q-76 0 -129 -9t-90 -29.5t-62.5 -55.5t-46.5 -86l-110 18q49 143 156.5 202.5t291.5 59.5q182 0 268.5 -84.5t86.5 -226.5q0 -29 -4.5 -58.5 t-10.5 -60.5l-139 -657h-119l31 150q-72 -72 -166 -123.5t-233 -51.5q-137 0 -225.5 75t-88.5 202zM178 254q0 -70 45 -121t158 -51q68 0 134.5 15.5t117.5 49.5q41 27 70.5 52.5t51 54.5t37 65.5t25.5 86.5l33 155l-197 -8q-135 -6 -226 -25.5t-146.5 -55.5t-79 -90 t-23.5 -128zM372 1208l289 275h117l172 -275h-117l-125 185l-211 -185h-125z" />
<glyph unicode="&#xe3;" horiz-adv-x="1075" d="M51 252q0 111 45 183.5t126 118.5t191.5 66.5t241.5 26.5l213 8l4 21q4 27 8.5 52.5t4.5 47.5q0 92 -53.5 151.5t-190.5 59.5q-76 0 -129 -9t-90 -29.5t-62.5 -55.5t-46.5 -86l-110 18q49 143 156.5 202.5t291.5 59.5q182 0 268.5 -84.5t86.5 -226.5q0 -29 -4.5 -58.5 t-10.5 -60.5l-139 -657h-119l31 150q-72 -72 -166 -123.5t-233 -51.5q-137 0 -225.5 75t-88.5 202zM178 254q0 -70 45 -121t158 -51q68 0 134.5 15.5t117.5 49.5q41 27 70.5 52.5t51 54.5t37 65.5t25.5 86.5l33 155l-197 -8q-135 -6 -226 -25.5t-146.5 -55.5t-79 -90 t-23.5 -128zM340 1241q16 104 63 158.5t144 54.5q49 0 85.5 -18.5t68.5 -40t61.5 -40t62.5 -18.5q53 0 76.5 27t34.5 86h98q-16 -104 -63.5 -158.5t-143.5 -54.5q-49 0 -86 18.5t-68.5 40t-61.5 40t-62 18.5q-53 0 -77 -27t-34 -86h-98z" />
<glyph unicode="&#xe4;" horiz-adv-x="1075" d="M51 252q0 111 45 183.5t126 118.5t191.5 66.5t241.5 26.5l213 8l4 21q4 27 8.5 52.5t4.5 47.5q0 92 -53.5 151.5t-190.5 59.5q-76 0 -129 -9t-90 -29.5t-62.5 -55.5t-46.5 -86l-110 18q49 143 156.5 202.5t291.5 59.5q182 0 268.5 -84.5t86.5 -226.5q0 -29 -4.5 -58.5 t-10.5 -60.5l-139 -657h-119l31 150q-72 -72 -166 -123.5t-233 -51.5q-137 0 -225.5 75t-88.5 202zM178 254q0 -70 45 -121t158 -51q68 0 134.5 15.5t117.5 49.5q41 27 70.5 52.5t51 54.5t37 65.5t25.5 86.5l33 155l-197 -8q-135 -6 -226 -25.5t-146.5 -55.5t-79 -90 t-23.5 -128zM444 1268l37 174h133l-37 -174h-133zM772 1268l37 174h135l-37 -174h-135z" />
<glyph unicode="&#xe5;" horiz-adv-x="1075" d="M51 252q0 111 45 183.5t126 118.5t191.5 66.5t241.5 26.5l213 8l4 21q4 27 8.5 52.5t4.5 47.5q0 92 -53.5 151.5t-190.5 59.5q-76 0 -129 -9t-90 -29.5t-62.5 -55.5t-46.5 -86l-110 18q49 143 156.5 202.5t291.5 59.5q182 0 268.5 -84.5t86.5 -226.5q0 -29 -4.5 -58.5 t-10.5 -60.5l-139 -657h-119l31 150q-72 -72 -166 -123.5t-233 -51.5q-137 0 -225.5 75t-88.5 202zM178 254q0 -70 45 -121t158 -51q68 0 134.5 15.5t117.5 49.5q41 27 70.5 52.5t51 54.5t37 65.5t25.5 86.5l33 155l-197 -8q-135 -6 -226 -25.5t-146.5 -55.5t-79 -90 t-23.5 -128zM491 1399q0 96 57.5 145t135.5 49q37 0 72.5 -12t62 -36.5t43 -61.5t16.5 -84q0 -49 -16.5 -85t-43 -59.5t-62.5 -36t-72 -12.5q-78 0 -135.5 48.5t-57.5 144.5zM581 1399q0 -57 28 -85t75 -28t74.5 27.5t27.5 85.5q0 57 -27.5 84.5t-74.5 27.5t-75 -27.5 t-28 -84.5z" />
<glyph unicode="&#xe6;" horiz-adv-x="1822" d="M51 252q0 111 44 183.5t122 118.5t184.5 66.5t229.5 26.5l221 8l4 21q12 61 8 117.5t-29.5 99.5t-75.5 68.5t-130 25.5q-72 0 -122 -9t-87 -29.5t-61.5 -55.5t-45.5 -86l-110 18q49 143 155.5 202.5t280.5 59.5q123 0 207 -51t112 -149q72 94 171.5 147t246.5 53 q98 0 171 -31.5t121 -86t70.5 -128t22.5 -157.5q0 -31 -2 -75t-8 -79l-6 -32h-809q-2 -20 -2 -39.5v-42.5q0 -72 18.5 -135.5t57.5 -110.5t99 -75.5t146 -28.5q76 0 129.5 16t89 44t58 66.5t39.5 83.5h117q-25 -68 -58 -125t-84 -98t-123.5 -63.5t-175.5 -22.5 q-92 0 -160.5 22.5t-115.5 59.5t-79 84t-50 96q-96 -139 -207 -196.5t-264 -57.5q-72 0 -130.5 19.5t-100.5 55.5t-65.5 87t-23.5 115zM178 254q0 -70 46 -121t163 -51q82 0 142.5 15.5t99.5 43.5q72 51 111.5 108.5t60.5 156.5l33 155l-205 -8q-129 -6 -215 -25.5 t-138.5 -55.5t-75 -90t-22.5 -128zM952 600h688q4 18 5.5 45t1.5 49q0 63 -16.5 117.5t-50.5 94.5t-87 62.5t-127 22.5q-162 0 -268.5 -102.5t-145.5 -288.5z" />
<glyph unicode="&#xe7;" horiz-adv-x="1134" d="M119 408q0 162 47 287.5t127 212.5t185.5 133t221.5 46q100 0 172 -28.5t118 -77.5t69.5 -112.5t30.5 -131.5l-113 -22q-6 49 -20.5 97t-45 86t-82 62.5t-131.5 24.5q-102 0 -185 -42t-142.5 -116.5t-91 -179t-31.5 -227.5q0 -74 16.5 -138.5t53 -111.5t95 -73.5 t142.5 -26.5q78 0 136.5 20.5t100.5 56t69.5 84t45.5 101.5h121q-47 -154 -157.5 -255.5t-301.5 -109.5l-41 -73q88 -14 122 -53.5t34 -80.5q0 -100 -71.5 -138t-180.5 -38q-29 0 -61.5 4t-61.5 11l21 90q29 -6 51 -9.5t51 -3.5q66 0 101.5 16.5t35.5 61.5q0 31 -33.5 50.5 t-115.5 19.5h-25l82 147q-88 10 -155.5 48t-112.5 96.5t-67.5 133.5t-22.5 159z" />
<glyph unicode="&#xe8;" horiz-adv-x="1146" d="M119 418q0 162 45 286.5t123 209.5t181 129t222 44q98 0 173 -31.5t124 -86t73.5 -128t24.5 -157.5q0 -31 -2 -75t-8 -79l-6 -32h-825q-2 -20 -2 -39.5v-42.5q0 -72 19.5 -135.5t59 -110.5t101 -75.5t147.5 -28.5q76 0 130.5 16t92 44t62.5 66.5t41 83.5h117 q-25 -68 -59.5 -125t-88 -98t-127 -63.5t-176.5 -22.5q-111 0 -193.5 37t-138 99.5t-83 143.5t-27.5 171zM260 600h705q4 18 5 45t1 49q0 63 -17.5 117.5t-54.5 94.5t-91 62.5t-128 22.5q-162 0 -271.5 -102.5t-148.5 -288.5zM524 1483h151l183 -275h-119z" />
<glyph unicode="&#xe9;" horiz-adv-x="1146" d="M119 418q0 162 45 286.5t123 209.5t181 129t222 44q98 0 173 -31.5t124 -86t73.5 -128t24.5 -157.5q0 -31 -2 -75t-8 -79l-6 -32h-825q-2 -20 -2 -39.5v-42.5q0 -72 19.5 -135.5t59 -110.5t101 -75.5t147.5 -28.5q76 0 130.5 16t92 44t62.5 66.5t41 83.5h117 q-25 -68 -59.5 -125t-88 -98t-127 -63.5t-176.5 -22.5q-111 0 -193.5 37t-138 99.5t-83 143.5t-27.5 171zM260 600h705q4 18 5 45t1 49q0 63 -17.5 117.5t-54.5 94.5t-91 62.5t-128 22.5q-162 0 -271.5 -102.5t-148.5 -288.5zM578 1208l272 275h168l-305 -275h-135z" />
<glyph unicode="&#xea;" horiz-adv-x="1146" d="M119 418q0 162 45 286.5t123 209.5t181 129t222 44q98 0 173 -31.5t124 -86t73.5 -128t24.5 -157.5q0 -31 -2 -75t-8 -79l-6 -32h-825q-2 -20 -2 -39.5v-42.5q0 -72 19.5 -135.5t59 -110.5t101 -75.5t147.5 -28.5q76 0 130.5 16t92 44t62.5 66.5t41 83.5h117 q-25 -68 -59.5 -125t-88 -98t-127 -63.5t-176.5 -22.5q-111 0 -193.5 37t-138 99.5t-83 143.5t-27.5 171zM260 600h705q4 18 5 45t1 49q0 63 -17.5 117.5t-54.5 94.5t-91 62.5t-128 22.5q-162 0 -271.5 -102.5t-148.5 -288.5zM421 1208l289 275h117l172 -275h-117l-125 185 l-211 -185h-125z" />
<glyph unicode="&#xeb;" horiz-adv-x="1146" d="M119 418q0 162 45 286.5t123 209.5t181 129t222 44q98 0 173 -31.5t124 -86t73.5 -128t24.5 -157.5q0 -31 -2 -75t-8 -79l-6 -32h-825q-2 -20 -2 -39.5v-42.5q0 -72 19.5 -135.5t59 -110.5t101 -75.5t147.5 -28.5q76 0 130.5 16t92 44t62.5 66.5t41 83.5h117 q-25 -68 -59.5 -125t-88 -98t-127 -63.5t-176.5 -22.5q-111 0 -193.5 37t-138 99.5t-83 143.5t-27.5 171zM260 600h705q4 18 5 45t1 49q0 63 -17.5 117.5t-54.5 94.5t-91 62.5t-128 22.5q-162 0 -271.5 -102.5t-148.5 -288.5zM481 1268l37 174h133l-37 -174h-133zM809 1268 l37 174h135l-37 -174h-135z" />
<glyph unicode="&#xec;" horiz-adv-x="417" d="M68 0l223 1055h119l-224 -1055h-118zM98 1483h151l183 -275h-119z" />
<glyph unicode="&#xed;" horiz-adv-x="417" d="M68 0l223 1055h119l-224 -1055h-118zM271 1208l272 275h168l-305 -275h-135z" />
<glyph unicode="&#xee;" horiz-adv-x="417" d="M65 1208l289 275h117l172 -275h-117l-125 185l-211 -185h-125zM68 0l223 1055h119l-224 -1055h-118z" />
<glyph unicode="&#xef;" horiz-adv-x="417" d="M68 0l223 1055h119l-224 -1055h-118zM135 1268l37 174h133l-37 -174h-133zM463 1268l37 174h135l-37 -174h-135z" />
<glyph unicode="&#xf0;" horiz-adv-x="1214" d="M121 385q0 131 45 244.5t122 197.5t181 131.5t223 47.5q102 0 181 -36t135 -98q-14 137 -64.5 233.5t-134.5 158.5l-160 -140l-65 70l139 121q-111 53 -254 67l23 101q96 -10 173.5 -34t143.5 -58l170 147l65 -72l-151 -131q76 -59 125 -136t77.5 -165t41 -186t12.5 -199 q0 -154 -45 -279.5t-125 -214.5t-188.5 -138.5t-235.5 -49.5q-96 0 -176 32t-137.5 88t-89 133t-31.5 165zM248 395q0 -68 20.5 -126t61.5 -103t99 -70.5t136 -25.5q102 0 186.5 41t144.5 111.5t93 167.5t33 208q0 66 -20.5 119t-71.5 100q-94 86 -248 86q-102 0 -182 -43 t-136.5 -114.5t-86 -162.5t-29.5 -188z" />
<glyph unicode="&#xf1;" horiz-adv-x="1142" d="M61 0l224 1055h118l-36 -172q102 111 208.5 157.5t202.5 46.5q147 0 224 -79.5t77 -221.5q0 -53 -12 -110l-143 -676h-119l139 653q6 29 10 57.5t4 57.5q0 96 -44 154.5t-154 58.5q-59 0 -130 -24.5t-136 -75.5q-66 -53 -114 -109.5t-69 -153.5l-131 -618h-119zM436 1241 q16 104 63 158.5t144 54.5q49 0 85.5 -18.5t68.5 -40t61.5 -40t62.5 -18.5q53 0 76.5 27t34.5 86h98q-16 -104 -63.5 -158.5t-143.5 -54.5q-49 0 -86 18.5t-68.5 40t-61.5 40t-62 18.5q-53 0 -77 -27t-34 -86h-98z" />
<glyph unicode="&#xf2;" horiz-adv-x="1214" d="M121 406q0 158 48 283.5t131 214.5t193.5 136t235.5 47q92 0 169 -31.5t132 -89t87 -138t32 -179.5q0 -158 -47 -283.5t-128 -215t-192.5 -136.5t-240.5 -47q-92 0 -169 32t-132.5 89t-87 138t-31.5 180zM248 416q0 -154 76.5 -250t226.5 -96q106 0 193 44t148.5 120.5 t95.5 181t34 223.5q0 154 -77 250t-226 96q-106 0 -193.5 -44t-149 -121t-95 -181t-33.5 -223zM537 1483h151l183 -275h-119z" />
<glyph unicode="&#xf3;" horiz-adv-x="1214" d="M121 406q0 158 48 283.5t131 214.5t193.5 136t235.5 47q92 0 169 -31.5t132 -89t87 -138t32 -179.5q0 -158 -47 -283.5t-128 -215t-192.5 -136.5t-240.5 -47q-92 0 -169 32t-132.5 89t-87 138t-31.5 180zM248 416q0 -154 76.5 -250t226.5 -96q106 0 193 44t148.5 120.5 t95.5 181t34 223.5q0 154 -77 250t-226 96q-106 0 -193.5 -44t-149 -121t-95 -181t-33.5 -223zM631 1208l272 275h168l-305 -275h-135z" />
<glyph unicode="&#xf4;" horiz-adv-x="1214" d="M121 406q0 158 48 283.5t131 214.5t193.5 136t235.5 47q92 0 169 -31.5t132 -89t87 -138t32 -179.5q0 -158 -47 -283.5t-128 -215t-192.5 -136.5t-240.5 -47q-92 0 -169 32t-132.5 89t-87 138t-31.5 180zM248 416q0 -154 76.5 -250t226.5 -96q106 0 193 44t148.5 120.5 t95.5 181t34 223.5q0 154 -77 250t-226 96q-106 0 -193.5 -44t-149 -121t-95 -181t-33.5 -223zM450 1208l289 275h117l172 -275h-117l-125 185l-211 -185h-125z" />
<glyph unicode="&#xf5;" horiz-adv-x="1214" d="M121 406q0 158 48 283.5t131 214.5t193.5 136t235.5 47q92 0 169 -31.5t132 -89t87 -138t32 -179.5q0 -158 -47 -283.5t-128 -215t-192.5 -136.5t-240.5 -47q-92 0 -169 32t-132.5 89t-87 138t-31.5 180zM248 416q0 -154 76.5 -250t226.5 -96q106 0 193 44t148.5 120.5 t95.5 181t34 223.5q0 154 -77 250t-226 96q-106 0 -193.5 -44t-149 -121t-95 -181t-33.5 -223zM422 1241q16 104 63 158.5t144 54.5q49 0 85.5 -18.5t68.5 -40t61.5 -40t62.5 -18.5q53 0 76.5 27t34.5 86h98q-16 -104 -63.5 -158.5t-143.5 -54.5q-49 0 -86 18.5t-68.5 40 t-61.5 40t-62 18.5q-53 0 -77 -27t-34 -86h-98z" />
<glyph unicode="&#xf6;" horiz-adv-x="1214" d="M121 406q0 158 48 283.5t131 214.5t193.5 136t235.5 47q92 0 169 -31.5t132 -89t87 -138t32 -179.5q0 -158 -47 -283.5t-128 -215t-192.5 -136.5t-240.5 -47q-92 0 -169 32t-132.5 89t-87 138t-31.5 180zM248 416q0 -154 76.5 -250t226.5 -96q106 0 193 44t148.5 120.5 t95.5 181t34 223.5q0 154 -77 250t-226 96q-106 0 -193.5 -44t-149 -121t-95 -181t-33.5 -223zM520 1268l37 174h133l-37 -174h-133zM848 1268l37 174h135l-37 -174h-135z" />
<glyph unicode="&#xf7;" d="M219 641l25 113h880l-24 -113h-881zM500 236l37 176h145l-37 -176h-145zM657 981l39 176h146l-39 -176h-146z" />
<glyph unicode="&#xf8;" horiz-adv-x="1214" d="M94 -25l121 140q-45 55 -69.5 128.5t-24.5 162.5q0 158 48 283.5t131 214.5t193.5 136t235.5 47q76 0 140.5 -21.5t117.5 -61.5l117 133l78 -64l-123 -141q43 -55 66.5 -126t23.5 -157q0 -158 -47 -283.5t-128 -215t-192.5 -136.5t-240.5 -47q-74 0 -137.5 20.5 t-114.5 57.5l-117 -133zM248 416q0 -121 47 -209l618 713q-37 31 -86 48t-108 17q-106 0 -193.5 -44t-149 -121t-95 -181t-33.5 -223zM360 129q76 -59 191 -59q106 0 193 44t148.5 120.5t95.5 181t34 223.5q0 113 -45 199z" />
<glyph unicode="&#xf9;" horiz-adv-x="1120" d="M121 264q0 27 3 56.5t9 58.5l143 676h119l-141 -664q-4 -25 -7 -55.5t-3 -59.5q0 -41 8 -76.5t29.5 -64.5t58.5 -45t92 -16q59 0 125 23.5t129 76.5t110.5 109.5t67.5 152.5l131 619h119l-223 -1055h-119l37 172q-98 -111 -198.5 -158t-196.5 -47q-76 0 -131.5 22.5 t-91 62.5t-53 94.5t-17.5 117.5zM469 1483h151l183 -275h-119z" />
<glyph unicode="&#xfa;" horiz-adv-x="1120" d="M121 264q0 27 3 56.5t9 58.5l143 676h119l-141 -664q-4 -25 -7 -55.5t-3 -59.5q0 -41 8 -76.5t29.5 -64.5t58.5 -45t92 -16q59 0 125 23.5t129 76.5t110.5 109.5t67.5 152.5l131 619h119l-223 -1055h-119l37 172q-98 -111 -198.5 -158t-196.5 -47q-76 0 -131.5 22.5 t-91 62.5t-53 94.5t-17.5 117.5zM582 1208l272 275h168l-305 -275h-135z" />
<glyph unicode="&#xfb;" horiz-adv-x="1120" d="M121 264q0 27 3 56.5t9 58.5l143 676h119l-141 -664q-4 -25 -7 -55.5t-3 -59.5q0 -41 8 -76.5t29.5 -64.5t58.5 -45t92 -16q59 0 125 23.5t129 76.5t110.5 109.5t67.5 152.5l131 619h119l-223 -1055h-119l37 172q-98 -111 -198.5 -158t-196.5 -47q-76 0 -131.5 22.5 t-91 62.5t-53 94.5t-17.5 117.5zM409 1208l289 275h117l172 -275h-117l-125 185l-211 -185h-125z" />
<glyph unicode="&#xfc;" horiz-adv-x="1120" d="M121 264q0 27 3 56.5t9 58.5l143 676h119l-141 -664q-4 -25 -7 -55.5t-3 -59.5q0 -41 8 -76.5t29.5 -64.5t58.5 -45t92 -16q59 0 125 23.5t129 76.5t110.5 109.5t67.5 152.5l131 619h119l-223 -1055h-119l37 172q-98 -111 -198.5 -158t-196.5 -47q-76 0 -131.5 22.5 t-91 62.5t-53 94.5t-17.5 117.5zM475 1268l37 174h133l-37 -174h-133zM803 1268l37 174h135l-37 -174h-135z" />
<glyph unicode="&#xfd;" horiz-adv-x="1019" d="M-49 -367l39 97q18 -8 42.5 -15.5t55.5 -7.5q37 0 61.5 9.5t47 30t45 55t55.5 87.5l76 125l-232 1041h129l193 -905l532 905h142l-734 -1194q-39 -59 -70.5 -107.5t-65.5 -82t-72.5 -51t-92.5 -17.5q-47 0 -84.5 8t-66.5 22zM502 1208l272 275h168l-305 -275h-135z" />
<glyph unicode="&#xfe;" horiz-adv-x="1193" d="M-25 -397l396 1859h118l-118 -565q82 92 176 141t211 49q104 0 176 -37.5t116 -100t63.5 -142.5t19.5 -162q0 -121 -37 -241.5t-110 -217t-180.5 -158t-246.5 -61.5q-106 0 -198.5 48t-147.5 147l-119 -559h-119zM260 346q0 -70 22.5 -117t67.5 -88q41 -35 93 -53 t122 -18q98 0 179 46t139.5 124.5t90.5 181t32 217.5q0 174 -69 260t-194 86q-66 0 -117 -16.5t-108 -55.5q-80 -53 -137 -134t-84 -206l-18 -88q-18 -80 -19 -139z" />
<glyph unicode="&#xff;" horiz-adv-x="1019" d="M-49 -367l39 97q18 -8 42.5 -15.5t55.5 -7.5q37 0 61.5 9.5t47 30t45 55t55.5 87.5l76 125l-232 1041h129l193 -905l532 905h142l-734 -1194q-39 -59 -70.5 -107.5t-65.5 -82t-72.5 -51t-92.5 -17.5q-47 0 -84.5 8t-66.5 22zM412 1268l37 174h133l-37 -174h-133z M740 1268l37 174h135l-37 -174h-135z" />
<glyph unicode="&#x152;" horiz-adv-x="2217" d="M164 565q0 168 52 336t150.5 300t240 215t317.5 83q186 0 308 -95t169 -261l65 319h863l-23 -112h-741l-115 -537h700l-24 -117h-701l-125 -581h785l-49 -115h-879l45 211q-84 -106 -203.5 -177t-289.5 -71q-113 0 -212.5 41t-173 118t-116.5 188.5t-43 254.5zM297 571 q0 -109 26.5 -200.5t80 -157.5t130.5 -102.5t179 -36.5q164 0 279.5 76.5t189 196.5t107.5 264.5t34 279.5q0 109 -22.5 200t-70.5 157.5t-125 103.5t-185 37q-147 0 -263 -72t-196 -186.5t-122 -262t-42 -297.5z" />
<glyph unicode="&#x153;" horiz-adv-x="1992" d="M121 406q0 158 47 283.5t129 214.5t191.5 136t234.5 47q141 0 233.5 -69.5t133.5 -194.5q72 123 183 193.5t269 70.5q98 0 172 -31.5t122 -86t71.5 -128t23.5 -157.5q0 -31 -2 -75t-8 -79l-6 -32h-805q-2 -20 -2 -40v-42q0 -72 17.5 -135.5t56.5 -110.5t97 -75.5 t142 -28.5q76 0 129.5 16t90 44t60 66.5t40.5 83.5h117q-25 -68 -59 -125t-86 -98t-124.5 -63.5t-175.5 -22.5q-88 0 -153.5 23.5t-113.5 62.5t-81 89.5t-55 105.5q-41 -61 -87 -113.5t-103.5 -89.5t-128 -57.5t-156.5 -20.5q-92 0 -168 32t-130.5 89t-85 138t-30.5 180z M248 416q0 -154 73.5 -250t223.5 -96q106 0 191 44t143.5 120.5t89 181t30.5 223.5q0 154 -68.5 250t-217.5 96q-106 0 -192.5 -44t-147 -121t-93 -181t-32.5 -223zM1126 600h684q4 18 5.5 45t1.5 49q0 63 -16.5 117.5t-52.5 94.5t-89 62.5t-127 22.5q-162 0 -264.5 -102.5 t-141.5 -288.5z" />
<glyph unicode="&#x178;" horiz-adv-x="1204" d="M258 1462h135l279 -723l585 723h144l-682 -829l-133 -633h-125l133 633zM600 1628l39 178h137l-39 -178h-137zM936 1628l39 178h139l-39 -178h-139z" />
<glyph unicode="&#x2c6;" horiz-adv-x="776" d="M231 1208l289 275h117l172 -275h-117l-125 185l-211 -185h-125z" />
<glyph unicode="&#x2dc;" horiz-adv-x="776" d="M203 1241q16 104 63 158.5t144 54.5q49 0 85.5 -18.5t68.5 -40t61.5 -40t62.5 -18.5q53 0 76.5 27t34.5 86h98q-16 -104 -63.5 -158.5t-143.5 -54.5q-49 0 -86 18.5t-68.5 40t-61.5 40t-62 18.5q-53 0 -77 -27t-34 -86h-98z" />
<glyph unicode="&#x2000;" horiz-adv-x="924" />
<glyph unicode="&#x2001;" horiz-adv-x="1849" />
<glyph unicode="&#x2002;" horiz-adv-x="924" />
<glyph unicode="&#x2003;" horiz-adv-x="1849" />
<glyph unicode="&#x2004;" horiz-adv-x="616" />
<glyph unicode="&#x2005;" horiz-adv-x="462" />
<glyph unicode="&#x2006;" horiz-adv-x="308" />
<glyph unicode="&#x2007;" horiz-adv-x="308" />
<glyph unicode="&#x2008;" horiz-adv-x="231" />
<glyph unicode="&#x2009;" horiz-adv-x="369" />
<glyph unicode="&#x200a;" horiz-adv-x="102" />
<glyph unicode="&#x2010;" horiz-adv-x="800" d="M133 530l25 123h596l-25 -123h-596z" />
<glyph unicode="&#x2011;" horiz-adv-x="800" d="M133 530l25 123h596l-25 -123h-596z" />
<glyph unicode="&#x2012;" horiz-adv-x="800" d="M133 530l25 123h596l-25 -123h-596z" />
<glyph unicode="&#x2013;" horiz-adv-x="1024" d="M31 530l24 123h1024l-24 -123h-1024z" />
<glyph unicode="&#x2014;" horiz-adv-x="2048" d="M31 530l24 123h2048l-24 -123h-2048z" />
<glyph unicode="&#x2018;" horiz-adv-x="387" d="M242 1065l184 397h100l-137 -397h-147z" />
<glyph unicode="&#x2019;" horiz-adv-x="387" d="M231 1065l138 397h147l-184 -397h-101z" />
<glyph unicode="&#x201a;" horiz-adv-x="387" d="M-47 -201l141 398h144l-181 -398h-104z" />
<glyph unicode="&#x201c;" horiz-adv-x="667" d="M242 1065l184 397h100l-137 -397h-147zM523 1065l184 397h100l-137 -397h-147z" />
<glyph unicode="&#x201d;" horiz-adv-x="667" d="M231 1065l138 397h147l-184 -397h-101zM512 1065l138 397h147l-184 -397h-101z" />
<glyph unicode="&#x201e;" horiz-adv-x="663" d="M-47 -201l141 398h144l-181 -398h-104zM229 -201l141 398h144l-181 -398h-104z" />
<glyph unicode="&#x2022;" horiz-adv-x="696" d="M143 748q0 57 20.5 106t56.5 84t85 54.5t107 19.5q55 0 104 -19.5t84 -54.5t55.5 -84t20.5 -106q0 -59 -20.5 -109.5t-55.5 -85.5t-84 -54.5t-104 -19.5q-57 0 -106.5 19.5t-85.5 54.5t-56.5 85t-20.5 110z" />
<glyph unicode="&#x2026;" horiz-adv-x="1624" d="M45 0l39 190h154l-39 -190h-154zM653 0l39 190h154l-39 -190h-154zM1262 0l39 190h154l-39 -190h-154z" />
<glyph unicode="&#x202f;" horiz-adv-x="369" />
<glyph unicode="&#x2039;" horiz-adv-x="573" d="M131 526l381 453h121l-371 -459l168 -450h-113z" />
<glyph unicode="&#x203a;" horiz-adv-x="573" d="M-4 70l371 458l-168 451h110l189 -457l-379 -452h-123z" />
<glyph unicode="&#x205f;" horiz-adv-x="462" />
<glyph unicode="&#x20ac;" d="M76 489l39 105h116q4 57 11.5 113.5t21.5 115.5h-137l37 101h129q35 106 89 202.5t128 169t166 115.5t205 43q102 0 174.5 -25.5t122 -72.5t78 -117t40.5 -158l-114 -22q-12 80 -35 135t-58.5 90t-89 50.5t-127.5 15.5q-86 0 -156.5 -35t-125.5 -93.5t-96 -136 t-70 -161.5h543l-37 -101h-537q-14 -59 -21 -117.5t-12 -111.5h498l-39 -105h-461q18 -422 353 -421q90 0 149.5 23.5t99 66.5t64.5 103.5t43 131.5h117q-23 -98 -60 -178t-94 -135t-139 -86t-195 -31t-197.5 39t-143 108.5t-90.5 166t-36 212.5h-153z" />
<glyph unicode="&#x2122;" horiz-adv-x="1839" d="M238 1368l20 94h670l-21 -94h-280l-154 -725h-106l153 725h-282zM883 643l174 819h131l143 -694l441 694h137l-174 -819h-95l144 672l-434 -672h-86l-144 670l-143 -670h-94z" />
<glyph unicode="&#xe000;" horiz-adv-x="1054" d="M0 0v1055h1055v-1055h-1055z" />
</font>
</defs>
</svg>
