<?xml version="1.0" standalone="no"?>
<!DOCTYPE svg PUBLIC "-//W3C//DTD SVG 1.1//EN" "http://www.w3.org/Graphics/SVG/1.1/DTD/svg11.dtd" >
<svg xmlns="http://www.w3.org/2000/svg">
<metadata></metadata>
<defs>
<font id="aktiv_groteskhairline" horiz-adv-x="1212" >
<font-face units-per-em="2048" ascent="1651" descent="-397" />
<missing-glyph horiz-adv-x="460" />
<glyph unicode="&#xfb01;" horiz-adv-x="987" d="M45 1006v41h162v131q0 76 21.5 132t60.5 94t91 56.5t114 18.5q31 0 67.5 -6.5t67.5 -16.5l-11 -39q-33 10 -60.5 15.5t-63.5 5.5q-113 0 -178.5 -64.5t-65.5 -193.5v-133h325v-41h-325v-1006h-43v1006h-162zM793 0v1047h43v-1047h-43zM793 1274v188h43v-188h-43z" />
<glyph unicode="&#xfb02;" horiz-adv-x="995" d="M45 1006v41h162v131q0 76 21.5 132t60.5 94t91 56.5t114 18.5q31 0 67.5 -6.5t67.5 -16.5l-11 -39q-33 10 -60.5 15.5t-63.5 5.5q-113 0 -178.5 -64.5t-65.5 -193.5v-133h325v-41h-325v-1006h-43v1006h-162zM801 0v1462h43v-1462h-43z" />
<glyph unicode="&#xfb03;" horiz-adv-x="1607" d="M47 1006v41h162v131q0 76 21.5 132t60.5 94t91 56.5t114 18.5q31 0 67.5 -6.5t67.5 -16.5l-11 -39q-33 10 -60.5 15.5t-63.5 5.5q-113 0 -178.5 -64.5t-65.5 -193.5v-133h325v-41h-325v-1006h-43v1006h-162zM666 1006v41h162v131q0 76 21.5 132t60.5 94t91 56.5t114 18.5 q31 0 67.5 -6.5t67.5 -16.5l-11 -39q-33 10 -60.5 15.5t-63.5 5.5q-113 0 -178.5 -64.5t-65.5 -193.5v-133h325v-41h-325v-1006h-43v1006h-162zM1414 0v1047h43v-1047h-43zM1414 1274v188h43v-188h-43z" />
<glyph unicode="&#xfb04;" horiz-adv-x="1615" d="M47 1006v41h162v131q0 76 21.5 132t60.5 94t91 56.5t114 18.5q31 0 67.5 -6.5t67.5 -16.5l-11 -39q-33 10 -60.5 15.5t-63.5 5.5q-113 0 -178.5 -64.5t-65.5 -193.5v-133h325v-41h-325v-1006h-43v1006h-162zM666 1006v41h162v131q0 76 21.5 132t60.5 94t91 56.5t114 18.5 q31 0 67.5 -6.5t67.5 -16.5l-11 -39q-33 10 -60.5 15.5t-63.5 5.5q-113 0 -178.5 -64.5t-65.5 -193.5v-133h325v-41h-325v-1006h-43v1006h-162zM1422 0v1462h43v-1462h-43z" />
<glyph unicode="&#xd;" horiz-adv-x="460" />
<glyph horiz-adv-x="0" />
<glyph horiz-adv-x="0" />
<glyph unicode=" "  horiz-adv-x="460" />
<glyph unicode="&#x09;" horiz-adv-x="460" />
<glyph unicode="&#xa0;" horiz-adv-x="460" />
<glyph unicode="!" horiz-adv-x="393" d="M174 0v188h45v-188h-45zM174 1462h45l-2 -1097h-41z" />
<glyph unicode="&#x22;" horiz-adv-x="507" d="M92 1454h47l-4 -467h-39zM368 1454h47l-4 -467h-39z" />
<glyph unicode="#" d="M27 397v41h264l86 518h-252v41h258l66 392h43l-66 -392h463l65 392h43l-65 -392h256v-41h-262l-86 -518h250v-41h-256l-66 -397h-45l65 397h-460l-66 -397h-45l66 397h-256zM334 438h463l86 518h-463z" />
<glyph unicode="$" d="M117 340h41q29 -162 139.5 -244t286.5 -90v707l-70 12q-76 12 -141.5 35.5t-114.5 64.5t-76.5 103.5t-27.5 152.5q0 96 32.5 167t90 116t136.5 67.5t171 22.5v150h41v-150q115 -6 189.5 -40t119.5 -83t70.5 -108.5t39.5 -114.5l-40 -10q-18 68 -46 123t-72 96 t-107.5 64.5t-153.5 27.5v-661l63 -11q76 -12 143.5 -35.5t120 -66.5t82 -110.5t29.5 -168.5q0 -84 -23.5 -155.5t-76 -123.5t-136.5 -83t-202 -31v-178h-41v180q-88 2 -168 25.5t-142.5 67.5t-103.5 116t-53 166zM199 1081q0 -84 25.5 -139t69.5 -91t103.5 -55.5 t128.5 -31.5l58 -10v657q-86 0 -157 -19.5t-122 -59.5t-78.5 -102.5t-27.5 -148.5zM625 6q109 0 183.5 26.5t120.5 74t66.5 111t20.5 138.5q0 94 -27.5 154.5t-75 98.5t-111 57.5t-134.5 31.5l-43 7v-699z" />
<glyph unicode="%" horiz-adv-x="1751" d="M94 1012q0 115 24.5 196.5t68.5 135t103.5 79t131.5 25.5q70 0 130 -25.5t104 -79t69 -135.5t25 -196q0 -115 -25 -197t-69 -135t-104 -79t-130 -26q-72 0 -131.5 26t-103.5 79t-68.5 135t-24.5 197zM139 1012q0 -209 80 -302.5t203 -93.5q61 0 112.5 23t89.5 70 t59.5 122.5t21.5 180.5q0 104 -21.5 179t-59.5 123t-89.5 70.5t-112.5 22.5t-113.5 -22.5t-89.5 -69.5t-58.5 -123t-21.5 -180zM489 0l727 1415h47l-727 -1415h-47zM1003 391q0 115 24.5 196.5t68.5 135t103.5 79t131.5 25.5q70 0 130 -25.5t104 -79t69 -135.5t25 -196 q0 -115 -25 -197t-69 -135t-104 -79t-130 -26q-72 0 -131.5 26t-103.5 79t-68.5 135t-24.5 197zM1048 391q0 -209 80 -302.5t203 -93.5q61 0 112.5 23t89.5 70t59.5 122.5t21.5 180.5q0 104 -21.5 179t-59.5 123t-89.5 70.5t-112.5 22.5t-113.5 -22.5t-89.5 -69.5 t-58.5 -123t-21.5 -180z" />
<glyph unicode="&#x26;" horiz-adv-x="1241" d="M92 367q0 98 32 169.5t83 126t114.5 95.5t129.5 76q-29 33 -60 72.5t-57.5 83.5t-43 95.5t-16.5 102.5q0 55 19.5 104t57.5 87t92.5 59.5t123.5 21.5q131 0 203 -72.5t72 -191.5q0 -76 -29 -131t-75 -98t-104.5 -77t-119.5 -67l494 -575q39 84 54 188.5t15 225.5h43 q0 -127 -18.5 -241t-65.5 -206l185 -215h-56l-151 176q-61 -98 -172 -153.5t-277 -55.5q-125 0 -214 31t-146.5 84t-85 126t-27.5 159zM137 371q0 -170 107.5 -265.5t324.5 -95.5q156 0 258.5 52.5t157.5 146.5l-508 594q-68 -37 -129 -77t-108 -89t-75 -113.5t-28 -152.5z M319 1186q0 -84 46.5 -165t121.5 -167q63 33 121 65.5t99 70.5t65.5 88t24.5 118q0 106 -63.5 163.5t-168.5 57.5q-113 0 -179.5 -62.5t-66.5 -168.5z" />
<glyph unicode="'" horiz-adv-x="231" d="M92 1454h47l-4 -467h-39z" />
<glyph unicode="(" horiz-adv-x="442" d="M133 625q0 242 53.5 461t171.5 417h43q-117 -211 -170 -427t-53 -451q0 -236 53.5 -452t169.5 -427h-43q-119 199 -172 418t-53 461z" />
<glyph unicode=")" horiz-adv-x="442" d="M41 -254q117 211 170 427t53 452t-53 451.5t-170 426.5h43q119 -199 172 -417.5t53 -460.5t-53 -461t-172 -418h-43z" />
<glyph unicode="*" horiz-adv-x="690" d="M72 1241l14 37l242 -98l-2 282h41l-5 -282l242 98l14 -37l-247 -94l172 -229l-33 -27l-166 235l-164 -235l-33 27l170 229z" />
<glyph unicode="+" d="M150 676v41h436v463h43v-463h434v-41h-434v-465h-43v465h-436z" />
<glyph unicode="," horiz-adv-x="331" d="M104 -176l70 375h47l-78 -375h-39z" />
<glyph unicode="-" horiz-adv-x="792" d="M102 569v41h588v-41h-588z" />
<glyph unicode="." horiz-adv-x="331" d="M143 0v199h43v-199h-43z" />
<glyph unicode="/" horiz-adv-x="563" d="M31 0l458 1503h43l-458 -1503h-43z" />
<glyph unicode="0" d="M111 709q0 190 34.5 330.5t99 232.5t157 137t204.5 45q113 0 205 -45t156.5 -136t99.5 -231.5t35 -330.5q0 -193 -35 -333t-99.5 -232.5t-156.5 -137.5t-205 -45t-205 45t-156.5 136.5t-99 231.5t-34.5 333zM158 709q0 -348 114.5 -525.5t333.5 -177.5t334 177t115 526 q0 350 -116 526t-333 176t-332.5 -177t-115.5 -525z" />
<glyph unicode="1" d="M254 1184l405 231h46v-1415h-46v1368l-385 -221z" />
<glyph unicode="2" d="M176 0v43l313 289q137 127 231.5 224t154 180t85 159t25.5 156q0 76 -21.5 141t-66.5 114.5t-113.5 77t-160.5 27.5q-96 0 -165 -28.5t-116 -77t-75.5 -105.5t-43.5 -119l-41 11q14 61 44 123.5t82 118t132 88t183 32.5q102 0 179 -30.5t128 -85t76.5 -128t25.5 -157.5 q0 -92 -31.5 -176t-95 -171.5t-159 -184.5t-224.5 -216l-282 -262h802l-14 -43h-852z" />
<glyph unicode="3" d="M156 358h41q4 -53 25.5 -114.5t68.5 -114.5t130 -88t200 -35q197 0 294 96.5t97 268.5q0 94 -27 160.5t-75 108.5t-111.5 61.5t-134.5 19.5h-191v43h191q145 0 231 88t86 240t-91 235.5t-267 83.5q-100 0 -171 -26.5t-118 -68.5t-77 -100.5t-44 -119.5l-41 10 q10 51 37 111.5t79 114.5t136 88t201 34q104 0 181 -27.5t126 -77t72.5 -116t23.5 -141.5q0 -133 -63.5 -222.5t-176.5 -126.5q127 -29 199 -123t72 -249q0 -88 -25.5 -163t-80 -130t-137.5 -85t-195 -30q-125 0 -215.5 38t-144.5 96.5t-78.5 126t-26.5 134.5z" />
<glyph unicode="4" d="M113 401v43l718 971h52v-971h213l-15 -43h-198v-401h-45v401h-725zM162 444h676v912z" />
<glyph unicode="5" d="M174 334h41q20 -158 119.5 -243t279.5 -85q199 0 293 105.5t94 314.5q0 88 -18 164t-61 133t-116 90t-181 33q-111 0 -205 -37t-170 -119h-45l55 725h711v-43h-672l-49 -629q59 61 157.5 103.5t223.5 42.5q113 0 192.5 -35t128.5 -96.5t73 -146.5t24 -185 q0 -225 -109 -344t-324 -119q-195 0 -309 95.5t-133 275.5z" />
<glyph unicode="6" d="M156 668q0 231 42 383.5t111.5 241.5t158.5 125t185 36q88 0 152.5 -24.5t108.5 -66.5t71 -96.5t41 -113.5l-41 -10q-41 143 -119 205.5t-213 62.5q-90 0 -172 -34t-144.5 -117.5t-100 -227t-37.5 -364.5v-101q14 74 53 133.5t96.5 102.5t130 65.5t154.5 22.5 q129 0 215 -42t136 -107.5t70.5 -146.5t20.5 -157q0 -109 -31.5 -196.5t-90 -149t-142.5 -95.5t-186 -34q-125 0 -214 48t-145.5 139.5t-83 221.5t-26.5 296zM223 463q0 -74 19.5 -155t66.5 -148.5t124 -110.5t192 -43q86 0 159.5 26.5t128 81t85 136.5t30.5 192 q0 74 -18.5 145.5t-64.5 130t-121.5 94.5t-192.5 36q-74 0 -147.5 -23.5t-131 -70.5t-93.5 -120t-36 -171z" />
<glyph unicode="7" d="M94 1372v43h920v-43q-180 -328 -319.5 -674t-237.5 -698h-45q49 170 104 337t123 336t148.5 342t181.5 357h-875z" />
<glyph unicode="8" d="M106 354q0 94 36 161t88.5 109t114 65.5t110.5 29.5q-129 29 -214 123t-85 229q0 78 27.5 147.5t84 123t141.5 83t199 29.5q115 0 200 -30.5t140.5 -84t82 -122t26.5 -144.5q0 -72 -23.5 -130t-64.5 -103t-94.5 -75t-114.5 -44q49 -8 109.5 -30.5t112.5 -65.5t88 -109.5 t36 -161.5q0 -86 -32 -158.5t-95.5 -124t-156.5 -80t-216 -28.5q-125 0 -218 28.5t-155.5 81t-94.5 124t-32 157.5zM154 354q0 -76 27.5 -140t85 -110.5t141 -72t198.5 -25.5q113 0 198 25.5t142.5 73t85 111t27.5 138.5q0 74 -27.5 136.5t-84 109.5t-141.5 72.5t-200 25.5 t-199.5 -25.5t-141 -72.5t-84 -109.5t-27.5 -136.5zM203 1075q0 -66 23.5 -127t72.5 -107t126 -74t181 -28t181 28t126.5 74t73 107.5t23.5 126.5q0 66 -23.5 126.5t-73 107.5t-126 74.5t-181.5 27.5q-104 0 -181 -27.5t-126 -73.5t-72.5 -107.5t-23.5 -127.5z" />
<glyph unicode="9" d="M137 979q0 109 32 197t90 149t142 95t187 34q125 0 214 -48t145.5 -139t83 -221.5t26.5 -295.5q0 -229 -34 -380t-96.5 -241t-147.5 -128t-193 -38q-176 0 -281.5 86t-122.5 236h43q12 -74 44 -127.5t79 -87t106.5 -49t125.5 -15.5q102 0 181 34t135 118t87 227t31 365 v100q-14 -74 -53 -133.5t-97.5 -102.5t-131.5 -65.5t-154 -22.5q-125 0 -213.5 42t-137.5 107.5t-69.5 145.5t-20.5 158zM184 975q0 -74 18.5 -145.5t63.5 -130t124 -94.5t192 -36q74 0 147.5 23.5t131 71t93 120t35.5 170.5q0 74 -19.5 155t-67.5 149.5t-127.5 110.5 t-188.5 42q-86 0 -159 -27.5t-127 -81t-85 -135.5t-31 -192z" />
<glyph unicode=":" horiz-adv-x="331" d="M143 0v199h43v-199h-43zM143 858v199h43v-199h-43z" />
<glyph unicode=";" horiz-adv-x="331" d="M73 -176l70 375h47l-78 -375h-39zM143 858v199h43v-199h-43z" />
<glyph unicode="&#x3c;" d="M158 676v35l895 465v-46l-838 -436l838 -434v-47z" />
<glyph unicode="=" d="M170 444v41h872v-41h-872zM170 907v41h872v-41h-872z" />
<glyph unicode="&#x3e;" d="M160 213v45l835 436l-835 434v48l895 -463v-35z" />
<glyph unicode="?" horiz-adv-x="1001" d="M72 1130q12 59 36.5 122t71.5 116t123 86t180 33q102 0 178 -31t126.5 -83t75 -121.5t24.5 -145.5q0 -111 -48 -200t-120 -152q-47 -45 -85 -84t-65.5 -82t-43 -93.5t-15.5 -113.5v-16h-45v10q0 70 15.5 123t43 99t68.5 89t92 94q63 59 110.5 139t47.5 187 q0 70 -21.5 132t-66.5 107.5t-112 72t-159 26.5q-96 0 -161.5 -29t-107.5 -75t-65.5 -103t-35.5 -115zM465 0v188h45v-188h-45z" />
<glyph unicode="@" horiz-adv-x="1845" d="M102 360q0 211 61.5 392.5t175.5 315.5t274.5 210t359.5 76q145 0 285.5 -44t251 -137.5t177 -239t66.5 -347.5q0 -121 -25.5 -228.5t-74.5 -188.5t-123 -129t-168 -48q-90 0 -140.5 46t-50.5 122q0 18 3 39q-61 -117 -147.5 -168t-197.5 -51q-158 0 -246.5 97t-88.5 277 q0 109 32.5 209.5t93 179t143.5 124.5t185 46q119 0 200 -64.5t105 -178.5l39 219h43l-121 -682q-2 -10 -3 -19.5t-1 -19.5q0 -59 39 -97t115 -38q80 0 144.5 43t108.5 116.5t67.5 174t23.5 217.5q0 199 -64.5 338t-169 226t-236.5 126t-267 39q-190 0 -343 -73t-259.5 -202 t-164 -303t-57.5 -377q0 -201 60.5 -343t165 -232t247 -131t306.5 -41q119 0 207 20.5t154.5 55t114.5 81t87 97.5h45q-100 -156 -248.5 -225.5t-359.5 -69.5q-176 0 -326.5 46t-261.5 143.5t-173.5 246t-62.5 354.5zM539 354q0 -92 22.5 -156.5t60 -103.5t91 -57.5 t114.5 -18.5q145 0 247 98.5t136 305.5l15 88q6 33 6 70q0 57 -18.5 110t-53.5 94t-88 65.5t-121 24.5q-86 0 -160.5 -39.5t-130 -108.5t-88 -165t-32.5 -207z" />
<glyph unicode="A" horiz-adv-x="1304" d="M51 0l576 1462h51l575 -1462h-51l-188 483h-725l-189 -483h-49zM305 526h692l-346 889z" />
<glyph unicode="B" horiz-adv-x="1251" d="M176 0v1462h512q193 0 303.5 -90t110.5 -264q0 -141 -74 -228t-201 -110q152 -20 237 -118.5t85 -262.5q0 -188 -120 -288.5t-333 -100.5h-520zM221 43h471q201 0 305.5 85t104.5 265q0 172 -103.5 262t-283.5 90h-494v-702zM221 788h494q74 0 136 19.5t108.5 59.5 t72 99.5t25.5 139.5q0 162 -96.5 237.5t-274.5 75.5h-465v-631z" />
<glyph unicode="C" horiz-adv-x="1402" d="M123 725q0 199 48 345.5t131 241.5t195.5 141t241.5 46q119 0 209 -36t154.5 -99.5t106.5 -148.5t63 -183l-41 -10q-23 94 -59.5 173t-96 137.5t-141.5 91t-193 32.5q-127 0 -231 -45t-180 -136t-118 -227.5t-42 -318.5t43 -317.5t119 -225.5t181 -135t232 -45 q121 0 209 38t149.5 103.5t96.5 148.5t49 173h41q-14 -109 -55 -202t-109.5 -161.5t-165 -107.5t-219.5 -39q-133 0 -245.5 48t-195.5 143.5t-130 240t-47 334.5z" />
<glyph unicode="D" horiz-adv-x="1406" d="M176 0v1462h469q143 0 261 -44t203 -135t130 -228t45 -324q0 -186 -46 -323.5t-133 -228.5t-212 -135t-283 -44h-434zM221 43h391q307 0 466 173t159 511q0 340 -153.5 516t-438.5 176h-424v-1376z" />
<glyph unicode="E" horiz-adv-x="1173" d="M176 0v1462h891v-43h-846v-643h805v-43h-805v-690h862l-14 -43h-893z" />
<glyph unicode="F" horiz-adv-x="1103" d="M176 0v1462h838v-43h-795v-659h750v-43h-750v-717h-43z" />
<glyph unicode="G" horiz-adv-x="1406" d="M123 723q0 199 47 344t131 241.5t198.5 143.5t248.5 47q203 0 327.5 -103.5t165.5 -285.5l-41 -10q-20 80 -57 146.5t-92.5 112.5t-131 71.5t-174.5 25.5q-127 0 -232 -44t-182 -134t-119 -228.5t-42 -324.5q0 -182 43 -317.5t122 -224.5t190.5 -133t250.5 -44 q129 0 247 39t204 117v475h-445v43h490v-533q-100 -96 -230.5 -140t-265.5 -44q-145 0 -266 46t-207 140.5t-133 236.5t-47 337z" />
<glyph unicode="H" horiz-adv-x="1378" d="M176 0v1462h45v-682h936v682h45v-1462h-45v737h-936v-737h-45z" />
<glyph unicode="I" horiz-adv-x="397" d="M176 0v1462h45v-1462h-45z" />
<glyph unicode="J" horiz-adv-x="1155" d="M61 403h41q33 -207 144.5 -302t292.5 -95q201 0 302 113.5t101 347.5v995h45v-999q0 -129 -31.5 -223.5t-90 -155.5t-141.5 -91t-185 -30q-86 0 -166 22.5t-144.5 74t-108.5 137.5t-59 206z" />
<glyph unicode="K" horiz-adv-x="1275" d="M176 0v1462h43v-872l893 872h57l-551 -538l607 -924h-51l-586 895l-369 -360v-535h-43z" />
<glyph unicode="L" horiz-adv-x="1120" d="M176 0v1462h45v-1419h838l-15 -43h-868z" />
<glyph unicode="M" horiz-adv-x="1662" d="M176 0v1462h55l600 -1405l603 1405h53v-1462h-43v1386l-592 -1386h-41l-592 1386v-1386h-43z" />
<glyph unicode="N" horiz-adv-x="1380" d="M176 0v1462h51l932 -1401v1401h45v-1462h-55l-928 1397v-1397h-45z" />
<glyph unicode="O" horiz-adv-x="1507" d="M123 729q0 166 40 306.5t118.5 243.5t196.5 161.5t276 58.5t275.5 -59.5t196.5 -161.5t118.5 -243.5t39.5 -303.5q0 -166 -39.5 -307t-118.5 -244.5t-198 -162t-274 -58.5q-158 0 -277 59.5t-196.5 163t-117.5 243.5t-40 304zM170 729q0 -158 37 -291t108.5 -229 t182 -151.5t256.5 -55.5q145 0 255.5 55.5t182.5 151.5t108.5 229t36.5 291q0 156 -36.5 290t-109.5 230.5t-182.5 151.5t-254.5 55t-255 -54t-182.5 -151.5t-109.5 -231.5t-37 -290z" />
<glyph unicode="P" horiz-adv-x="1224" d="M176 0v1462h502q225 0 340 -105.5t115 -312.5q0 -111 -33 -190.5t-93.5 -130.5t-145.5 -75.5t-191 -24.5h-449v-623h-45zM221 666h451q205 0 309 92t104 286q0 193 -102 284t-313 91h-449v-753z" />
<glyph unicode="Q" horiz-adv-x="1507" d="M123 729q0 166 40 306.5t118.5 243.5t196.5 161.5t276 58.5t275.5 -59.5t196.5 -161.5t118.5 -243.5t39.5 -303.5q0 -166 -39.5 -307t-119.5 -246q-27 -37 -62 -67l183 -226l-33 -26l-183 223q-47 -37 -102 -66q-119 -57 -274 -57q-158 0 -277 59.5t-196.5 163 t-117.5 243.5t-40 304zM170 729q0 -158 37 -291t108.5 -229t182 -151.5t256.5 -55.5q145 0 256 55q51 25 94 60l-219 272l33 27l217 -271q31 29 57 64q72 96 108.5 229t36.5 291q0 156 -36.5 290t-109.5 230.5t-182.5 151.5t-254.5 55t-255 -54t-182.5 -151.5t-109.5 -231.5 t-37 -290z" />
<glyph unicode="R" horiz-adv-x="1255" d="M176 0v1462h498q444 0 444 -391q0 -156 -71.5 -249t-204.5 -128l321 -694h-49l-315 686q-31 -6 -65 -8t-68 -2h-445v-676h-45zM221 719h447q207 0 305 86t98 266t-98.5 264t-306.5 84h-445v-700z" />
<glyph unicode="S" horiz-adv-x="1236" d="M100 340h41q31 -166 161 -250t335 -84q123 0 206 27.5t133 77t72.5 115t22.5 141.5q0 98 -29.5 160.5t-81 100.5t-120 58.5t-146.5 32.5l-166 26q-80 12 -150.5 36t-123.5 66t-85 107.5t-32 163.5q0 96 35 168t97.5 119t150.5 70.5t192 23.5q129 0 219.5 -32.5t142.5 -83 t81.5 -112t44.5 -118.5l-41 -10q-18 70 -51 128t-83.5 99t-128 63.5t-184.5 22.5q-96 0 -175 -18.5t-136 -59.5t-88 -104.5t-31 -153.5t28 -148.5t77 -95t115.5 -57t144.5 -33.5l164 -24q78 -12 151.5 -34.5t130 -67t91 -116t34.5 -177.5q0 -86 -25.5 -160t-83 -128 t-149.5 -85t-223 -31q-98 0 -188.5 20.5t-163 64.5t-121.5 117t-64 175z" />
<glyph unicode="T" horiz-adv-x="1167" d="M41 1419v43h1085v-43h-520v-1419h-45v1419h-520z" />
<glyph unicode="U" horiz-adv-x="1351" d="M166 567v895h45v-901q0 -555 465 -555t465 555v901h45v-895q0 -305 -130 -454.5t-380 -149.5q-254 0 -382 149.5t-128 454.5z" />
<glyph unicode="V" horiz-adv-x="1255" d="M51 1462h49l529 -1413l528 1413h47l-549 -1462h-55z" />
<glyph unicode="W" horiz-adv-x="1777" d="M61 1462h48l372 -1396l383 1390h51l381 -1395l375 1401h45l-393 -1462h-53l-381 1395l-381 -1395h-53z" />
<glyph unicode="X" horiz-adv-x="1226" d="M41 0l539 766l-498 696h55l469 -661l473 661h54l-498 -694l551 -768h-56l-524 733l-512 -733h-53z" />
<glyph unicode="Y" horiz-adv-x="1140" d="M51 1462h51l469 -782l469 782h50l-496 -825v-637h-45v633z" />
<glyph unicode="Z" horiz-adv-x="1185" d="M86 0v39l942 1380h-926v43h981v-39l-944 -1380h955l-15 -43h-993z" />
<glyph unicode="[" horiz-adv-x="518" d="M164 -254v1757h323v-41h-280v-1675h280v-41h-323z" />
<glyph unicode="\" horiz-adv-x="563" d="M31 1503h43l458 -1503h-43z" />
<glyph unicode="]" horiz-adv-x="518" d="M31 -213h280v1675h-280v41h323v-1757h-323v41z" />
<glyph unicode="^" d="M160 637l424 803h43l424 -803h-47l-400 760l-399 -760h-45z" />
<glyph unicode="_" horiz-adv-x="1024" d="M0 -252h1024v-41h-1024v41z" />
<glyph unicode="`" horiz-adv-x="776" d="M244 1462h55l231 -262h-49z" />
<glyph unicode="a" horiz-adv-x="1046" d="M92 295q0 104 43 169.5t115 101.5t165 50.5t195 18.5l248 10v51q0 86 -14.5 149.5t-51 106.5t-101 64.5t-163.5 21.5q-154 0 -236.5 -54t-109.5 -163l-39 8q25 121 122 185.5t267 64.5q104 0 175 -24.5t114 -72.5t61.5 -117.5t18.5 -162.5v-702h-43v197 q-61 -109 -161.5 -165.5t-233.5 -56.5q-176 0 -273.5 83t-97.5 237zM137 295q0 -137 86 -208t240 -71q102 0 180 33t137 96q41 43 59.5 89.5t18.5 117.5v254l-242 -10q-98 -4 -185 -17.5t-152.5 -44t-103.5 -89t-38 -150.5z" />
<glyph unicode="b" horiz-adv-x="1161" d="M152 0v1462h43v-657q47 123 151.5 198.5t259.5 75.5q113 0 199 -42t142.5 -115.5t84 -175t27.5 -222.5q0 -137 -35 -241.5t-96.5 -174t-147.5 -105.5t-188 -36q-137 0 -242.5 62.5t-154.5 197.5v-227h-43zM193 469q0 -45 5 -93t18 -96.5t36.5 -93.5t60.5 -82 q47 -47 121 -71.5t160 -24.5q195 0 307.5 135.5t112.5 380.5q0 117 -26.5 211t-78 162t-127 104.5t-176.5 36.5q-178 0 -284 -104q-70 -70 -99.5 -158t-29.5 -192v-115z" />
<glyph unicode="c" horiz-adv-x="1091" d="M102 514q0 131 33 236.5t94.5 178t149.5 111.5t196 39q317 0 396 -338l-39 -8q-33 147 -120 226t-239 79q-106 0 -186 -38.5t-133 -108.5t-80 -165t-27 -208t27 -208t78 -160.5t130 -103.5t183 -38q162 0 259.5 90t123.5 246h41q-27 -176 -136.5 -276.5t-287.5 -100.5 q-104 0 -189 36t-145.5 105.5t-94.5 171t-34 234.5z" />
<glyph unicode="d" horiz-adv-x="1161" d="M102 522q0 137 35 241.5t96.5 174.5t147.5 105.5t188 35.5q135 0 242 -62.5t156 -197.5v643h43v-1462h-43v242q-49 -125 -152.5 -200t-259.5 -75q-115 0 -200 42t-141 116t-84 175t-28 222zM147 522q0 -117 27 -211t77 -161.5t127 -104.5t177 -37q178 0 285 105 q70 70 99.5 157.5t29.5 192.5v115q0 45 -5.5 93t-17.5 96t-36.5 93t-61.5 82q-47 47 -121 71.5t-158 24.5q-197 0 -309.5 -135t-112.5 -381z" />
<glyph unicode="e" horiz-adv-x="1091" d="M102 514q0 139 34 245.5t95.5 177.5t147.5 106.5t190 35.5q113 0 194 -41t131 -113.5t72.5 -169t22.5 -208.5v-35h-844q0 -115 27 -208t78 -158.5t131 -101.5t186 -36q145 0 236.5 64.5t120.5 177.5h41q-12 -57 -42 -108.5t-78 -89.5t-117 -61.5t-161 -23.5 q-225 0 -345 145.5t-120 401.5zM145 551h801q0 104 -19.5 192t-63.5 155t-118 103.5t-176 36.5q-190 0 -302.5 -123.5t-121.5 -363.5z" />
<glyph unicode="f" horiz-adv-x="616" d="M45 1006v41h162v131q0 76 21.5 132t60.5 94t91 56.5t114 18.5q31 0 67.5 -6.5t67.5 -16.5l-11 -39q-33 10 -60.5 15.5t-63.5 5.5q-113 0 -178.5 -64.5t-65.5 -193.5v-133h325v-41h-325v-1006h-43v1006h-162z" />
<glyph unicode="g" horiz-adv-x="1161" d="M102 547q0 135 37 234.5t100.5 166t150.5 99t188 32.5q135 0 235 -58t154 -192v218h43v-1039q0 -96 -20.5 -175t-70 -135t-132 -87t-205.5 -31q-86 0 -159 14.5t-131.5 48t-95 88t-46.5 132.5h40q20 -121 115.5 -182.5t276.5 -61.5q117 0 191.5 28.5t117.5 80t59.5 122 t16.5 154.5v283q-49 -125 -152.5 -198t-259.5 -73q-115 0 -199 41t-141 114t-85 168t-28 208zM147 547q0 -111 27 -202t78 -154.5t127 -98.5t176 -35q172 0 285 101q68 63 98.5 148t30.5 183v111q0 43 -5.5 89t-17.5 91t-36.5 88t-61.5 78q-96 92 -270 92q-96 0 -175 -31.5 t-135.5 -92t-88.5 -152.5t-32 -215z" />
<glyph unicode="h" horiz-adv-x="1110" d="M152 0v1462h43v-600q78 111 188.5 164t228.5 53q176 0 264.5 -98t88.5 -281v-700h-43v692q0 170 -76 258t-238 88q-92 0 -173 -30.5t-152 -100.5q-31 -29 -48.5 -53.5t-26.5 -52t-11 -63.5t-2 -85v-653h-43z" />
<glyph unicode="i" horiz-adv-x="346" d="M152 0v1047h43v-1047h-43zM152 1274v188h43v-188h-43z" />
<glyph unicode="j" horiz-adv-x="346" d="M-213 -348l12 39q41 -14 84 -22.5t78 -8.5q53 0 89 18.5t58.5 52t33 78t10.5 95.5v1143h43v-1129q0 -143 -57.5 -221t-176.5 -78q-45 0 -90 9.5t-84 23.5zM152 1274v188h43v-188h-43z" />
<glyph unicode="k" horiz-adv-x="976" d="M152 0v1462h43v-1001l651 586h57l-385 -347l438 -700h-49l-420 674l-292 -262v-412h-43z" />
<glyph unicode="l" horiz-adv-x="346" d="M152 0v1462h43v-1462h-43z" />
<glyph unicode="m" horiz-adv-x="1724" d="M152 0v1047h43v-183q72 109 170 162t204 53q127 0 203 -60.5t100 -170.5q76 115 177.5 173t212.5 58q160 0 238.5 -93t78.5 -267v-719h-43v713q0 160 -67.5 242.5t-213.5 82.5q-76 0 -149.5 -29.5t-140.5 -101.5q-27 -29 -42.5 -51t-23.5 -49t-10 -62.5t-2 -91.5v-653 h-43v713q0 160 -67.5 242.5t-213.5 82.5q-76 0 -150.5 -29.5t-140.5 -101.5q-27 -29 -42 -52.5t-23 -51t-10 -62t-2 -88.5v-653h-43z" />
<glyph unicode="n" horiz-adv-x="1110" d="M152 0v1047h43v-187q78 113 188.5 166t228.5 53q176 0 264.5 -99t88.5 -280v-700h-43v692q0 168 -76 257t-238 89q-92 0 -173 -30.5t-152 -100.5q-31 -29 -48.5 -53.5t-26.5 -52t-11 -63.5t-2 -85v-653h-43z" />
<glyph unicode="o" horiz-adv-x="1157" d="M102 522q0 111 27 212.5t84 178t148.5 121.5t218.5 45t217 -45t147 -120.5t84 -176t27 -211.5q0 -113 -27 -214t-84 -178t-148 -122t-218 -45t-217.5 45t-147.5 121t-84 176.5t-27 212.5zM147 520q0 -102 24 -195.5t75 -164t133 -111.5t199 -41t199.5 42t134 112.5 t75 165t23.5 196.5t-23.5 195.5t-75 164t-134.5 112.5t-199 42q-117 0 -199 -42t-133 -113.5t-75 -166t-24 -196.5z" />
<glyph unicode="p" horiz-adv-x="1161" d="M152 -397v1444h43v-242q47 123 151.5 198.5t259.5 75.5q113 0 199 -42t142.5 -115.5t84 -175t27.5 -222.5q0 -137 -35 -241.5t-96.5 -174t-147.5 -105.5t-188 -36q-137 0 -243.5 63.5t-153.5 196.5v-624h-43zM193 469q0 -45 5 -93t18 -96.5t36.5 -93.5t60.5 -82 q47 -47 121 -71.5t158 -24.5q195 0 308.5 134t113.5 382q0 117 -26.5 211t-78 162t-127 104.5t-176.5 36.5q-178 0 -284 -104q-70 -66 -99.5 -156t-29.5 -194v-115z" />
<glyph unicode="q" horiz-adv-x="1161" d="M102 522q0 137 35 241.5t96.5 174.5t147.5 105.5t188 35.5q135 0 242 -62.5t156 -197.5v228h43v-1444h-43v639q-47 -123 -150.5 -199t-261.5 -76q-115 0 -200 42t-141 117t-84 175t-28 221zM147 522q0 -117 27 -211t78 -161.5t127 -104.5t176 -37q178 0 285 105 q70 70 99.5 157.5t29.5 192.5v115q0 45 -5.5 93t-18.5 96t-36.5 93t-60.5 82q-47 47 -121 71.5t-158 24.5q-197 0 -309.5 -135t-112.5 -381z" />
<glyph unicode="r" horiz-adv-x="675" d="M152 0v1047h43v-189q63 98 154 151.5t210 53.5q37 0 78 -6l-6 -43q-23 4 -36 5t-36 1q-104 0 -182 -41t-139 -123q-14 -18 -22.5 -36.5t-13.5 -43t-6 -52.5t-1 -71v-653h-43z" />
<glyph unicode="s" horiz-adv-x="1017" d="M98 270h41q18 -125 109.5 -193.5t271.5 -68.5q98 0 164 20.5t105.5 56.5t56 83t16.5 100q0 66 -21.5 109t-61.5 69.5t-97 42t-131 27.5l-98 16q-66 10 -125.5 28t-103.5 48.5t-69.5 77.5t-25.5 119q0 55 20.5 105.5t64.5 88t114.5 59t171.5 21.5q98 0 163.5 -19.5 t108.5 -53t67.5 -79.5t41.5 -100l-39 -8q-16 51 -41 92t-65 70t-97 43t-139 14q-92 0 -154.5 -17t-100.5 -49t-54.5 -75t-16.5 -94q0 -59 19.5 -98t56.5 -65t88 -40t113 -25l106 -18q76 -12 140.5 -29.5t111.5 -48t72.5 -81t25.5 -128.5q0 -145 -96 -224t-291 -79 q-182 0 -292.5 74t-129.5 229z" />
<glyph unicode="t" horiz-adv-x="651" d="M45 1006v41h162v292h43v-292h354v-41h-354v-727q0 -129 51 -195t162 -66q78 0 145 29l13 -37q-29 -14 -68 -23.5t-90 -9.5q-72 0 -121 20.5t-79 60.5t-43 97.5t-13 131.5v719h-162z" />
<glyph unicode="u" horiz-adv-x="1089" d="M145 346v701h43v-693q0 -168 74 -257t232 -89q92 0 167.5 31t147.5 100q31 29 47 53.5t25.5 52t11.5 63.5t2 85v654h43v-1047h-43v188q-76 -113 -183.5 -167t-224.5 -54q-174 0 -258 100.5t-84 278.5z" />
<glyph unicode="v" horiz-adv-x="956" d="M20 1047h46l413 -998l414 998h43l-434 -1047h-47z" />
<glyph unicode="w" horiz-adv-x="1390" d="M27 1047h45l290 -998l312 993h45l311 -993l291 998h43l-307 -1047h-51l-312 991l-309 -991h-51z" />
<glyph unicode="x" horiz-adv-x="903" d="M20 0l408 555l-373 492h49l351 -461l352 461h47l-375 -490l420 -557h-49l-395 524l-387 -524h-48z" />
<glyph unicode="y" horiz-adv-x="956" d="M20 1047h46l434 -986l393 986h43l-494 -1235q-39 -96 -91 -152.5t-148 -56.5q-35 0 -64.5 5t-58.5 15l10 37q23 -8 53.5 -13t59.5 -5q66 0 112.5 39.5t90.5 144.5l75 184z" />
<glyph unicode="z" horiz-adv-x="901" d="M61 0v29l691 977h-676v41h729v-33l-688 -973h723l-13 -41h-766z" />
<glyph unicode="{" horiz-adv-x="530" d="M61 604v41h11q78 0 109.5 38t31.5 105v533q0 86 41 134t125 48h121v-41h-127q-63 0 -90 -40t-27 -95v-534q0 -74 -28.5 -115t-73.5 -53q45 -12 73.5 -53.5t28.5 -114.5v-535q0 -57 28.5 -96t88.5 -39h127v-41h-121q-84 0 -125 47t-41 135v533q0 68 -31.5 105.5 t-109.5 37.5h-11z" />
<glyph unicode="|" horiz-adv-x="395" d="M176 -254v1757h43v-1757h-43z" />
<glyph unicode="}" horiz-adv-x="530" d="M31 -213h127q63 0 89.5 40t26.5 95v535q0 74 29 114.5t74 53.5q-45 12 -74 53t-29 115v534q0 57 -28.5 96t-87.5 39h-127v41h121q84 0 124.5 -47t40.5 -135v-533q0 -68 32 -105.5t110 -37.5h10v-41h-10q-78 0 -110 -38t-32 -105v-533q0 -86 -40.5 -134t-124.5 -48h-121 v41z" />
<glyph unicode="~" d="M135 555q0 90 23.5 146.5t57.5 87t74 42t72 11.5q80 0 139.5 -43t113 -94.5t109.5 -94.5t132 -43q31 0 62.5 10.5t57 38t43 74.5t17.5 123h43q0 -90 -23.5 -146.5t-57 -87t-73.5 -42t-73 -11.5q-80 0 -139.5 43t-112.5 94.5t-109.5 94.5t-132.5 43q-31 0 -62.5 -10.5 t-57 -38t-43 -74.5t-17.5 -123h-43z" />
<glyph unicode="&#xa1;" horiz-adv-x="393" d="M174 -416l2 1098h41l2 -1098h-45zM174 858v189h45v-189h-45z" />
<glyph unicode="&#xa2;" d="M156 686q0 127 31.5 229.5t91 174t142.5 112.5t187 47v166h41v-164q317 -6 395 -338l-38 -8q-37 145 -120 224t-237 83v-1034q160 6 254 99.5t119 238.5h41q-27 -170 -133.5 -270.5t-280.5 -106.5v-157h-41v157q-102 2 -185 40t-142.5 107.5t-92 170t-32.5 229.5z M201 690q0 -111 25.5 -203t75.5 -159.5t127 -106.5t179 -43v1032q-104 -6 -180 -47t-127 -110.5t-75.5 -161.5t-24.5 -201z" />
<glyph unicode="&#xa3;" d="M150 684v39h145q-10 76 -19.5 144.5t-9.5 146.5q0 113 32 196.5t89 137t133 80t166 26.5q92 0 157.5 -26.5t108.5 -69.5t69 -99.5t40 -115.5l-41 -10q-16 63 -42 114t-66 88t-95 56.5t-131 19.5q-176 0 -275.5 -103.5t-99.5 -293.5q0 -66 9.5 -138.5t19.5 -152.5h506v-39 h-500q6 -53 10 -106.5t4 -110.5q0 -109 -24.5 -217.5t-93.5 -206.5h854l-15 -43h-891v43q39 47 62.5 101.5t38 110.5t19.5 110.5t5 101.5q0 61 -4 114.5t-10 102.5h-151z" />
<glyph unicode="&#xa4;" d="M166 707q0 111 29.5 198.5t85.5 151.5l-113 125l31 28l110 -123q115 102 295 103q92 0 165 -26.5t128 -73.5l113 120l30 -28l-112 -123q117 -129 116 -352q0 -223 -116 -353l112 -121l-30 -28l-111 121q-113 -100 -295 -101q-182 0 -295 101l-110 -121l-31 28l113 123 q-115 127 -115 351zM211 707q0 -203 102.5 -322t290.5 -119t291.5 118t103.5 323t-103 323.5t-292 118.5q-188 0 -290.5 -118.5t-102.5 -323.5z" />
<glyph unicode="&#xa5;" d="M88 1415h51l469 -735l469 735h49l-424 -661h345v-39h-369l-47 -74v-215h416v-39h-416v-387h-45v387h-406v39h406v211l-49 78h-357v39h332z" />
<glyph unicode="&#xa6;" horiz-adv-x="395" d="M176 -254v723h43v-723h-43zM176 815v688h43v-688h-43z" />
<glyph unicode="&#xa7;" horiz-adv-x="999" d="M96 55h41q18 -127 110.5 -194.5t270.5 -67.5q98 0 164 20.5t105.5 55.5t56 83t16.5 101q0 39 -9 74t-37 69.5t-77 62.5t-127 46l-200 49q-147 35 -229.5 108t-82.5 193q0 51 15.5 100.5t46 88.5t79 65.5t115.5 34.5q-51 14 -96 38t-78 56.5t-52 76.5t-19 102 q0 61 21.5 112t67.5 89t119.5 59.5t178.5 21.5q100 0 168.5 -19.5t112.5 -53t70.5 -80t43.5 -99.5l-39 -8q-18 51 -44 92t-67 70t-100 43t-145 14q-98 0 -165 -18.5t-106 -50t-55 -76.5t-16 -99q0 -86 57 -146t199 -99l188 -49q166 -43 238.5 -114.5t72.5 -182.5 q0 -119 -69.5 -196t-180.5 -93q137 -45 191.5 -113.5t54.5 -167.5q0 -141 -96 -221t-291 -80q-184 0 -293.5 75t-128.5 228zM143 659q0 -104 69 -166.5t216 -99.5l82 -20q23 -6 45.5 -8.5t44.5 -2.5q113 0 188.5 69t75.5 187q0 104 -68.5 167t-215.5 100l-82 20 q-47 12 -90 13q-55 0 -103.5 -17.5t-84.5 -51.5t-56.5 -82t-20.5 -108z" />
<glyph unicode="&#xa8;" horiz-adv-x="776" d="M215 1274v188h43v-188h-43zM518 1274v188h43v-188h-43z" />
<glyph unicode="&#xa9;" horiz-adv-x="1597" d="M102 731q0 166 54.5 301t149.5 230.5t222 147.5t273 52q154 0 281.5 -52t220 -147.5t142.5 -230.5t50 -301t-54.5 -301t-147.5 -230.5t-220 -147.5t-272 -52q-154 0 -283 52t-221 147.5t-143.5 230.5t-51.5 301zM147 731q0 -158 48.5 -285t134.5 -217t206 -139t265 -49 q135 0 254 49t207 139t138 217t50 285q0 156 -47 284t-133 218t-206 139t-263 49q-135 0 -255 -49t-208 -139t-139.5 -218t-51.5 -284zM451 729q0 111 28.5 190.5t78.5 132t116.5 78t144.5 25.5q68 0 120 -19.5t89 -54t60.5 -81t35.5 -99.5l-41 -8q-12 47 -32.5 88t-51 70.5 t-75.5 46t-105 16.5q-150 0 -236.5 -98t-86.5 -287q0 -186 86 -283.5t231 -97.5q68 0 118 20.5t84 54.5t53 77t26 90h41q-16 -123 -98.5 -203t-223.5 -80q-78 0 -144.5 26.5t-114.5 79t-75.5 132.5t-27.5 184z" />
<glyph unicode="&#xaa;" horiz-adv-x="837" d="M102 922q0 76 31 124t85 75.5t122 40t143 14.5l181 8v33q0 129 -51.5 186t-182.5 57q-111 0 -171 -34.5t-83 -116.5l-37 6q18 90 91 137t200 47q139 0 207 -62.5t68 -215.5v-519h-41v138q-96 -154 -291 -154q-129 0 -200 61.5t-71 174.5zM145 922q0 -96 59.5 -146.5 t170.5 -50.5q154 0 237 96q31 35 41.5 69t10.5 87v170l-172 -8q-76 -4 -138.5 -13.5t-109.5 -33t-73 -64.5t-26 -106z" />
<glyph unicode="&#xab;" horiz-adv-x="886" d="M82 524l301 455h47l-299 -453l299 -456h-47zM436 524l301 455h47l-299 -453l299 -456h-47z" />
<glyph unicode="&#xac;" d="M127 817v41h917v-528h-43v487h-874z" />
<glyph unicode="&#xad;" horiz-adv-x="792" d="M102 569v41h588v-41h-588z" />
<glyph unicode="&#xae;" horiz-adv-x="958" d="M82 1061q0 96 31.5 174t86 132t126 83t153.5 29q90 0 163 -29t125 -83t81 -132t29 -174t-32 -175t-86 -132.5t-126 -82t-154 -28.5q-88 0 -160.5 28.5t-125 83t-82 132.5t-29.5 174zM123 1061q0 -174 97 -276.5t259 -102.5q74 0 139.5 25.5t113.5 74.5t76 120t28 159 q0 174 -96.5 276.5t-260.5 102.5q-76 0 -140.5 -25.5t-112.5 -75t-75.5 -120t-27.5 -158.5zM336 862v414h178q63 0 98 -32t35 -85q0 -86 -82 -112l94 -185h-47l-88 176h-147v-176h-41zM377 1077h133q94 0 94 80t-94 80h-133v-160z" />
<glyph unicode="&#xaf;" horiz-adv-x="776" d="M150 1296v37h475v-37h-475z" />
<glyph unicode="&#xb0;" horiz-adv-x="626" d="M51 1194q0 55 19.5 103.5t55.5 83t84 54t103 19.5t103.5 -19.5t84.5 -54t55 -83t19 -103.5t-19 -103.5t-55 -83t-84 -54t-104 -19.5q-55 0 -103 19.5t-84 54t-55.5 83t-19.5 103.5zM92 1194q0 -96 63.5 -158.5t157.5 -62.5t158 61.5t64 159.5q0 96 -63.5 158.5 t-158.5 62.5q-94 0 -157.5 -61.5t-63.5 -159.5z" />
<glyph unicode="&#xb1;" d="M150 0v41h913v-41h-913zM150 676v41h436v463h43v-463h434v-41h-434v-465h-43v465h-436z" />
<glyph unicode="&#xb2;" horiz-adv-x="843" d="M154 602v37l194 168q84 74 139.5 129t88 101t46 88t13.5 85q0 90 -50 143.5t-155 53.5q-57 0 -97 -15.5t-67.5 -41t-44 -56t-24.5 -63.5l-39 6q8 35 25.5 70.5t49 68.5t79.5 52.5t118 19.5q121 0 185.5 -65.5t64.5 -168.5q0 -53 -17.5 -101t-54.5 -99t-93 -106.5 t-136 -127.5l-158 -137h465l-12 -41h-520z" />
<glyph unicode="&#xb3;" horiz-adv-x="843" d="M129 807h39q2 -35 16.5 -68.5t41 -60.5t72.5 -44.5t114 -17.5q109 0 166 49.5t57 147.5t-52.5 148.5t-127.5 50.5h-133v39h120q80 0 128 47t48 133q0 84 -49 130t-153 46q-59 0 -99.5 -15.5t-67 -39t-41.5 -53t-24 -60.5l-39 6q6 29 21.5 65t46.5 66.5t80 51t123 20.5 q123 0 185.5 -58.5t62.5 -156.5q0 -78 -37 -128t-97 -71q66 -16 108 -74.5t42 -146.5q0 -111 -69.5 -174.5t-198.5 -63.5q-80 0 -134.5 23t-87 57.5t-47 75.5t-14.5 76z" />
<glyph unicode="&#xb4;" horiz-adv-x="776" d="M246 1200l231 262h55l-237 -262h-49z" />
<glyph unicode="&#xb5;" horiz-adv-x="1095" d="M152 -401v1448h43v-695q0 -166 73.5 -255t233.5 -89q90 0 165.5 31t147.5 100q31 29 47.5 53.5t25.5 52t11 63.5t2 85v654h43v-1047h-43v188q-76 -113 -181 -167t-222 -54q-121 0 -195 47t-108 133v-548h-43z" />
<glyph unicode="&#xb6;" horiz-adv-x="1044" d="M61 1075q0 80 26 149.5t85 123t157.5 84t243.5 30.5h308v-1747h-41v1706h-281v-1706h-41v977q-133 0 -222 32t-140.5 85t-73 121.5t-21.5 144.5z" />
<glyph unicode="&#xb7;" horiz-adv-x="331" d="M143 666v199h43v-199h-43z" />
<glyph unicode="&#xb8;" horiz-adv-x="776" d="M225 -324q27 -4 53.5 -7t61.5 -3q86 0 128 19.5t42 70.5q0 47 -40 69.5t-146 22.5h-29l49 152h37l-35 -117q113 -2 159 -34.5t46 -94.5q0 -39 -16.5 -63.5t-44 -38.5t-66.5 -19.5t-82 -5.5q-70 0 -117 11v38z" />
<glyph unicode="&#xb9;" horiz-adv-x="843" d="M186 1292l250 129h43v-819h-43v774l-231 -119z" />
<glyph unicode="&#xba;" horiz-adv-x="890" d="M82 1090q0 92 26.5 167.5t75.5 130t116 83t146 28.5q170 0 266.5 -108.5t96.5 -294.5q0 -92 -25.5 -169t-73.5 -130.5t-116 -83t-152 -29.5q-82 0 -148.5 28.5t-113.5 82t-72.5 128t-25.5 167.5zM125 1090q0 -172 85 -269.5t232 -97.5q152 0 238 99.5t86 273.5t-84 269 t-236 95q-72 0 -130 -25.5t-101 -73.5t-66.5 -116.5t-23.5 -154.5z" />
<glyph unicode="&#xbb;" horiz-adv-x="886" d="M102 70l299 452l-299 457h48l301 -455l-301 -454h-48zM456 70l299 452l-299 457h48l301 -455l-301 -454h-48z" />
<glyph unicode="&#xbc;" horiz-adv-x="1800" d="M96 1288l250 129h43v-819h-43v774l-231 -119zM489 0l727 1415h47l-727 -1415h-47zM1110 234v32l426 555h41v-547h102l-12 -40h-90v-232h-43v232h-424zM1165 274h369v480z" />
<glyph unicode="&#xbd;" horiz-adv-x="1800" d="M96 1288l250 129h43v-819h-43v774l-231 -119zM448 0l727 1415h47l-727 -1415h-47zM1115 2v37l194 168q84 74 139.5 129t88 101t46 88t13.5 85q0 90 -50 143.5t-155 53.5q-57 0 -97 -15.5t-67.5 -41t-44 -56t-24.5 -63.5l-39 6q8 35 25.5 70.5t49 68.5t79.5 52.5t118 19.5 q121 0 185.5 -65.5t64.5 -168.5q0 -53 -17.5 -101t-54.5 -99t-93 -106.5t-136 -127.5l-158 -137h465l-12 -41h-520z" />
<glyph unicode="&#xbe;" horiz-adv-x="1800" d="M121 803h39q2 -35 16.5 -68.5t41 -60.5t72.5 -44.5t114 -17.5q109 0 166 49.5t57 147.5t-52.5 148.5t-127.5 50.5h-133v39h120q80 0 128 47t48 133q0 84 -49 130t-153 46q-59 0 -99.5 -15.5t-67 -39t-41.5 -53t-24 -60.5l-39 6q6 29 21.5 65t46.5 66.5t80 51t123 20.5 q123 0 185.5 -58.5t62.5 -156.5q0 -78 -37 -128t-97 -71q66 -16 108 -74.5t42 -146.5q0 -111 -69.5 -174.5t-198.5 -63.5q-80 0 -134.5 23t-87 57.5t-47 75.5t-14.5 76zM582 0l727 1415h47l-727 -1415h-47zM1110 234v32l426 555h41v-547h102l-12 -40h-90v-232h-43v232h-424z M1165 274h369v480z" />
<glyph unicode="&#xbf;" horiz-adv-x="937" d="M92 -55q0 113 47 198.5t121 153.5q47 45 85 84t65.5 82t43 92t15.5 115v16h45v-10q0 -72 -15.5 -124t-43 -98t-68.5 -89t-92 -95q-66 -63 -112 -140t-46 -185q0 -72 21.5 -133.5t66.5 -106.5t111.5 -71.5t159.5 -26.5q98 0 162.5 28.5t106.5 74.5t65.5 103.5t35.5 114.5 l41 -8q-12 -63 -36.5 -123.5t-71.5 -114t-121 -86t-182 -32.5q-102 0 -178 30.5t-126.5 83t-75 121t-24.5 146.5zM469 858v189h45v-189h-45z" />
<glyph unicode="&#xc0;" horiz-adv-x="1304" d="M51 0l576 1462h51l575 -1462h-51l-188 483h-725l-189 -483h-49zM305 526h692l-346 889zM467 1837h57l231 -252h-51z" />
<glyph unicode="&#xc1;" horiz-adv-x="1304" d="M51 0l576 1462h51l575 -1462h-51l-188 483h-725l-189 -483h-49zM305 526h692l-346 889zM549 1585l231 252h57l-237 -252h-51z" />
<glyph unicode="&#xc2;" horiz-adv-x="1304" d="M51 0l576 1462h51l575 -1462h-51l-188 483h-725l-189 -483h-49zM305 526h692l-346 889zM403 1585l226 252h45l225 -252h-51l-197 215l-197 -215h-51z" />
<glyph unicode="&#xc3;" horiz-adv-x="1304" d="M51 0l576 1462h51l575 -1462h-51l-188 483h-725l-189 -483h-49zM305 526h692l-346 889zM330 1602q0 78 46 126t119 48q51 0 89 -21.5t73 -47.5t70 -47.5t82 -21.5q35 0 58.5 12.5t36.5 32t20.5 43t7.5 46.5h43q0 -78 -47.5 -126.5t-120.5 -48.5q-51 0 -89 21.5t-73 47.5 t-71 47.5t-83 21.5q-35 0 -57.5 -12.5t-35.5 -33t-19 -44t-6 -43.5h-43z" />
<glyph unicode="&#xc4;" horiz-adv-x="1304" d="M51 0l576 1462h51l575 -1462h-51l-188 483h-725l-189 -483h-49zM305 526h692l-346 889zM467 1628v189h45v-189h-45zM792 1628v189h45v-189h-45z" />
<glyph unicode="&#xc5;" horiz-adv-x="1304" d="M51 0l561 1425q-57 10 -94 52.5t-37 117.5q0 88 50.5 131t119.5 43q70 0 120 -43t50 -131q0 -76 -36.5 -117.5t-92.5 -52.5l561 -1425h-51l-188 483h-725l-189 -483h-49zM305 526h692l-346 889zM524 1595q0 -66 36 -99.5t91 -33.5q57 0 92 33.5t35 99.5t-35.5 100 t-91.5 34q-57 0 -92 -34t-35 -100z" />
<glyph unicode="&#xc6;" horiz-adv-x="2052" d="M51 0l877 1462h1018v-43h-793v-643h752v-43h-752v-690h809l-14 -43h-840v547h-678l-328 -547h-51zM455 590h653v829h-156z" />
<glyph unicode="&#xc7;" horiz-adv-x="1402" d="M123 725q0 199 48 345.5t131 241.5t195.5 141t241.5 46q119 0 209 -37t155.5 -99.5t106.5 -147.5t62 -183l-41 -10q-23 94 -59.5 173t-96 137.5t-141.5 91t-193 32.5q-127 0 -232.5 -45t-180 -136t-116.5 -227.5t-42 -318.5t43 -317.5t119 -225.5t181 -135t232 -45 q121 0 209 39t149.5 103.5t96.5 147.5t49 173h41q-14 -109 -55 -202t-109.5 -161.5t-165 -107.5t-219.5 -39h-18l-33 -96q66 -2 109 -11.5t67.5 -28t34.5 -42t10 -51.5q0 -41 -16 -66.5t-46 -40t-69 -20.5t-84 -6q-74 0 -121 10v43q29 -4 55.5 -7t63.5 -3q80 0 126 17t46 73 q0 49 -45 71.5t-155 22.5h-31l47 137q-121 10 -223.5 63.5t-177 148.5t-116.5 233.5t-42 318.5z" />
<glyph unicode="&#xc8;" horiz-adv-x="1173" d="M176 0v1462h891v-43h-846v-643h805v-43h-805v-690h862l-14 -43h-893zM455 1837h57l231 -252h-51z" />
<glyph unicode="&#xc9;" horiz-adv-x="1173" d="M176 0v1462h891v-43h-846v-643h805v-43h-805v-690h862l-14 -43h-893zM518 1585l231 252h57l-237 -252h-51z" />
<glyph unicode="&#xca;" horiz-adv-x="1173" d="M176 0v1462h891v-43h-846v-643h805v-43h-805v-690h862l-14 -43h-893zM383 1585l226 252h45l225 -252h-51l-197 215l-197 -215h-51z" />
<glyph unicode="&#xcb;" horiz-adv-x="1173" d="M176 0v1462h891v-43h-846v-643h805v-43h-805v-690h862l-14 -43h-893zM445 1628v189h45v-189h-45zM770 1628v189h45v-189h-45z" />
<glyph unicode="&#xcc;" horiz-adv-x="397" d="M-41 1837h57l231 -252h-51zM176 0v1462h45v-1462h-45z" />
<glyph unicode="&#xcd;" horiz-adv-x="397" d="M152 1585l231 252h57l-237 -252h-51zM176 0v1462h45v-1462h-45z" />
<glyph unicode="&#xce;" horiz-adv-x="397" d="M-47 1585l226 252h45l225 -252h-51l-197 215l-197 -215h-51zM176 0v1462h45v-1462h-45z" />
<glyph unicode="&#xcf;" horiz-adv-x="397" d="M17 1628v189h45v-189h-45zM176 0v1462h45v-1462h-45zM342 1628v189h45v-189h-45z" />
<glyph unicode="&#xd0;" horiz-adv-x="1419" d="M20 733v43h168v686h469q143 0 260 -44t202 -135t131 -228t46 -324q0 -186 -46 -323.5t-133 -228.5t-212 -135t-282 -44h-435v733h-168zM233 43h392q305 0 464.5 172t159.5 512q0 348 -155.5 520t-436.5 172h-424v-643h463v-43h-463v-690z" />
<glyph unicode="&#xd1;" horiz-adv-x="1380" d="M176 0v1462h51l932 -1401v1401h45v-1462h-55l-928 1397v-1397h-45zM388 1602q0 78 46 126t119 48q51 0 89 -21.5t73 -47.5t70 -47.5t82 -21.5q35 0 58.5 12.5t36.5 32t20.5 43t7.5 46.5h43q0 -78 -47.5 -126.5t-120.5 -48.5q-51 0 -89 21.5t-73 47.5t-71 47.5t-83 21.5 q-35 0 -57.5 -12.5t-35.5 -33t-19 -44t-6 -43.5h-43z" />
<glyph unicode="&#xd2;" horiz-adv-x="1507" d="M123 729q0 166 40 306.5t118.5 243.5t196.5 161.5t276 58.5t275.5 -59.5t196.5 -161.5t118.5 -243.5t39.5 -303.5q0 -166 -39.5 -307t-118.5 -244.5t-198 -162t-274 -58.5q-158 0 -277 59.5t-196.5 163t-117.5 243.5t-40 304zM170 729q0 -158 37 -291t108.5 -229 t182 -151.5t256.5 -55.5q145 0 255.5 55.5t182.5 151.5t108.5 229t36.5 291q0 156 -36.5 290t-109.5 230.5t-182.5 151.5t-254.5 55t-255 -54t-182.5 -151.5t-109.5 -231.5t-37 -290zM572 1837h57l231 -252h-51z" />
<glyph unicode="&#xd3;" horiz-adv-x="1507" d="M123 729q0 166 40 306.5t118.5 243.5t196.5 161.5t276 58.5t275.5 -59.5t196.5 -161.5t118.5 -243.5t39.5 -303.5q0 -166 -39.5 -307t-118.5 -244.5t-198 -162t-274 -58.5q-158 0 -277 59.5t-196.5 163t-117.5 243.5t-40 304zM170 729q0 -158 37 -291t108.5 -229 t182 -151.5t256.5 -55.5q145 0 255.5 55.5t182.5 151.5t108.5 229t36.5 291q0 156 -36.5 290t-109.5 230.5t-182.5 151.5t-254.5 55t-255 -54t-182.5 -151.5t-109.5 -231.5t-37 -290zM647 1585l231 252h57l-237 -252h-51z" />
<glyph unicode="&#xd4;" horiz-adv-x="1507" d="M123 729q0 166 40 306.5t118.5 243.5t196.5 161.5t276 58.5t275.5 -59.5t196.5 -161.5t118.5 -243.5t39.5 -303.5q0 -166 -39.5 -307t-118.5 -244.5t-198 -162t-274 -58.5q-158 0 -277 59.5t-196.5 163t-117.5 243.5t-40 304zM170 729q0 -158 37 -291t108.5 -229 t182 -151.5t256.5 -55.5q145 0 255.5 55.5t182.5 151.5t108.5 229t36.5 291q0 156 -36.5 290t-109.5 230.5t-182.5 151.5t-254.5 55t-255 -54t-182.5 -151.5t-109.5 -231.5t-37 -290zM506 1585l226 252h45l225 -252h-51l-197 215l-197 -215h-51z" />
<glyph unicode="&#xd5;" horiz-adv-x="1507" d="M123 729q0 166 40 306.5t118.5 243.5t196.5 161.5t276 58.5t275.5 -59.5t196.5 -161.5t118.5 -243.5t39.5 -303.5q0 -166 -39.5 -307t-118.5 -244.5t-198 -162t-274 -58.5q-158 0 -277 59.5t-196.5 163t-117.5 243.5t-40 304zM170 729q0 -158 37 -291t108.5 -229 t182 -151.5t256.5 -55.5q145 0 255.5 55.5t182.5 151.5t108.5 229t36.5 291q0 156 -36.5 290t-109.5 230.5t-182.5 151.5t-254.5 55t-255 -54t-182.5 -151.5t-109.5 -231.5t-37 -290zM433 1602q0 78 46 126t119 48q51 0 89 -21.5t73 -47.5t70 -47.5t82 -21.5q35 0 58.5 12.5 t36.5 32t20.5 43t7.5 46.5h43q0 -78 -47.5 -126.5t-120.5 -48.5q-51 0 -89 21.5t-73 47.5t-71 47.5t-83 21.5q-35 0 -57.5 -12.5t-35.5 -33t-19 -44t-6 -43.5h-43z" />
<glyph unicode="&#xd6;" horiz-adv-x="1507" d="M123 729q0 166 40 306.5t118.5 243.5t196.5 161.5t276 58.5t275.5 -59.5t196.5 -161.5t118.5 -243.5t39.5 -303.5q0 -166 -39.5 -307t-118.5 -244.5t-198 -162t-274 -58.5q-158 0 -277 59.5t-196.5 163t-117.5 243.5t-40 304zM170 729q0 -158 37 -291t108.5 -229 t182 -151.5t256.5 -55.5q145 0 255.5 55.5t182.5 151.5t108.5 229t36.5 291q0 156 -36.5 290t-109.5 230.5t-182.5 151.5t-254.5 55t-255 -54t-182.5 -151.5t-109.5 -231.5t-37 -290zM570 1628v189h45v-189h-45zM895 1628v189h45v-189h-45z" />
<glyph unicode="&#xd7;" d="M205 1069l28 29l373 -375l373 373l29 -29l-373 -373l364 -362l-28 -29l-365 363l-364 -365l-29 29l365 364z" />
<glyph unicode="&#xd8;" horiz-adv-x="1507" d="M123 729q0 166 40 306.5t118.5 243.5t196.5 161.5t276 58.5q117 0 212 -33.5t169 -93.5l104 164l35 -23l-109 -170q111 -104 165 -261.5t54 -350.5q0 -166 -39.5 -307t-118.5 -244.5t-198 -162t-274 -58.5q-119 0 -215.5 34t-169.5 95l-103 -162l-35 23l107 168 q-109 109 -162 264t-53 348zM170 731q0 -180 48 -328.5t144 -246.5l748 1177q-68 59 -157 91t-199 32q-145 0 -255 -55t-182.5 -151.5t-109.5 -229.5t-37 -289zM395 129q68 -59 158 -91t201 -32q145 0 254.5 54.5t182.5 151.5t109.5 230t36.5 289q0 180 -48 328.5 t-146 247.5z" />
<glyph unicode="&#xd9;" horiz-adv-x="1351" d="M166 567v895h45v-901q0 -555 465 -555t465 555v901h45v-895q0 -305 -130 -454.5t-380 -149.5q-254 0 -382 149.5t-128 454.5zM484 1837h57l231 -252h-51z" />
<glyph unicode="&#xda;" horiz-adv-x="1351" d="M166 567v895h45v-901q0 -555 465 -555t465 555v901h45v-895q0 -305 -130 -454.5t-380 -149.5q-254 0 -382 149.5t-128 454.5zM580 1585l231 252h57l-237 -252h-51z" />
<glyph unicode="&#xdb;" horiz-adv-x="1351" d="M166 567v895h45v-901q0 -555 465 -555t465 555v901h45v-895q0 -305 -130 -454.5t-380 -149.5q-254 0 -382 149.5t-128 454.5zM428 1585l226 252h45l225 -252h-51l-197 215l-197 -215h-51z" />
<glyph unicode="&#xdc;" horiz-adv-x="1351" d="M166 567v895h45v-901q0 -555 465 -555t465 555v901h45v-895q0 -305 -130 -454.5t-380 -149.5q-254 0 -382 149.5t-128 454.5zM492 1628v189h45v-189h-45zM817 1628v189h45v-189h-45z" />
<glyph unicode="&#xdd;" horiz-adv-x="1140" d="M51 1462h51l469 -782l469 782h50l-496 -825v-637h-45v633zM471 1585l231 252h57l-237 -252h-51z" />
<glyph unicode="&#xde;" horiz-adv-x="1224" d="M176 0v1462h45v-299h457q225 0 340 -104.5t115 -313.5q0 -111 -33 -189.5t-93.5 -130.5t-145.5 -76.5t-191 -24.5h-449v-324h-45zM221 367h451q205 0 309 92t104 286q0 193 -102 284t-313 91h-449v-753z" />
<glyph unicode="&#xdf;" horiz-adv-x="1130" d="M152 0v1075q0 188 101 296t284 108q92 0 161.5 -28t115.5 -76t69.5 -113.5t23.5 -141.5q0 -51 -11 -101t-36.5 -95t-66.5 -80t-103 -56q55 -8 115.5 -32.5t110 -71.5t81 -118.5t31.5 -174.5q0 -88 -25.5 -164.5t-78 -133t-133 -89.5t-189.5 -33q-78 0 -141.5 14.5 t-98.5 26.5l13 39q41 -14 101.5 -26.5t125.5 -12.5q100 0 172 30t118 82t68.5 120.5t22.5 146.5q0 94 -30.5 165t-86 117t-128 68.5t-158.5 22.5h-179v41h148q154 0 233.5 87t79.5 228q0 147 -85 232.5t-240 85.5q-164 0 -253 -96.5t-89 -270.5v-1071h-43z" />
<glyph unicode="&#xe0;" horiz-adv-x="1046" d="M92 295q0 104 43 169.5t115 101.5t165 50.5t195 18.5l248 10v51q0 86 -14.5 149.5t-51 106.5t-101 64.5t-163.5 21.5q-154 0 -236.5 -54t-109.5 -163l-39 8q25 121 122 185.5t267 64.5q104 0 175 -24.5t114 -72.5t61.5 -117.5t18.5 -162.5v-702h-43v197 q-61 -109 -161.5 -165.5t-233.5 -56.5q-176 0 -273.5 83t-97.5 237zM137 295q0 -137 86 -208t240 -71q102 0 180 33t137 96q41 43 59.5 89.5t18.5 117.5v254l-242 -10q-98 -4 -185 -17.5t-152.5 -44t-103.5 -89t-38 -150.5zM373 1462h55l231 -262h-49z" />
<glyph unicode="&#xe1;" horiz-adv-x="1046" d="M92 295q0 104 43 169.5t115 101.5t165 50.5t195 18.5l248 10v51q0 86 -14.5 149.5t-51 106.5t-101 64.5t-163.5 21.5q-154 0 -236.5 -54t-109.5 -163l-39 8q25 121 122 185.5t267 64.5q104 0 175 -24.5t114 -72.5t61.5 -117.5t18.5 -162.5v-702h-43v197 q-61 -109 -161.5 -165.5t-233.5 -56.5q-176 0 -273.5 83t-97.5 237zM137 295q0 -137 86 -208t240 -71q102 0 180 33t137 96q41 43 59.5 89.5t18.5 117.5v254l-242 -10q-98 -4 -185 -17.5t-152.5 -44t-103.5 -89t-38 -150.5zM436 1200l231 262h55l-237 -262h-49z" />
<glyph unicode="&#xe2;" horiz-adv-x="1046" d="M92 295q0 104 43 169.5t115 101.5t165 50.5t195 18.5l248 10v51q0 86 -14.5 149.5t-51 106.5t-101 64.5t-163.5 21.5q-154 0 -236.5 -54t-109.5 -163l-39 8q25 121 122 185.5t267 64.5q104 0 175 -24.5t114 -72.5t61.5 -117.5t18.5 -162.5v-702h-43v197 q-61 -109 -161.5 -165.5t-233.5 -56.5q-176 0 -273.5 83t-97.5 237zM137 295q0 -137 86 -208t240 -71q102 0 180 33t137 96q41 43 59.5 89.5t18.5 117.5v254l-242 -10q-98 -4 -185 -17.5t-152.5 -44t-103.5 -89t-38 -150.5zM286 1200l228 262h41l227 -262h-49l-199 225 l-199 -225h-49z" />
<glyph unicode="&#xe3;" horiz-adv-x="1046" d="M92 295q0 104 43 169.5t115 101.5t165 50.5t195 18.5l248 10v51q0 86 -14.5 149.5t-51 106.5t-101 64.5t-163.5 21.5q-154 0 -236.5 -54t-109.5 -163l-39 8q25 121 122 185.5t267 64.5q104 0 175 -24.5t114 -72.5t61.5 -117.5t18.5 -162.5v-702h-43v197 q-61 -109 -161.5 -165.5t-233.5 -56.5q-176 0 -273.5 83t-97.5 237zM137 295q0 -137 86 -208t240 -71q102 0 180 33t137 96q41 43 59.5 89.5t18.5 117.5v254l-242 -10q-98 -4 -185 -17.5t-152.5 -44t-103.5 -89t-38 -150.5zM209 1241q0 78 44 126t116 48q47 0 85.5 -21.5 t71.5 -48t69 -48t77 -21.5q33 0 55 12t36.5 32.5t20.5 44.5t6 46h41q0 -78 -44 -126t-115 -48q-47 0 -87 21.5t-72 48t-68 48t-76 21.5q-35 0 -57.5 -13t-36 -32.5t-19.5 -44t-6 -45.5h-41z" />
<glyph unicode="&#xe4;" horiz-adv-x="1046" d="M92 295q0 104 43 169.5t115 101.5t165 50.5t195 18.5l248 10v51q0 86 -14.5 149.5t-51 106.5t-101 64.5t-163.5 21.5q-154 0 -236.5 -54t-109.5 -163l-39 8q25 121 122 185.5t267 64.5q104 0 175 -24.5t114 -72.5t61.5 -117.5t18.5 -162.5v-702h-43v197 q-61 -109 -161.5 -165.5t-233.5 -56.5q-176 0 -273.5 83t-97.5 237zM137 295q0 -137 86 -208t240 -71q102 0 180 33t137 96q41 43 59.5 89.5t18.5 117.5v254l-242 -10q-98 -4 -185 -17.5t-152.5 -44t-103.5 -89t-38 -150.5zM356 1274v188h43v-188h-43zM659 1274v188h43v-188 h-43z" />
<glyph unicode="&#xe5;" horiz-adv-x="1046" d="M92 295q0 104 43 169.5t115 101.5t165 50.5t195 18.5l248 10v51q0 86 -14.5 149.5t-51 106.5t-101 64.5t-163.5 21.5q-154 0 -236.5 -54t-109.5 -163l-39 8q25 121 122 185.5t267 64.5q104 0 175 -24.5t114 -72.5t61.5 -117.5t18.5 -162.5v-702h-43v197 q-61 -109 -161.5 -165.5t-233.5 -56.5q-176 0 -273.5 83t-97.5 237zM137 295q0 -137 86 -208t240 -71q102 0 180 33t137 96q41 43 59.5 89.5t18.5 117.5v254l-242 -10q-98 -4 -185 -17.5t-152.5 -44t-103.5 -89t-38 -150.5zM362 1382q0 84 49 129t121 45t121 -45t49 -129 t-48 -129t-122 -45t-122 45t-48 129zM403 1382q0 -68 37 -101.5t92 -33.5q57 0 93 33.5t36 101.5t-37 102t-92 34q-57 0 -93 -34t-36 -102z" />
<glyph unicode="&#xe6;" horiz-adv-x="1826" d="M92 295q0 104 42 168.5t112.5 101.5t163 51.5t194.5 18.5l244 10v51q0 86 -14.5 149.5t-51.5 106.5t-99 64.5t-161 21.5q-152 0 -232.5 -54t-107.5 -163l-39 8q25 121 120 185.5t263 64.5q96 0 163 -20.5t109 -61.5t62.5 -101t24.5 -140q47 160 157.5 241.5t266.5 81.5 q113 0 192.5 -41t128.5 -112.5t71.5 -169t22.5 -209.5v-35h-833q0 -111 25.5 -206t78 -160.5t130 -101.5t182.5 -36q145 0 234 64.5t118 177.5h41q-12 -55 -41 -106.5t-77 -90.5t-116.5 -62.5t-158.5 -23.5q-170 0 -277.5 88t-148.5 244q-12 -102 -74 -174 q-59 -68 -148.5 -109t-207.5 -41q-168 0 -263.5 84t-95.5 236zM137 295q0 -137 84 -208t236 -71q104 0 180 32t135 97q35 37 55.5 86.5t20.5 120.5v254l-238 -10q-98 -4 -183 -16.5t-150.5 -45t-102.5 -89t-37 -150.5zM891 551h790q0 104 -19.5 194.5t-63.5 155t-114.5 101 t-174.5 36.5q-186 0 -298 -121.5t-120 -365.5z" />
<glyph unicode="&#xe7;" horiz-adv-x="1091" d="M102 514q0 131 34 236.5t95.5 178t148.5 111.5t195 39q317 0 396 -338l-39 -8q-35 147 -121 226t-238 79q-109 0 -188.5 -38.5t-132.5 -108.5t-79 -165t-26 -208t26 -206t78 -160.5t131 -105.5t183 -38q166 0 262.5 92.5t120.5 243.5h41q-27 -174 -136.5 -275.5 t-287.5 -101.5h-17t-18 2l-24 -86q121 -2 163 -37.5t42 -91.5q0 -39 -16.5 -63.5t-44 -38.5t-66.5 -19.5t-82 -5.5q-70 0 -117 11v38q27 -4 53.5 -7t61.5 -3q76 0 123 16.5t47 73.5q0 47 -40 69.5t-147 22.5h-28l39 125q-180 23 -286 163t-106 378z" />
<glyph unicode="&#xe8;" horiz-adv-x="1091" d="M102 514q0 139 34 245.5t95.5 177.5t147.5 106.5t190 35.5q113 0 194 -41t131 -113.5t72.5 -169t22.5 -208.5v-35h-844q0 -115 27 -208t78 -158.5t131 -101.5t186 -36q145 0 236.5 64.5t120.5 177.5h41q-12 -57 -42 -108.5t-78 -89.5t-117 -61.5t-161 -23.5 q-225 0 -345 145.5t-120 401.5zM145 551h801q0 104 -19.5 192t-63.5 155t-118 103.5t-176 36.5q-190 0 -302.5 -123.5t-121.5 -363.5zM383 1462h55l231 -262h-49z" />
<glyph unicode="&#xe9;" horiz-adv-x="1091" d="M102 514q0 139 34 245.5t95.5 177.5t147.5 106.5t190 35.5q113 0 194 -41t131 -113.5t72.5 -169t22.5 -208.5v-35h-844q0 -115 27 -208t78 -158.5t131 -101.5t186 -36q145 0 236.5 64.5t120.5 177.5h41q-12 -57 -42 -108.5t-78 -89.5t-117 -61.5t-161 -23.5 q-225 0 -345 145.5t-120 401.5zM145 551h801q0 104 -19.5 192t-63.5 155t-118 103.5t-176 36.5q-190 0 -302.5 -123.5t-121.5 -363.5zM469 1200l231 262h55l-237 -262h-49z" />
<glyph unicode="&#xea;" horiz-adv-x="1091" d="M102 514q0 139 34 245.5t95.5 177.5t147.5 106.5t190 35.5q113 0 194 -41t131 -113.5t72.5 -169t22.5 -208.5v-35h-844q0 -115 27 -208t78 -158.5t131 -101.5t186 -36q145 0 236.5 64.5t120.5 177.5h41q-12 -57 -42 -108.5t-78 -89.5t-117 -61.5t-161 -23.5 q-225 0 -345 145.5t-120 401.5zM145 551h801q0 104 -19.5 192t-63.5 155t-118 103.5t-176 36.5q-190 0 -302.5 -123.5t-121.5 -363.5zM305 1200l228 262h41l227 -262h-49l-199 225l-199 -225h-49z" />
<glyph unicode="&#xeb;" horiz-adv-x="1091" d="M102 514q0 139 34 245.5t95.5 177.5t147.5 106.5t190 35.5q113 0 194 -41t131 -113.5t72.5 -169t22.5 -208.5v-35h-844q0 -115 27 -208t78 -158.5t131 -101.5t186 -36q145 0 236.5 64.5t120.5 177.5h41q-12 -57 -42 -108.5t-78 -89.5t-117 -61.5t-161 -23.5 q-225 0 -345 145.5t-120 401.5zM145 551h801q0 104 -19.5 192t-63.5 155t-118 103.5t-176 36.5q-190 0 -302.5 -123.5t-121.5 -363.5zM377 1274v188h43v-188h-43zM680 1274v188h43v-188h-43z" />
<glyph unicode="&#xec;" horiz-adv-x="346" d="M-59 1462h55l231 -262h-49zM152 0v1047h43v-1047h-43z" />
<glyph unicode="&#xed;" horiz-adv-x="346" d="M137 1200l231 262h55l-237 -262h-49zM152 0v1047h43v-1047h-43z" />
<glyph unicode="&#xee;" horiz-adv-x="346" d="M-66 1200l228 262h41l227 -262h-49l-199 225l-199 -225h-49zM152 0v1047h43v-1047h-43z" />
<glyph unicode="&#xef;" horiz-adv-x="346" d="M10 1274v188h43v-188h-43zM152 0v1047h43v-1047h-43zM313 1274v188h43v-188h-43z" />
<glyph unicode="&#xf0;" horiz-adv-x="1157" d="M102 485q0 123 36 220.5t99.5 163t152.5 100.5t196 35q129 0 231.5 -57.5t169.5 -180.5q-43 223 -144.5 362.5t-242.5 210.5l-162 -159l-28 28l151 150q-70 31 -145.5 48t-155.5 21l2 41q184 -12 332 -77l141 139l29 -29l-131 -129q211 -113 316.5 -337t105.5 -533 q0 -111 -30 -209t-88 -170t-146.5 -114t-206.5 -42q-119 0 -209 39t-150.5 107.5t-91.5 164t-31 207.5zM147 487q0 -90 24 -176t75 -153.5t132 -108.5t195 -41q113 0 196 40t136 104.5t79 148.5t26 174v39q0 92 -28 174t-83 143.5t-135 96.5t-184 35t-185.5 -36 t-136.5 -100.5t-83 -151.5t-28 -188z" />
<glyph unicode="&#xf1;" horiz-adv-x="1110" d="M152 0v1047h43v-187q78 113 188.5 166t228.5 53q176 0 264.5 -99t88.5 -280v-700h-43v692q0 168 -76 257t-238 89q-92 0 -173 -30.5t-152 -100.5q-31 -29 -48.5 -53.5t-26.5 -52t-11 -63.5t-2 -85v-653h-43zM246 1241q0 78 44 126t116 48q47 0 85.5 -21.5t71.5 -48 t69 -48t77 -21.5q33 0 55 12t36.5 32.5t20.5 44.5t6 46h41q0 -78 -44 -126t-115 -48q-47 0 -87 21.5t-72 48t-68 48t-76 21.5q-35 0 -57.5 -13t-36 -32.5t-19.5 -44t-6 -45.5h-41z" />
<glyph unicode="&#xf2;" horiz-adv-x="1157" d="M102 522q0 111 27 212.5t84 178t148.5 121.5t218.5 45t217 -45t147 -120.5t84 -176t27 -211.5q0 -113 -27 -214t-84 -178t-148 -122t-218 -45t-217.5 45t-147.5 121t-84 176.5t-27 212.5zM147 520q0 -102 24 -195.5t75 -164t133 -111.5t199 -41t199.5 42t134 112.5 t75 165t23.5 196.5t-23.5 195.5t-75 164t-134.5 112.5t-199 42q-117 0 -199 -42t-133 -113.5t-75 -166t-24 -196.5zM377 1462h55l231 -262h-49z" />
<glyph unicode="&#xf3;" horiz-adv-x="1157" d="M102 522q0 111 27 212.5t84 178t148.5 121.5t218.5 45t217 -45t147 -120.5t84 -176t27 -211.5q0 -113 -27 -214t-84 -178t-148 -122t-218 -45t-217.5 45t-147.5 121t-84 176.5t-27 212.5zM147 520q0 -102 24 -195.5t75 -164t133 -111.5t199 -41t199.5 42t134 112.5 t75 165t23.5 196.5t-23.5 195.5t-75 164t-134.5 112.5t-199 42q-117 0 -199 -42t-133 -113.5t-75 -166t-24 -196.5zM494 1200l231 262h55l-237 -262h-49z" />
<glyph unicode="&#xf4;" horiz-adv-x="1157" d="M102 522q0 111 27 212.5t84 178t148.5 121.5t218.5 45t217 -45t147 -120.5t84 -176t27 -211.5q0 -113 -27 -214t-84 -178t-148 -122t-218 -45t-217.5 45t-147.5 121t-84 176.5t-27 212.5zM147 520q0 -102 24 -195.5t75 -164t133 -111.5t199 -41t199.5 42t134 112.5 t75 165t23.5 196.5t-23.5 195.5t-75 164t-134.5 112.5t-199 42q-117 0 -199 -42t-133 -113.5t-75 -166t-24 -196.5zM329 1200l228 262h41l227 -262h-49l-199 225l-199 -225h-49z" />
<glyph unicode="&#xf5;" horiz-adv-x="1157" d="M102 522q0 111 27 212.5t84 178t148.5 121.5t218.5 45t217 -45t147 -120.5t84 -176t27 -211.5q0 -113 -27 -214t-84 -178t-148 -122t-218 -45t-217.5 45t-147.5 121t-84 176.5t-27 212.5zM147 520q0 -102 24 -195.5t75 -164t133 -111.5t199 -41t199.5 42t134 112.5 t75 165t23.5 196.5t-23.5 195.5t-75 164t-134.5 112.5t-199 42q-117 0 -199 -42t-133 -113.5t-75 -166t-24 -196.5zM266 1241q0 78 44 126t116 48q47 0 85.5 -21.5t71.5 -48t69 -48t77 -21.5q33 0 55 12t36.5 32.5t20.5 44.5t6 46h41q0 -78 -44 -126t-115 -48 q-47 0 -87 21.5t-72 48t-68 48t-76 21.5q-35 0 -57.5 -13t-36 -32.5t-19.5 -44t-6 -45.5h-41z" />
<glyph unicode="&#xf6;" horiz-adv-x="1157" d="M102 522q0 111 27 212.5t84 178t148.5 121.5t218.5 45t217 -45t147 -120.5t84 -176t27 -211.5q0 -113 -27 -214t-84 -178t-148 -122t-218 -45t-217.5 45t-147.5 121t-84 176.5t-27 212.5zM147 520q0 -102 24 -195.5t75 -164t133 -111.5t199 -41t199.5 42t134 112.5 t75 165t23.5 196.5t-23.5 195.5t-75 164t-134.5 112.5t-199 42q-117 0 -199 -42t-133 -113.5t-75 -166t-24 -196.5zM405 1274v188h43v-188h-43zM708 1274v188h43v-188h-43z" />
<glyph unicode="&#xf7;" d="M170 676v41h872v-41h-872zM584 231v179h45v-179h-45zM584 985v178h45v-178h-45z" />
<glyph unicode="&#xf8;" horiz-adv-x="1157" d="M102 522q0 111 27 212.5t84 178t148.5 121.5t218.5 45q92 0 163.5 -24.5t126.5 -67.5l93 139l32 -22l-96 -143q80 -78 118 -192t38 -243q0 -113 -27 -214t-84 -178t-148 -122t-218 -45q-88 0 -158 21.5t-123 60.5l-86 -131l-33 23l88 135q-86 78 -125 194.5t-39 251.5z M147 520q0 -123 33 -230.5t109 -178.5l557 841q-49 41 -115.5 63.5t-152.5 22.5q-117 0 -199 -42t-133 -113.5t-75 -166t-24 -196.5zM319 84q49 -35 113 -55.5t146 -20.5q117 0 199.5 42t134 112.5t75 165t23.5 196.5q0 119 -32 224.5t-101 177.5z" />
<glyph unicode="&#xf9;" horiz-adv-x="1089" d="M145 346v701h43v-693q0 -168 74 -257t232 -89q92 0 167.5 31t147.5 100q31 29 47 53.5t25.5 52t11.5 63.5t2 85v654h43v-1047h-43v188q-76 -113 -183.5 -167t-224.5 -54q-174 0 -258 100.5t-84 278.5zM336 1462h55l231 -262h-49z" />
<glyph unicode="&#xfa;" horiz-adv-x="1089" d="M145 346v701h43v-693q0 -168 74 -257t232 -89q92 0 167.5 31t147.5 100q31 29 47 53.5t25.5 52t11.5 63.5t2 85v654h43v-1047h-43v188q-76 -113 -183.5 -167t-224.5 -54q-174 0 -258 100.5t-84 278.5zM465 1200l231 262h55l-237 -262h-49z" />
<glyph unicode="&#xfb;" horiz-adv-x="1089" d="M145 346v701h43v-693q0 -168 74 -257t232 -89q92 0 167.5 31t147.5 100q31 29 47 53.5t25.5 52t11.5 63.5t2 85v654h43v-1047h-43v188q-76 -113 -183.5 -167t-224.5 -54q-174 0 -258 100.5t-84 278.5zM297 1200l228 262h41l227 -262h-49l-199 225l-199 -225h-49z" />
<glyph unicode="&#xfc;" horiz-adv-x="1089" d="M145 346v701h43v-693q0 -168 74 -257t232 -89q92 0 167.5 31t147.5 100q31 29 47 53.5t25.5 52t11.5 63.5t2 85v654h43v-1047h-43v188q-76 -113 -183.5 -167t-224.5 -54q-174 0 -258 100.5t-84 278.5zM369 1274v188h43v-188h-43zM672 1274v188h43v-188h-43z" />
<glyph unicode="&#xfd;" horiz-adv-x="956" d="M20 1047h46l434 -986l393 986h43l-494 -1235q-39 -96 -91 -152.5t-148 -56.5q-35 0 -64.5 5t-58.5 15l10 37q23 -8 53.5 -13t59.5 -5q66 0 112.5 39.5t90.5 144.5l75 184zM377 1200l231 262h55l-237 -262h-49z" />
<glyph unicode="&#xfe;" horiz-adv-x="1161" d="M152 -397v1859h43v-657q47 123 150.5 198.5t260.5 75.5q113 0 199 -42t142.5 -115.5t84 -175t27.5 -222.5q0 -141 -35 -245.5t-97.5 -174t-147.5 -103.5t-185 -34q-139 0 -245.5 64.5t-153.5 195.5v-624h-43zM193 469q0 -45 5 -93t18 -96.5t36.5 -93.5t60.5 -82 q47 -47 121 -71.5t160 -24.5q195 0 307.5 132t112.5 384q0 117 -26.5 211t-78 162t-127 104.5t-176.5 36.5q-178 0 -284 -104q-70 -70 -99.5 -158t-29.5 -192v-115z" />
<glyph unicode="&#xff;" horiz-adv-x="956" d="M20 1047h46l434 -986l393 986h43l-494 -1235q-39 -96 -91 -152.5t-148 -56.5q-35 0 -64.5 5t-58.5 15l10 37q23 -8 53.5 -13t59.5 -5q66 0 112.5 39.5t90.5 144.5l75 184zM313 1274v188h43v-188h-43zM616 1274v188h43v-188h-43z" />
<glyph unicode="&#x152;" horiz-adv-x="2222" d="M123 729q0 166 38 306.5t112.5 243.5t189.5 161.5t260 58.5q111 0 201 -33.5t158.5 -95t116.5 -146.5t77 -190v428h840v-43h-795v-643h754v-43h-754v-690h811l-14 -43h-842v424q-29 -104 -77 -191.5t-117.5 -147.5t-158.5 -93t-200 -33q-150 0 -262.5 59.5t-187 163 t-112.5 243.5t-38 304zM170 729q0 -158 35 -291t103.5 -229t172 -151.5t242.5 -55.5q137 0 241.5 54.5t173 151.5t103.5 230t35 291v31q-4 150 -41 277.5t-105.5 221t-170 145.5t-236.5 52t-239.5 -54t-174 -151.5t-104.5 -231.5t-35 -290z" />
<glyph unicode="&#x153;" horiz-adv-x="1978" d="M102 522q0 111 27 212.5t83 178t145 121.5t216 45q98 0 175 -29.5t131.5 -82t89.5 -124t51 -153.5q39 193 154.5 291t285.5 98q113 0 193 -41t129 -112.5t71.5 -169t22.5 -209.5v-35h-834q0 -115 26 -208t78 -158.5t130 -101.5t182 -36q150 0 237 65.5t115 176.5h41 q-12 -55 -40.5 -106.5t-76.5 -90.5t-117 -62.5t-159 -23.5q-186 0 -295.5 102.5t-142.5 282.5q-16 -82 -51 -152.5t-90.5 -121.5t-131 -81t-174.5 -30q-127 0 -216 45t-145 121t-83 176.5t-27 212.5zM147 520q0 -102 23 -195.5t74 -164t132 -111.5t197 -41q117 0 198 42 t131 112.5t73.5 165t23.5 196.5t-23.5 195.5t-73.5 164t-131 112.5t-198 42t-197.5 -42t-131.5 -113.5t-74 -166t-23 -196.5zM1042 551h791q0 104 -19.5 194.5t-63.5 155t-115 101t-175 36.5q-186 0 -297.5 -123.5t-120.5 -363.5z" />
<glyph unicode="&#x178;" horiz-adv-x="1140" d="M51 1462h51l469 -782l469 782h50l-496 -825v-637h-45v633zM385 1628v189h45v-189h-45zM710 1628v189h45v-189h-45z" />
<glyph unicode="&#x2c6;" horiz-adv-x="776" d="M139 1200l228 262h41l227 -262h-49l-199 225l-199 -225h-49z" />
<glyph unicode="&#x2dc;" horiz-adv-x="776" d="M76 1241q0 78 44 126t116 48q47 0 85.5 -21.5t71.5 -48t69 -48t77 -21.5q33 0 55 12t36.5 32.5t20.5 44.5t6 46h41q0 -78 -44 -126t-115 -48q-47 0 -87 21.5t-72 48t-68 48t-76 21.5q-35 0 -57.5 -13t-36 -32.5t-19.5 -44t-6 -45.5h-41z" />
<glyph unicode="&#x2000;" horiz-adv-x="918" />
<glyph unicode="&#x2001;" horiz-adv-x="1837" />
<glyph unicode="&#x2002;" horiz-adv-x="918" />
<glyph unicode="&#x2003;" horiz-adv-x="1837" />
<glyph unicode="&#x2004;" horiz-adv-x="612" />
<glyph unicode="&#x2005;" horiz-adv-x="459" />
<glyph unicode="&#x2006;" horiz-adv-x="306" />
<glyph unicode="&#x2007;" horiz-adv-x="306" />
<glyph unicode="&#x2008;" horiz-adv-x="229" />
<glyph unicode="&#x2009;" horiz-adv-x="367" />
<glyph unicode="&#x200a;" horiz-adv-x="102" />
<glyph unicode="&#x2010;" horiz-adv-x="792" d="M102 569v41h588v-41h-588z" />
<glyph unicode="&#x2011;" horiz-adv-x="792" d="M102 569v41h588v-41h-588z" />
<glyph unicode="&#x2012;" horiz-adv-x="792" d="M102 569v41h588v-41h-588z" />
<glyph unicode="&#x2013;" horiz-adv-x="1024" d="M0 573v41h1024v-41h-1024z" />
<glyph unicode="&#x2014;" horiz-adv-x="2048" d="M0 573v41h2048v-41h-2048z" />
<glyph unicode="&#x2018;" horiz-adv-x="321" d="M102 1087l78 375h39l-69 -375h-48z" />
<glyph unicode="&#x2019;" horiz-adv-x="321" d="M102 1087l70 375h47l-78 -375h-39z" />
<glyph unicode="&#x201a;" horiz-adv-x="331" d="M104 -176l70 375h47l-78 -375h-39z" />
<glyph unicode="&#x201c;" horiz-adv-x="552" d="M102 1087l78 375h39l-69 -375h-48zM333 1087l78 375h39l-69 -375h-48z" />
<glyph unicode="&#x201d;" horiz-adv-x="552" d="M102 1087l70 375h47l-78 -375h-39zM333 1087l70 375h47l-78 -375h-39z" />
<glyph unicode="&#x201e;" horiz-adv-x="563" d="M104 -176l70 375h47l-78 -375h-39zM335 -176l70 375h47l-78 -375h-39z" />
<glyph unicode="&#x2022;" horiz-adv-x="585" d="M92 748q0 86 57.5 141t143.5 55t143.5 -55t57.5 -141t-57.5 -141.5t-143.5 -55.5t-143.5 55.5t-57.5 141.5z" />
<glyph unicode="&#x2026;" horiz-adv-x="1359" d="M143 0v199h43v-199h-43zM657 0v199h43v-199h-43zM1171 0v199h43v-199h-43z" />
<glyph unicode="&#x202f;" horiz-adv-x="367" />
<glyph unicode="&#x2039;" horiz-adv-x="532" d="M82 524l301 455h47l-299 -453l299 -456h-47z" />
<glyph unicode="&#x203a;" horiz-adv-x="532" d="M102 70l299 452l-299 457h48l301 -455l-301 -454h-48z" />
<glyph unicode="&#x205f;" horiz-adv-x="459" />
<glyph unicode="&#x20ac;" d="M29 528l12 39h129q-2 29 -3 56.5t-1 56.5q0 45 2 90t6 92h-145l12 39h139q14 106 48 206.5t92.5 177.5t147.5 123t208 46q104 0 178 -32.5t124 -86t79.5 -120t44.5 -132.5l-41 -10q-16 70 -46 132.5t-76 107.5t-110.5 71.5t-152.5 26.5q-113 0 -193 -42t-133 -112.5 t-82.5 -163t-44.5 -192.5h602l-12 -39h-594q-4 -47 -6 -80.5t-2 -99.5v-47.5t2 -67.5h551l-12 -39h-535q10 -102 37 -196t79 -167t133 -116t200 -43q100 0 173.5 32t123 85t79 122.5t43.5 151.5h41q-12 -96 -47 -176t-92 -137t-137 -89t-184 -32q-129 0 -218.5 47 t-146.5 125t-88 180.5t-41 212.5h-143z" />
<glyph unicode="&#x2122;" horiz-adv-x="1785" d="M41 1421v41h633v-41h-295v-778h-43v778h-295zM815 643v819h57l347 -762l346 762h57v-819h-43v752l-342 -752h-37l-342 752v-752h-43z" />
<glyph unicode="&#xe000;" horiz-adv-x="1044" d="M0 0v1044h1044v-1044h-1044z" />
</font>
</defs>
</svg>
