<?xml version="1.0" standalone="no"?>
<!DOCTYPE svg PUBLIC "-//W3C//DTD SVG 1.1//EN" "http://www.w3.org/Graphics/SVG/1.1/DTD/svg11.dtd" >
<svg xmlns="http://www.w3.org/2000/svg">
<metadata></metadata>
<defs>
<font id="aktiv_groteskhairline_italic" horiz-adv-x="1212" >
<font-face units-per-em="2048" ascent="1651" descent="-397" />
<missing-glyph horiz-adv-x="460" />
<glyph unicode="&#xfb01;" horiz-adv-x="987" d="M125 0l213 1006h-162l8 41h162l33 151q18 82 48 135t70 86t87 46.5t100 13.5q37 0 68.5 -6.5t62.5 -16.5l-14 -39q-25 10 -53.5 15.5t-65.5 5.5q-106 0 -168.5 -56.5t-91.5 -187.5l-33 -147h326l-8 -41h-326l-213 -1006h-43zM713 0l219 1047h43l-221 -1047h-41zM981 1274 l39 188h43l-39 -188h-43z" />
<glyph unicode="&#xfb02;" horiz-adv-x="995" d="M125 0l213 1006h-162l8 41h162l33 151q18 82 48 135t70 86t87 46.5t100 13.5q37 0 68.5 -6.5t62.5 -16.5l-14 -39q-25 10 -53.5 15.5t-65.5 5.5q-106 0 -168.5 -56.5t-91.5 -187.5l-33 -147h326l-8 -41h-326l-213 -1006h-43zM717 0l309 1462h43l-309 -1462h-43z" />
<glyph unicode="&#xfb03;" horiz-adv-x="1603" d="M125 0l213 1006h-162l8 41h162l33 151q18 82 48 135t70 86t87 46.5t100 13.5q37 0 68.5 -6.5t62.5 -16.5l-14 -39q-25 10 -53.5 15.5t-65.5 5.5q-106 0 -168.5 -56.5t-91.5 -187.5l-33 -147h326l-8 -41h-326l-213 -1006h-43zM741 0l213 1006h-162l8 41h162l33 151 q18 82 48 135t70 86t87 46.5t100 13.5q37 0 68.5 -6.5t62.5 -16.5l-14 -39q-25 10 -53.5 15.5t-65.5 5.5q-106 0 -168.5 -56.5t-91.5 -187.5l-33 -147h326l-8 -41h-326l-213 -1006h-43zM1329 0l219 1047h43l-221 -1047h-41zM1597 1274l39 188h43l-39 -188h-43z" />
<glyph unicode="&#xfb04;" horiz-adv-x="1611" d="M125 0l213 1006h-162l8 41h162l33 151q18 82 48 135t70 86t87 46.5t100 13.5q37 0 68.5 -6.5t62.5 -16.5l-14 -39q-25 10 -53.5 15.5t-65.5 5.5q-106 0 -168.5 -56.5t-91.5 -187.5l-33 -147h326l-8 -41h-326l-213 -1006h-43zM741 0l213 1006h-162l8 41h162l33 151 q18 82 48 135t70 86t87 46.5t100 13.5q37 0 68.5 -6.5t62.5 -16.5l-14 -39q-25 10 -53.5 15.5t-65.5 5.5q-106 0 -168.5 -56.5t-91.5 -187.5l-33 -147h326l-8 -41h-326l-213 -1006h-43zM1334 0l309 1462h43l-309 -1462h-43z" />
<glyph unicode="&#xd;" horiz-adv-x="460" />
<glyph horiz-adv-x="0" />
<glyph horiz-adv-x="0" />
<glyph unicode=" "  horiz-adv-x="460" />
<glyph unicode="&#x09;" horiz-adv-x="460" />
<glyph unicode="&#xa0;" horiz-adv-x="460" />
<glyph unicode="!" horiz-adv-x="393" d="M94 0l39 188h45l-39 -188h-45zM172 365l231 1097h46l-236 -1097h-41z" />
<glyph unicode="&#x22;" horiz-adv-x="507" d="M221 987l96 467h48l-105 -467h-39zM497 987l96 467h48l-105 -467h-39z" />
<glyph unicode="#" d="M18 397l9 41h262l196 518h-252l9 41h258l149 392h43l-149 -392h463l149 392h43l-149 -392h256l-9 -41h-262l-196 -518h249l-8 -41h-256l-151 -397h-45l151 397h-461l-151 -397h-45l151 397h-254zM332 438h463l196 518h-463z" />
<glyph unicode="$" d="M104 340h43q8 -84 34 -141.5t69 -96.5t101.5 -60.5t129.5 -27.5l148 701l-43 10q-162 37 -240 113.5t-78 218.5q0 98 34 172t95.5 125t146.5 76.5t185 25.5h24.5t32.5 -2l33 150h41l-33 -156q84 -12 143.5 -43t100.5 -77t66.5 -102.5t40.5 -117.5l-41 -10q-14 55 -37 106 t-57.5 92t-90 71t-135.5 40l-139 -659l53 -13q178 -41 251 -124t73 -222q0 -94 -31 -172t-92.5 -134t-155.5 -88t-219 -32h-17t-30 2l-37 -180h-41l39 182q-74 8 -138.5 30.5t-113.5 67t-79.5 112t-35.5 163.5zM313 1059q0 -123 66.5 -190.5t216.5 -102.5l43 -10l139 655 q-20 2 -29.5 2h-21.5q-197 0 -305.5 -95t-108.5 -259zM520 10h41q211 0 329 94.5t118 280.5q0 121 -63.5 195.5t-225.5 113.5l-51 11z" />
<glyph unicode="%" horiz-adv-x="1751" d="M186 899q0 80 21.5 175t68.5 178t123 139.5t186 56.5q131 0 212 -87t81 -237q0 -80 -21.5 -176t-68.5 -179t-123 -138.5t-186 -55.5q-131 0 -212 87t-81 237zM231 901q0 -72 19.5 -125t53 -89t79 -53.5t96.5 -17.5q98 0 165.5 51.5t109.5 128t60.5 165t18.5 161.5 q0 72 -19.5 125t-53 89t-79 53.5t-96.5 17.5q-98 0 -165.5 -51t-109.5 -128t-60.5 -165t-18.5 -162zM405 0l1024 1415h51l-1024 -1415h-51zM1006 270q0 80 21.5 175t68.5 178t123 139.5t186 56.5q131 0 212 -87t81 -237q0 -80 -21.5 -176t-68.5 -179t-123 -138.5t-186 -55.5 q-131 0 -212 87t-81 237zM1051 272q0 -72 19.5 -125t53 -89t79 -53.5t96.5 -17.5q98 0 165.5 51.5t109.5 128t60.5 165t18.5 161.5q0 72 -19.5 125t-53 89t-79 53.5t-96.5 17.5q-98 0 -165.5 -51t-109.5 -128t-60.5 -165t-18.5 -162z" />
<glyph unicode="&#x26;" horiz-adv-x="1241" d="M90 315q0 94 34 166t94.5 130.5t143 109.5t181.5 104q-68 100 -92.5 181t-24.5 149q0 76 25.5 133.5t67.5 95t99.5 57t118.5 19.5q119 0 187.5 -67.5t68.5 -178.5q0 -72 -28.5 -127t-81 -101t-124 -88t-157.5 -87l389 -596q131 166 156 447h43q-12 -147 -55 -269.5 t-119 -214.5l117 -178h-52l-96 145q-82 -86 -196.5 -132t-262.5 -46q-129 0 -213 33t-133 84t-69.5 112.5t-20.5 118.5zM135 315q0 -59 20.5 -112t67.5 -97.5t122.5 -70t184.5 -25.5q272 0 433 170l-400 611q-111 -59 -191.5 -112.5t-134 -109t-78 -117t-24.5 -137.5z M471 1139q0 -55 18.5 -116.5t90.5 -176.5q94 49 163.5 90t115.5 82t67.5 86t21.5 106q0 98 -56 152.5t-161 54.5q-55 0 -102 -16.5t-82 -50t-55.5 -85.5t-20.5 -126z" />
<glyph unicode="'" horiz-adv-x="231" d="M221 987l96 467h48l-105 -467h-39z" />
<glyph unicode="(" horiz-adv-x="442" d="M141 236q0 164 30 330.5t87 329.5t143 316.5t197 290.5h45q-225 -295 -340 -621.5t-115 -654.5q0 -123 19.5 -242.5t60.5 -238.5h-41q-43 113 -64.5 239t-21.5 251z" />
<glyph unicode=")" horiz-adv-x="442" d="M-96 -254q225 295 339.5 621.5t114.5 654.5q0 123 -19.5 242.5t-59.5 238.5h40q43 -113 65 -238.5t22 -250.5q0 -164 -30 -331t-87.5 -330t-143.5 -316.5t-196 -290.5h-45z" />
<glyph unicode="*" horiz-adv-x="690" d="M254 1245l14 35l228 -100l57 282h41l-64 -282l261 96l12 -33l-273 -96l127 -234l-36 -20l-117 233l-213 -237l-31 29l219 231z" />
<glyph unicode="+" d="M211 676l10 41h436l99 463h43l-99 -463h435l-11 -41h-434l-98 -465h-43l98 465h-436z" />
<glyph unicode="," horiz-adv-x="331" d="M-16 -176l149 375h49l-157 -375h-41z" />
<glyph unicode="-" horiz-adv-x="792" d="M143 569l9 41h587l-8 -41h-588z" />
<glyph unicode="." horiz-adv-x="331" d="M61 0l43 199h46l-44 -199h-45z" />
<glyph unicode="/" horiz-adv-x="563" d="M-51 0l776 1503h47l-776 -1503h-47z" />
<glyph unicode="0" d="M135 465q0 92 16.5 201.5t50.5 220t86 212t124.5 180.5t171 127t215.5 48q197 0 306 -129t109 -373q0 -92 -15 -199.5t-50 -221t-87 -214t-126 -180.5t-170 -127t-215 -47q-199 0 -307.5 130t-108.5 372zM182 469q0 -227 95.5 -345t271.5 -118q115 0 206 46t158.5 124 t116.5 176.5t79 202.5t44 206.5t14 186.5q0 229 -95 346t-271 117q-111 0 -204 -46t-160.5 -124t-117 -176t-79 -202.5t-44 -207t-14.5 -186.5z" />
<glyph unicode="1" d="M430 1176l444 239h48l-299 -1415h-45l292 1366l-424 -225z" />
<glyph unicode="2" d="M100 0l11 45l464 348q135 100 240 183t176.5 163t108.5 161t37 179q0 70 -20.5 130.5t-63.5 105.5t-107.5 70.5t-150.5 25.5q-84 0 -154 -24.5t-125 -67.5t-93 -103.5t-58 -132.5l-43 9q14 61 51 125.5t95 116.5t140 86t189 34q100 0 172.5 -30.5t120 -82t71 -119 t23.5 -141.5q0 -106 -43 -197t-121 -177t-186.5 -172t-239.5 -185l-412 -307h819l-18 -43h-883z" />
<glyph unicode="3" d="M152 334v24h45v-8q0 -88 30.5 -151.5t85 -105.5t125 -62.5t152.5 -20.5q98 0 176 31t132 86t83 131t29 168q0 143 -70 219t-195 76h-217l9 43h161q197 0 305.5 94t108.5 252q0 145 -91 223t-255 78q-170 0 -278.5 -85t-149.5 -230l-43 10q16 63 52 125.5t93.5 113 t140.5 80t187 29.5t180 -28.5t122 -77t67.5 -109.5t21.5 -129q0 -80 -26.5 -143.5t-69.5 -109.5t-99.5 -74.5t-113.5 -37.5q66 -18 106.5 -55t63 -84t31 -97t8.5 -89q0 -94 -32 -177t-93.5 -145.5t-149.5 -98.5t-198 -36q-84 0 -162 21.5t-138.5 67.5t-97 116t-36.5 166z " />
<glyph unicode="4" d="M119 401l8 43l924 971h51l-205 -971h213l-18 -43h-203l-86 -401h-45l86 401h-725zM182 444h670l190 906z" />
<glyph unicode="5" d="M164 322v12h43q2 -94 34.5 -156.5t85 -100.5t119 -54.5t136.5 -16.5q123 0 209 42t141 110.5t80.5 155.5t25.5 175q0 168 -87 262.5t-263 94.5q-113 0 -202 -41t-167 -113h-49l201 723h715l-10 -43h-674l-174 -627q70 63 160 103.5t204 40.5q100 0 175 -30t123 -83 t71.5 -125.5t23.5 -158.5q0 -98 -29.5 -192.5t-91 -169.5t-156.5 -121t-224 -46q-80 0 -155 19.5t-134 61.5t-95 110.5t-36 167.5z" />
<glyph unicode="6" d="M180 446q0 90 15.5 201t48 222.5t85 217t127 187.5t173 131t223.5 49q154 0 242 -80t106 -221l-41 -8q-23 135 -97.5 200.5t-215.5 65.5q-106 0 -204.5 -48t-181.5 -149.5t-143.5 -256t-87.5 -367.5q59 145 182.5 223t288.5 78q100 0 176 -31t124.5 -85t72 -127 t23.5 -159q0 -100 -31 -194t-93.5 -169t-155.5 -119t-216 -44q-92 0 -158.5 24.5t-113.5 65.5q-74 61 -111 154.5t-37 238.5zM227 387q0 -74 21.5 -142.5t67.5 -121.5t118 -85t170 -32q106 0 189.5 39t140.5 105.5t86 153.5t29 183q0 82 -21.5 148.5t-64.5 114t-110 73 t-159 25.5q-111 0 -197.5 -37t-146 -100.5t-91.5 -147.5t-32 -176z" />
<glyph unicode="7" d="M305 1372l8 43h922l-8 -43q-254 -330 -468 -673t-386 -699h-54q172 346 384 690t471 682h-869z" />
<glyph unicode="8" d="M96 315q0 164 107.5 271.5t318.5 134.5q-127 37 -187.5 122t-60.5 201q0 92 34 167t98.5 129.5t156.5 84t207 29.5q111 0 190.5 -26.5t130 -73.5t75 -111.5t24.5 -140.5q0 -158 -99.5 -262.5t-269.5 -132.5q147 -35 213 -121t66 -207q0 -188 -144.5 -301t-400.5 -113 q-127 0 -214 26.5t-141.5 74t-79 112t-24.5 137.5zM143 319q0 -66 20.5 -122t69 -98t127 -66.5t193.5 -24.5q240 0 370 99.5t130 267.5q0 68 -22.5 126t-72 100t-127 66.5t-188.5 24.5q-240 0 -370 -100t-130 -273zM322 1047q0 -68 21.5 -125.5t67.5 -99.5t116.5 -65.5 t170.5 -23.5q205 0 325 100.5t120 268.5q0 66 -20.5 122t-66.5 98t-118 65.5t-172 23.5q-205 0 -324.5 -99.5t-119.5 -264.5z" />
<glyph unicode="9" d="M158 285h43q18 -135 104 -207t234 -72q113 0 212 47t176 148.5t126 260.5t65 384q-55 -154 -180 -237t-297 -83q-102 0 -176 31t-123 84t-72.5 127t-23.5 160q0 100 30.5 194.5t93 168t155.5 118.5t216 45q88 0 157 -24.5t116 -65.5q39 -33 66.5 -71t46 -87t26.5 -114.5 t8 -151.5q0 -96 -11 -204.5t-39 -217t-74 -209t-115.5 -178.5t-166 -123t-218.5 -45q-170 0 -267.5 86t-111.5 236zM293 930q0 -168 88 -264.5t266 -96.5q111 0 198 37t146.5 100.5t91 147.5t31.5 176q0 74 -21.5 142.5t-67.5 122t-117.5 85t-170.5 31.5q-109 0 -190.5 -39 t-139 -105.5t-86 -153.5t-28.5 -183z" />
<glyph unicode=":" horiz-adv-x="331" d="M63 0l43 199h46l-44 -199h-45zM243 858l43 199h46l-44 -199h-45z" />
<glyph unicode=";" horiz-adv-x="331" d="M-26 -176l149 375h49l-157 -375h-41zM243 858l43 199h46l-44 -199h-45z" />
<glyph unicode="&#x3c;" d="M219 676l8 35l994 465l-11 -50l-929 -436l745 -434l-10 -43z" />
<glyph unicode="=" d="M182 444l8 41h873l-8 -41h-873zM281 907l8 41h872l-8 -41h-872z" />
<glyph unicode="&#x3e;" d="M121 213l10 49l930 436l-746 435l11 43l796 -463l-8 -35z" />
<glyph unicode="?" horiz-adv-x="1001" d="M227 1130q109 356 455 357q96 0 164.5 -25.5t114 -69.5t66 -102t20.5 -121q0 -76 -26 -138t-67 -114.5t-92 -96.5t-102 -83q-61 -47 -108.5 -86t-80 -79t-54 -84t-34.5 -103l-4 -20h-45l2 12q12 70 37 123t65 99t92 88t118 91q129 96 191 190.5t62 202.5q0 131 -85 202 t-238 71q-156 0 -255 -79t-155 -245zM356 0l39 188h45l-39 -188h-45z" />
<glyph unicode="@" horiz-adv-x="1845" d="M121 340q0 209 64.5 394.5t183 322.5t286.5 217t373 80q141 0 276.5 -42t241 -131t170 -230.5t64.5 -336.5q0 -123 -28 -235.5t-80 -199.5t-128 -137t-172 -50q-86 0 -137 42t-51 124v20t2 21q-59 -113 -148.5 -166t-201.5 -53q-152 0 -238 91t-86 265q0 111 35 215 t97.5 185t150.5 129t192 48q121 0 198 -64.5t97 -178.5l47 219h43l-143 -672q-6 -29 -6 -51q0 -63 38.5 -98t110.5 -35q84 0 150.5 45t113.5 124t73 184.5t26 223.5q0 193 -62.5 328t-163 217t-227.5 120t-256 38q-197 0 -356.5 -77t-271 -209t-172 -310t-60.5 -379 q0 -199 57.5 -337t157.5 -225t235.5 -126t290.5 -39q119 0 210 20.5t161 55t121 81t92 97.5h45q-106 -156 -261 -225.5t-366 -69.5q-168 0 -312 44t-249.5 137t-166 238.5t-60.5 350.5zM557 338q0 -88 21.5 -149.5t58.5 -98.5t88 -54.5t111 -17.5q143 0 246.5 96.5 t148.5 307.5l18 88q4 16 6 38.5t2 45.5q0 53 -17 104.5t-52 90t-85 62t-118 23.5q-86 0 -164 -40.5t-136 -113.5t-93 -171t-35 -211z" />
<glyph unicode="A" horiz-adv-x="1304" d="M-29 0l883 1462h51l266 -1462h-49l-86 483h-723l-288 -483h-54zM338 526h690l-158 885z" />
<glyph unicode="B" horiz-adv-x="1251" d="M94 0l309 1462h431q86 0 157.5 -16t123.5 -53t81 -96.5t29 -143.5q0 -66 -19.5 -128t-64.5 -114.5t-118 -90.5t-177 -52q141 -25 215 -114t74 -228q0 -84 -29 -160t-95.5 -136t-177 -95t-270.5 -35h-469zM147 43h420q135 0 234.5 27.5t162 77t93 119t30.5 155.5 q0 158 -94 240.5t-291 82.5h-405zM305 788h373q96 0 186 17.5t161 59.5t113 112t42 174q0 59 -17.5 108.5t-60.5 85t-115 55t-180 19.5h-367z" />
<glyph unicode="C" horiz-adv-x="1402" d="M170 575q0 168 48 334t141.5 297t233.5 212t316 81q215 0 344 -121t152 -340l-43 -6q-25 211 -142.5 317.5t-310.5 106.5q-160 0 -291 -72.5t-220 -197.5t-135 -280.5t-46 -323.5q0 -283 129 -429.5t373 -146.5q117 0 209 32t160.5 88t114.5 132t73 164h43 q-27 -102 -78 -186t-127 -144.5t-175 -94.5t-220 -34q-264 0 -406.5 160t-142.5 452z" />
<glyph unicode="D" horiz-adv-x="1406" d="M94 0l309 1462h394q125 0 232.5 -34.5t186 -107.5t122.5 -186.5t44 -271.5q0 -162 -49 -314.5t-150.5 -276.5t-260 -197.5t-365.5 -73.5h-463zM147 43h420q182 0 326.5 64.5t242 175t148.5 259t51 316.5q0 145 -37.5 250.5t-109.5 175.5t-172.5 102.5t-227.5 32.5h-350z " />
<glyph unicode="E" horiz-adv-x="1173" d="M94 0l309 1462h891l-8 -43h-846l-137 -643h805l-8 -43h-805l-148 -690h861l-17 -43h-897z" />
<glyph unicode="F" horiz-adv-x="1103" d="M94 0l309 1462h838l-8 -43h-795l-141 -659h750l-9 -43h-749l-152 -717h-43z" />
<glyph unicode="G" horiz-adv-x="1406" d="M172 584q0 160 45 322.5t138.5 296.5t233.5 215t322 81q197 0 317 -100.5t156 -288.5l-43 -10q-35 180 -144.5 268t-287.5 88q-170 0 -302 -75.5t-218 -200.5t-128 -280t-42 -310q0 -147 37 -257t104.5 -182.5t162.5 -108.5t212 -36q84 0 156 16.5t128 41t97 51t64 45.5 l102 477h-444l8 43h489l-114 -541q-29 -25 -76 -55.5t-108.5 -57t-140.5 -45t-167 -18.5q-119 0 -220 37t-176 112.5t-118 193.5t-43 278z" />
<glyph unicode="H" horiz-adv-x="1378" d="M94 0l309 1462h46l-144 -682h936l143 682h46l-310 -1462h-45l156 737h-936l-156 -737h-45z" />
<glyph unicode="I" horiz-adv-x="397" d="M94 0l309 1462h46l-310 -1462h-45z" />
<glyph unicode="J" horiz-adv-x="1155" d="M63 350v20.5v30.5h43v-39q0 -74 18.5 -138t62.5 -112.5t116 -77t180 -28.5q209 0 319.5 115t158.5 340l210 1001h46l-218 -1020q-51 -240 -172.5 -359.5t-345.5 -119.5q-211 0 -314.5 106.5t-103.5 280.5z" />
<glyph unicode="K" horiz-adv-x="1275" d="M94 0l309 1462h43l-178 -846l1075 846h62l-700 -553l440 -909h-47l-426 883l-418 -328l-117 -555h-43z" />
<glyph unicode="L" horiz-adv-x="1120" d="M94 0l309 1462h46l-302 -1419h836l-16 -43h-873z" />
<glyph unicode="M" horiz-adv-x="1662" d="M94 0l309 1462h54l303 -1405l899 1405h55l-309 -1462h-43l295 1386l-887 -1386h-41l-297 1386l-295 -1386h-43z" />
<glyph unicode="N" horiz-adv-x="1380" d="M94 0l309 1462h52l635 -1407l296 1407h46l-310 -1462h-53l-633 1401l-297 -1401h-45z" />
<glyph unicode="O" horiz-adv-x="1507" d="M168 580q0 174 55.5 339.5t155.5 294.5t246.5 207t318.5 78q129 0 230.5 -44t169 -125t103.5 -194.5t36 -252.5q0 -176 -54.5 -341t-154.5 -294t-246.5 -207t-320.5 -78q-129 0 -229.5 44t-169 125t-104.5 195t-36 253zM215 580q0 -268 132 -421t364 -153q162 0 297 73 t230 195.5t146.5 280.5t51.5 328q0 274 -134.5 423.5t-361.5 149.5q-162 0 -297 -72.5t-230.5 -195.5t-146.5 -281.5t-51 -326.5z" />
<glyph unicode="P" horiz-adv-x="1224" d="M94 0l309 1462h406q125 0 211 -30.5t136 -82t71.5 -119t21.5 -143.5q0 -117 -44 -203.5t-121.5 -145t-182 -87t-223.5 -28.5h-408l-131 -623h-45zM281 666h403q109 0 203 25.5t164.5 77.5t110.5 131t40 185q0 168 -99 251t-302 83h-361z" />
<glyph unicode="Q" horiz-adv-x="1507" d="M168 580q0 174 54 337.5t155.5 294.5t248 209t318.5 78q129 0 230.5 -44t169 -125t103.5 -194.5t36 -252.5q0 -117 -23.5 -229.5t-70 -214t-113 -187.5t-150.5 -150l134 -221l-39 -22l-131 219q-82 -53 -177.5 -84t-205.5 -31q-129 0 -229.5 44t-169 125t-104.5 195 t-36 253zM215 580q0 -270 133 -422t363 -152q102 0 190 27.5t166 81.5l-162 274l39 23l160 -271q78 59 139.5 141.5t104.5 178.5t65.5 203.5t22.5 218.5q0 274 -134.5 423.5t-361.5 149.5q-162 0 -298 -73.5t-230.5 -195.5t-145.5 -280.5t-51 -326.5z" />
<glyph unicode="R" horiz-adv-x="1255" d="M94 0l309 1462h459q119 0 200 -28.5t128 -75.5t67.5 -111.5t20.5 -134.5q0 -90 -27.5 -161.5t-78 -124t-121 -87t-154.5 -49.5l174 -690h-47l-170 682q-55 -6 -113 -6h-458l-144 -676h-45zM291 719h461q102 0 190 23.5t152.5 71.5t100.5 122t36 174q0 150 -89 229.5 t-284 79.5h-418z" />
<glyph unicode="S" horiz-adv-x="1236" d="M102 340h41q6 -90 39 -153.5t89.5 -103.5t134 -58.5t172.5 -18.5q236 0 361.5 104.5t125.5 286.5q0 123 -62.5 201t-216.5 113l-182 39q-72 14 -133 40.5t-105 67.5t-69 98.5t-25 137.5t28 152.5t88.5 130t153.5 90t222 32.5q209 0 320.5 -92t140.5 -258l-43 -8 q-16 76 -47 134t-81 99t-122 61.5t-170 20.5q-123 0 -208 -29.5t-137 -80t-76 -115t-24 -133.5q0 -127 73 -200t220 -103l185 -39q90 -18 151.5 -53t98 -81.5t52 -103t15.5 -119.5q0 -203 -141.5 -319.5t-397.5 -116.5q-98 0 -184 20.5t-148.5 65.5t-99.5 117t-39 174z" />
<glyph unicode="T" horiz-adv-x="1167" d="M260 1419l8 43h1086l-8 -43h-521l-301 -1419h-45l301 1419h-520z" />
<glyph unicode="U" horiz-adv-x="1372" d="M190 367q0 96 25 206l188 889h46l-191 -899q-22 -102 -22 -185v-7q0 -82 21.5 -148.5t70.5 -115t126.5 -75t190.5 -26.5q131 0 221 35t151.5 105.5t101.5 174t69 242.5l190 899h45l-194 -917q-35 -160 -82 -270.5t-115.5 -179t-165 -100.5t-225.5 -32q-123 0 -208 28.5 t-139 82t-79 127t-25 166.5z" />
<glyph unicode="V" horiz-adv-x="1255" d="M281 1462h47l227 -1409l823 1409h54l-859 -1462h-55z" />
<glyph unicode="W" horiz-adv-x="1777" d="M289 1462h45l76 -1396l680 1390h51l84 -1395l671 1401h48l-703 -1462h-53l-86 1395l-676 -1395h-53z" />
<glyph unicode="X" horiz-adv-x="1226" d="M-41 0l703 766l-355 696h53l332 -661l606 661h60l-645 -702l389 -760h-53l-367 725l-664 -725h-59z" />
<glyph unicode="Y" horiz-adv-x="1140" d="M279 1462h49l301 -780l635 780h53l-670 -825l-135 -637h-45l133 633z" />
<glyph unicode="Z" horiz-adv-x="1185" d="M6 0l8 39l1217 1380h-920l8 43h981l-8 -39l-1216 -1380h944l-23 -43h-991z" />
<glyph unicode="[" horiz-adv-x="518" d="M29 -254l372 1757h324l-10 -41h-281l-354 -1675h280l-10 -41h-321z" />
<glyph unicode="\" horiz-adv-x="563" d="M268 1503h41l142 -1503h-43z" />
<glyph unicode="]" horiz-adv-x="518" d="M-104 -254l10 41h278l355 1675h-281l10 41h324l-375 -1757h-321z" />
<glyph unicode="^" d="M217 637l594 803h43l254 -803h-43l-238 760l-561 -760h-49z" />
<glyph unicode="_" horiz-adv-x="1024" d="M-143 -293l8 41h1024l-8 -41h-1024z" />
<glyph unicode="`" horiz-adv-x="776" d="M475 1462h49l176 -262h-43z" />
<glyph unicode="a" horiz-adv-x="1046" d="M74 252q0 104 45 176t125 116t190.5 66.5t243.5 26.5l235 8l7 31q8 35 12 68.5t4 60.5q-2 123 -75 179t-236 56q-139 0 -226.5 -45t-134.5 -157l-41 6q25 70 66 116t95 72.5t115.5 37.5t129.5 11q178 0 263 -67.5t85 -204.5q0 -59 -16 -137l-142 -672h-43l45 213 q-66 -109 -179.5 -173.5t-260.5 -64.5q-152 0 -229.5 70t-77.5 207zM121 252q0 -119 64.5 -177.5t201.5 -58.5q104 0 185 32t139.5 84t95.5 121t53 144l45 209l-229 -8q-291 -10 -423 -93t-132 -253z" />
<glyph unicode="b" horiz-adv-x="1161" d="M72 0l309 1462h43l-141 -667q35 61 77.5 112t96 90t120 60.5t148.5 21.5q180 0 278.5 -109.5t98.5 -310.5q0 -135 -41 -260t-117 -221t-181.5 -153.5t-234.5 -57.5q-145 0 -241.5 72t-120.5 209l-51 -248h-43zM199 332q0 -92 28 -156q35 -80 113 -124t192 -44 q119 0 216.5 54.5t166 145.5t105.5 207.5t37 241.5q0 193 -89 287t-245 94q-106 0 -189 -42t-149 -115q-53 -61 -91 -141.5t-58 -172.5l-21 -90q-8 -39 -12 -74.5t-4 -70.5z" />
<glyph unicode="c" horiz-adv-x="1091" d="M125 416q0 133 40 252.5t112.5 212t175 145.5t225.5 53q90 0 155.5 -28.5t108.5 -75.5t65.5 -107.5t28.5 -126.5l-41 -6q-6 59 -24.5 112.5t-56 96.5t-96 68.5t-142.5 25.5q-117 0 -211 -52t-159.5 -139t-100.5 -198.5t-35 -234.5q0 -195 91 -300.5t276 -105.5 q94 0 160.5 25.5t112.5 68.5t74.5 96.5t47.5 108.5h43q-51 -164 -158.5 -252t-279.5 -88q-201 0 -306.5 118t-105.5 331z" />
<glyph unicode="d" horiz-adv-x="1161" d="M119 387q0 135 41 260t116.5 221.5t182 153.5t233.5 57q145 0 241.5 -71.5t121.5 -208.5l139 663h43l-309 -1462h-43l53 252q-35 -61 -78 -112.5t-96 -90.5t-119.5 -60.5t-148.5 -21.5q-180 0 -278.5 109.5t-98.5 310.5zM164 389q0 -188 87 -284.5t247 -96.5 q106 0 189 43t147 115q111 127 151 313l21 90q10 39 13 75t3 71q0 92 -29 155q-35 80 -112.5 124t-192.5 44q-119 0 -216 -55t-165.5 -145t-105.5 -207t-37 -242z" />
<glyph unicode="e" horiz-adv-x="1091" d="M121 420q0 145 43 267t116.5 209t172 135t209.5 48q92 0 161.5 -32.5t116.5 -89t71.5 -134.5t24.5 -166q0 -31 -3 -67.5t-7 -65.5l-2 -12h-856q-2 -23 -3 -46.5t-1 -45.5q0 -205 94 -308.5t281 -103.5q88 0 149.5 21.5t104.5 55.5t71.5 77t48.5 88h43 q-18 -49 -48.5 -99.5t-80 -91.5t-121 -66.5t-171.5 -25.5q-201 0 -307.5 115t-106.5 338zM172 551h815q4 23 6 49.5t2 54.5q0 76 -20.5 145.5t-62.5 123t-105.5 84t-149.5 30.5q-92 0 -173 -35.5t-145.5 -101t-107.5 -155t-59 -195.5z" />
<glyph unicode="f" horiz-adv-x="616" d="M125 0l213 1006h-162l8 41h162l33 151q18 82 48 135t70 86t87 46.5t100 13.5q37 0 68.5 -6.5t62.5 -16.5l-14 -39q-25 10 -53.5 15.5t-65.5 5.5q-106 0 -168.5 -56.5t-91.5 -187.5l-33 -147h326l-8 -41h-326l-213 -1006h-43z" />
<glyph unicode="g" horiz-adv-x="1161" d="M51 -135h39q10 -131 92 -188.5t248 -57.5q92 0 167 18.5t131 63.5t95 120t64 185l61 297q-35 -61 -78 -112.5t-97 -90.5t-120.5 -60.5t-148.5 -21.5q-182 0 -279.5 104.5t-97.5 295.5q0 125 41 244.5t114.5 213t178 149.5t231.5 56q143 0 240.5 -71.5t122.5 -208.5 l51 246h43l-221 -1047q-23 -100 -58.5 -178t-95 -132.5t-144.5 -82t-204 -27.5q-104 0 -175 21.5t-115 60.5t-63.5 90t-21.5 113zM172 422q0 -180 87 -271.5t247 -91.5q109 0 191.5 43t146.5 115q53 61 93 136t58 167l11 51q10 39 13 75t3 71q0 92 -29 155 q-35 80 -109.5 124t-191.5 44q-119 0 -215 -52t-163.5 -139t-104.5 -198.5t-37 -228.5z" />
<glyph unicode="h" horiz-adv-x="1110" d="M70 0l309 1462h43l-127 -604q53 61 111.5 104.5t117 69t115.5 36.5t106 11q143 0 217 -79.5t74 -215.5q0 -66 -14 -129l-139 -655h-43l139 657q14 63 14 123q0 121 -64.5 189.5t-191.5 68.5q-86 0 -175 -32.5t-161 -92.5q-39 -33 -63.5 -59.5t-40.5 -58t-28.5 -75.5 t-26.5 -112l-129 -608h-43z" />
<glyph unicode="i" horiz-adv-x="346" d="M72 0l219 1047h43l-221 -1047h-41zM340 1274l39 188h43l-39 -188h-43z" />
<glyph unicode="j" horiz-adv-x="346" d="M-338 -338l19 37q20 -12 64 -25.5t89 -13.5q88 0 137 51t74 166l248 1170h43l-246 -1162q-29 -139 -89 -202.5t-167 -63.5q-51 0 -99 14.5t-73 28.5zM342 1274l39 188h43l-39 -188h-43z" />
<glyph unicode="k" horiz-adv-x="976" d="M70 0l309 1462h43l-211 -999l778 586h64l-475 -357l296 -692h-47l-282 668l-346 -262l-86 -406h-43z" />
<glyph unicode="l" horiz-adv-x="346" d="M70 0l309 1462h43l-309 -1462h-43z" />
<glyph unicode="m" horiz-adv-x="1724" d="M70 0l221 1047h43l-39 -189q102 127 204.5 174t194.5 47q121 0 188.5 -70.5t75.5 -191.5q31 51 76 98.5t100.5 84t120 58t131.5 21.5q127 0 196 -78.5t69 -214.5q0 -66 -15 -131l-139 -655h-43l139 657q14 66 15 131q0 117 -57.5 183.5t-172.5 66.5q-164 0 -301 -131 q-31 -29 -52 -56.5t-36.5 -61t-28 -74.5t-24.5 -99l-131 -616h-43l139 657q8 35 11 69t3 62q0 117 -57 183.5t-172 66.5q-164 0 -301 -131q-33 -31 -55.5 -60.5t-38 -62t-25.5 -73.5t-22 -95l-131 -616h-43z" />
<glyph unicode="n" horiz-adv-x="1110" d="M70 0l221 1047h43l-39 -189q53 61 111.5 104.5t117 69t115.5 36.5t106 11q141 0 216 -78.5t75 -216.5q0 -66 -14 -129l-139 -655h-43l139 657q14 63 14 123q0 121 -64.5 189.5t-191.5 68.5q-86 0 -175 -32.5t-161 -92.5q-39 -33 -63.5 -59.5t-40.5 -58t-28.5 -75.5 t-26.5 -112l-129 -608h-43z" />
<glyph unicode="o" horiz-adv-x="1157" d="M123 420q0 131 39 249.5t112.5 210t178 145.5t235.5 54q195 0 298.5 -120.5t103.5 -331.5q0 -131 -39 -250t-112 -210t-178.5 -145.5t-236.5 -54.5q-195 0 -298 121t-103 332zM168 420q0 -193 90 -302.5t268 -109.5q123 0 219.5 51.5t163 137.5t101 197.5t34.5 232.5 q0 193 -90 302t-268 109q-123 0 -220 -52t-162.5 -138t-100.5 -197.5t-35 -230.5z" />
<glyph unicode="p" horiz-adv-x="1161" d="M-14 -397l305 1444h43l-53 -252q35 61 77.5 112t96 90t120 60.5t148.5 21.5q178 0 277.5 -109.5t99.5 -312.5q0 -133 -41 -258t-117 -221t-181.5 -153.5t-234.5 -57.5q-150 0 -245 74t-117 207l-135 -645h-43zM197 332q0 -92 28 -156q35 -80 113 -124t192 -44 q119 0 216.5 54.5t166 146.5t105.5 207.5t37 240.5q0 190 -88 285.5t-246 95.5q-102 0 -186 -42t-150 -115q-111 -127 -152 -314l-20 -90q-10 -39 -13 -74.5t-3 -70.5z" />
<glyph unicode="q" horiz-adv-x="1161" d="M119 389q0 135 41 260t116.5 221.5t182 153.5t233.5 57q147 0 243.5 -73.5t119.5 -206.5l51 246h43l-305 -1444h-43l137 651q-35 -61 -78 -112.5t-96 -90.5t-119.5 -60.5t-148.5 -21.5q-180 0 -278.5 109.5t-98.5 310.5zM164 391q0 -190 88 -285.5t246 -95.5 q106 0 188 42t148 116q111 127 151 313l21 90q10 39 13 75t3 71q0 92 -29 155q-35 80 -113.5 124t-191.5 44q-119 0 -216 -55t-165.5 -145t-105.5 -207t-37 -242z" />
<glyph unicode="r" horiz-adv-x="675" d="M70 0l221 1047h43l-39 -185q35 37 79 73t95 64.5t111.5 46t119.5 17.5q25 0 44.5 -2t35.5 -6l-12 -41q-35 6 -70 6q-76 0 -142.5 -24.5t-125.5 -65.5q-53 -35 -83 -64.5t-49 -65.5t-30.5 -79t-23.5 -105l-131 -616h-43z" />
<glyph unicode="s" horiz-adv-x="1017" d="M86 274h41q4 -78 35 -129t82 -81.5t112.5 -43t126.5 -12.5q178 0 270.5 76t92.5 199q0 96 -58.5 150t-158.5 73l-127 24q-59 12 -111.5 30t-92.5 47.5t-62.5 73.5t-22.5 105q0 74 29.5 129.5t84 92t125 54t154.5 17.5q102 0 171 -23.5t110 -60.5t62.5 -83t27.5 -89 l-41 -6q-23 115 -103.5 168t-230.5 53q-160 0 -252 -62.5t-92 -187.5q0 -53 18.5 -89.5t52 -61.5t77 -39t96.5 -25l137 -26q51 -10 96 -29.5t80 -51.5t55.5 -77t20.5 -104q0 -74 -28.5 -132.5t-82 -100.5t-128 -63.5t-165.5 -21.5q-66 0 -136 13.5t-130.5 48t-97.5 96 t-37 149.5z" />
<glyph unicode="t" horiz-adv-x="651" d="M150 174q0 33 10 80l159 752h-161l8 41h162l61 294h43l-61 -294h354l-8 -41h-355l-157 -746q-10 -47 -10 -82q0 -76 39.5 -115.5t125.5 -39.5q43 0 83 9t75 23l12 -41q-25 -10 -73.5 -23.5t-102.5 -13.5q-98 0 -151 52.5t-53 144.5z" />
<glyph unicode="u" horiz-adv-x="1089" d="M131 260q0 66 14 131l140 656h43l-140 -658q-14 -63 -14 -125q0 -121 62.5 -188.5t187.5 -67.5q84 0 169 33t157 92q39 33 61.5 58.5t38.5 58.5t28.5 77t26.5 111l129 609h43l-221 -1047h-43l39 188q-53 -63 -108.5 -105t-113 -67.5t-112.5 -37t-104 -11.5 q-137 0 -210 78t-73 215z" />
<glyph unicode="v" horiz-adv-x="956" d="M160 1047h45l194 -992l631 992h45l-663 -1047h-45z" />
<glyph unicode="w" horiz-adv-x="1390" d="M166 1047h43l80 -996l520 991h47l102 -993l500 998h45l-524 -1047h-55l-99 995l-524 -995h-49z" />
<glyph unicode="x" horiz-adv-x="903" d="M-61 0l528 551l-272 496h45l256 -467l446 467h51l-479 -500l301 -547h-45l-285 518l-495 -518h-51z" />
<glyph unicode="y" horiz-adv-x="956" d="M-59 -373l12 35q29 -10 56.5 -15t56.5 -5q35 0 60.5 9t51 31.5t50 58.5t57.5 89l114 186l-239 1031h45l223 -981l602 981h45l-756 -1235q-39 -63 -68.5 -103.5t-59 -64t-60.5 -32.5t-70 -9q-33 0 -59.5 6t-60.5 18z" />
<glyph unicode="z" horiz-adv-x="901" d="M-18 0l6 29l878 977h-669l8 41h729l-8 -33l-875 -973h713l-16 -41h-766z" />
<glyph unicode="{" horiz-adv-x="530" d="M109 604l10 41h10q80 0 119 37t53 106l113 533q18 92 66 137t138 45h121l-10 -41h-127q-61 0 -98 -38t-47 -97l-113 -534q-18 -84 -52 -122t-85 -50q33 -10 52.5 -40t19.5 -75q0 -25 -7 -49l-112 -535q-2 -10 -3 -18t-1 -21q0 -43 23.5 -69.5t68.5 -26.5h127l-10 -41 h-121q-61 0 -97 35t-36 96q0 23 6 51l112 533q2 10 3 22.5t1 22.5q0 45 -26.5 71.5t-87.5 26.5h-10z" />
<glyph unicode="|" horiz-adv-x="395" d="M43 -254l373 1757h43l-375 -1757h-41z" />
<glyph unicode="}" horiz-adv-x="530" d="M-104 -254l10 41h127q61 0 98 38t47 97l113 535q18 84 52 121.5t85 50.5q-33 10 -52.5 39.5t-19.5 74.5q0 25 6 50l113 534q2 10 3 18.5t1 20.5q0 43 -23.5 69.5t-68.5 26.5h-127l10 41h121q61 0 97 -34.5t36 -96.5q0 -23 -6 -51l-112 -533q-2 -10 -3.5 -22t-1.5 -23 q0 -45 27 -71.5t88 -26.5h10l-10 -41h-10q-80 0 -119 -37t-53 -106l-113 -533q-18 -92 -66.5 -137t-138.5 -45h-120z" />
<glyph unicode="~" d="M174 555q16 90 47 147.5t68 87t75.5 41t71.5 11.5q53 0 96 -20.5t78 -51.5t67 -65.5t65.5 -65.5t71.5 -51.5t87 -20.5q31 0 63.5 10.5t63.5 38t54.5 74.5t37.5 123h43q-16 -90 -47 -146.5t-67.5 -87t-76.5 -42t-73 -11.5q-53 0 -95 20.5t-78 51.5t-67.5 65.5t-64.5 65.5 t-72 51.5t-86 20.5q-31 0 -63.5 -10.5t-63 -38t-55.5 -76.5t-37 -121h-43z" />
<glyph unicode="&#xa1;" horiz-adv-x="393" d="M4 -416l236 1098h41l-232 -1098h-45zM274 858l39 189h45l-39 -189h-45z" />
<glyph unicode="&#xa2;" d="M201 586q0 133 42 252.5t117.5 211t182 145.5t235.5 54l37 166h41l-37 -168q84 -6 144.5 -36.5t100.5 -77t61.5 -103.5t27.5 -119l-41 -6q-6 53 -23.5 105.5t-53.5 94.5t-90 69.5t-134 33.5l-219 -1032h39q98 0 167.5 25.5t119 67.5t80 96.5t51.5 111.5h43 q-53 -160 -164 -250t-297 -90h-47l-33 -155h-41l35 161q-174 23 -259 139.5t-85 303.5zM246 586q0 -170 74.5 -277.5t232.5 -128.5l217 1030q-123 -2 -220 -54t-165 -139t-103.5 -198.5t-35.5 -232.5z" />
<glyph unicode="&#xa3;" d="M100 0l6 43q72 61 132.5 122.5t103.5 129t66.5 145.5t23.5 172v36t-2 36h-197l9 39h184q-8 72 -17.5 140.5t-9.5 146.5q0 76 20.5 154.5t69 143t131 105.5t205.5 41q160 0 244 -78t117 -235l-45 -11q-16 74 -41 127.5t-62 87t-89 50t-126 16.5q-98 0 -168.5 -29.5 t-116.5 -83t-69 -127t-23 -161.5q0 -80 10.5 -146.5t16.5 -140.5h465l-8 -39h-453q0 -16 1 -33.5t1 -36.5q0 -96 -22.5 -175t-63.5 -147.5t-97 -129t-126 -119.5h846l-17 -43h-899z" />
<glyph unicode="&#xa4;" d="M160 252l139 127q-61 94 -61 246q0 123 43 237.5t133 200.5l-72 115l35 24l67 -112q57 43 128 68.5t157 25.5q98 0 175 -35t122 -100l150 137l26 -33l-153 -141q23 -43 36 -99.5t13 -121.5q0 -125 -46 -245t-137 -202l78 -121l-35 -24l-77 118q-55 -41 -123 -63.5 t-152 -22.5q-186 0 -282 115l-138 -127zM283 625q0 -168 84 -260.5t241 -92.5q113 0 197 45t139 120t82 166t27 188q0 168 -85 260t-241 92q-109 0 -195 -45t-141 -120t-81.5 -167t-26.5 -186z" />
<glyph unicode="&#xa5;" d="M176 387l8 39h406l45 211l-33 78h-356l8 39h332l-283 661h47l314 -735l624 735h53l-565 -661h344l-8 -39h-369l-61 -74l-47 -215h416l-9 -39h-415l-82 -387h-45l82 387h-406z" />
<glyph unicode="&#xa6;" horiz-adv-x="395" d="M43 -254l152 723h43l-154 -723h-41zM268 815l148 688h43l-148 -688h-43z" />
<glyph unicode="&#xa7;" horiz-adv-x="999" d="M45 55h41q10 -53 35.5 -101t67.5 -81t107.5 -52.5t160.5 -19.5q340 0 340 260q0 33 -7.5 67t-28 65.5t-56 58.5t-93.5 45l-184 59q-135 43 -203.5 108.5t-68.5 176.5q0 51 15 102.5t50 94.5t89.5 71.5t129.5 34.5q-57 27 -92 57.5t-54.5 64.5t-25.5 67.5t-6 64.5 q0 59 20.5 112.5t66.5 95.5t119 66.5t177 24.5q113 0 187.5 -27.5t118.5 -70.5t67.5 -95.5t32.5 -99.5l-41 -8q-10 49 -35 98t-66 84t-106.5 56.5t-159.5 21.5q-96 0 -160.5 -21.5t-103.5 -57.5t-55.5 -81t-16.5 -94q0 -84 46 -143.5t145 -91.5l168 -56 q141 -47 205.5 -112.5t64.5 -171.5q0 -121 -74 -204t-203 -99q57 -23 92 -52.5t55.5 -64.5t28 -72t7.5 -72q0 -150 -99.5 -226.5t-285.5 -76.5q-111 0 -185.5 25t-122 67t-72 95t-32.5 108zM201 647q0 -41 11 -76.5t39 -66.5t74 -57.5t117 -51.5l56 -18q55 -20 118 -21 q55 0 104.5 17.5t87.5 50.5t60.5 83t22.5 116q0 41 -11.5 76.5t-39 66.5t-73.5 57.5t-118 50.5l-55 19q-29 10 -59.5 15t-59.5 5q-55 0 -105.5 -17t-87 -51t-59 -84t-22.5 -114z" />
<glyph unicode="&#xa8;" horiz-adv-x="776" d="M406 1274l38 188h43l-38 -188h-43zM709 1274l39 188h43l-39 -188h-43z" />
<glyph unicode="&#xa9;" horiz-adv-x="1597" d="M174 731q0 166 54.5 301t149.5 230.5t222 147.5t272 52q154 0 282 -52t220 -147.5t142.5 -230.5t50.5 -301t-54.5 -301t-147.5 -230.5t-220.5 -147.5t-272.5 -52q-154 0 -282.5 52t-221 147.5t-143.5 230.5t-51 301zM219 731q0 -158 48 -285t134 -217t206 -139t265 -49 q135 0 254 49t207 139t138.5 217t50.5 285q0 156 -47.5 284t-133.5 218t-205.5 139t-263.5 49q-135 0 -254.5 -49t-207.5 -139t-139.5 -218t-51.5 -284zM522 729q0 111 29 190.5t79 132t116.5 78t144.5 25.5q68 0 120 -19.5t89 -54t60.5 -81t35.5 -99.5l-41 -8 q-12 49 -31.5 88t-52.5 69.5t-77 47t-103 16.5q-147 0 -235.5 -98t-88.5 -287q0 -184 85 -282.5t233 -98.5q68 0 118 20.5t83.5 54.5t53 77t25.5 90h41q-16 -125 -98 -204t-223 -79q-78 0 -144.5 26.5t-114.5 79t-76 132.5t-28 184z" />
<glyph unicode="&#xaa;" horiz-adv-x="837" d="M215 889q0 78 33 131t93 87t143 50.5t184 20.5l176 6l4 22q10 57 10 92q0 86 -52 124t-175 38q-102 0 -168 -30.5t-101 -112.5l-38 6q39 98 115.5 137t191.5 39q139 0 202.5 -50t63.5 -151q0 -45 -12 -100l-103 -496h-41l31 150q-53 -72 -134 -120t-194 -48 q-229 2 -229 205zM258 891q0 -80 44 -124t144 -44q92 0 156 27.5t106 70.5t64.5 93.5t32.5 93.5l31 139l-170 -6q-219 -8 -313.5 -69.5t-94.5 -180.5z" />
<glyph unicode="&#xab;" horiz-adv-x="886" d="M109 524l397 455h51l-401 -459l200 -450h-45zM463 524l397 455h51l-401 -459l200 -450h-45z" />
<glyph unicode="&#xac;" d="M207 817l8 41h918l-113 -528h-43l104 487h-874z" />
<glyph unicode="&#xad;" horiz-adv-x="792" d="M143 569l9 41h587l-8 -41h-588z" />
<glyph unicode="&#xae;" horiz-adv-x="958" d="M225 1061q0 96 32 174t86 132t126 83t154 29q90 0 162.5 -29t125 -83t81 -132t28.5 -174t-32 -175t-86 -132.5t-125.5 -82t-153.5 -28.5q-88 0 -161 28.5t-125 83t-82 132.5t-30 174zM266 1061q0 -174 97.5 -276.5t259.5 -102.5q74 0 139 25.5t113.5 74.5t76 120 t27.5 159q0 174 -96.5 276.5t-259.5 102.5q-76 0 -140.5 -25.5t-112.5 -75t-76 -120t-28 -158.5zM479 862v414h178q63 0 98.5 -32t35.5 -85q0 -86 -82 -112l94 -185h-47l-88 176h-148v-176h-41zM520 1077h133q94 0 95 80q0 80 -95 80h-133v-160z" />
<glyph unicode="&#xaf;" horiz-adv-x="776" d="M346 1296l8 39h475l-8 -39h-475z" />
<glyph unicode="&#xb0;" horiz-adv-x="626" d="M221 1194q0 55 19.5 103.5t55.5 83t84 54t103 19.5t103.5 -19.5t84.5 -54t55 -83t19 -103.5t-19 -103.5t-55 -83t-84 -54t-104 -19.5q-55 0 -103 19.5t-84 54t-55.5 83t-19.5 103.5zM262 1194q0 -96 63.5 -158.5t157.5 -62.5t158 62.5t64 158.5q0 94 -63.5 157.5 t-158.5 63.5q-94 0 -157.5 -62.5t-63.5 -158.5z" />
<glyph unicode="&#xb1;" d="M66 0l10 41h913l-10 -41h-913zM209 676l10 41h436l99 463h43l-99 -463h435l-11 -41h-434l-98 -465h-43l98 465h-436z" />
<glyph unicode="&#xb2;" horiz-adv-x="843" d="M201 602l10 43l281 201q74 51 131 96t98 89t62.5 90t21.5 102q0 82 -46.5 133t-142.5 51t-158.5 -50t-88.5 -128l-39 10q8 35 29.5 71t57.5 67.5t86 51t115 19.5q113 0 172.5 -61.5t59.5 -159.5q0 -63 -24.5 -115.5t-69.5 -101.5t-110.5 -99.5t-145.5 -107.5l-221 -160 h466l-18 -41h-526z" />
<glyph unicode="&#xb3;" horiz-adv-x="843" d="M225 793v14h41q2 -96 66.5 -143.5t156.5 -47.5q113 0 177.5 64.5t64.5 167.5q0 82 -41 122t-115 40h-131l9 41h94q117 0 180.5 51t63.5 139q0 80 -51.5 123t-145.5 43q-98 0 -156.5 -45t-85.5 -123l-43 6q10 35 30.5 71t55.5 65.5t85 48t118 18.5q63 0 108.5 -16.5 t74 -44t42 -64.5t13.5 -76q0 -88 -54.5 -146.5t-126.5 -68.5q35 -10 58.5 -28.5t37 -44t19.5 -55.5t6 -58q0 -117 -76.5 -194t-207.5 -77q-51 0 -100.5 13.5t-85.5 40t-58.5 67.5t-22.5 97z" />
<glyph unicode="&#xb4;" horiz-adv-x="776" d="M416 1200l286 262h60l-293 -262h-53z" />
<glyph unicode="&#xb5;" horiz-adv-x="1097" d="M-14 -401l307 1448h43l-139 -658q-14 -63 -15 -125q0 -123 63.5 -189.5t186.5 -66.5q84 0 169 33t157 92q37 33 60.5 58.5t39.5 58.5t28.5 77t26.5 111l129 609h43l-221 -1047h-43l39 188q-51 -63 -107.5 -105t-113.5 -67.5t-112.5 -37t-102.5 -11.5q-119 0 -186.5 58.5 t-83.5 160.5l-125 -587h-43z" />
<glyph unicode="&#xb6;" horiz-adv-x="1044" d="M201 1024q0 90 32.5 169t105.5 139.5t188.5 95t281.5 34.5h301l-371 -1747h-41l363 1706h-281l-362 -1706h-41l207 979h-23q-102 0 -170.5 27t-110.5 72t-60.5 104t-18.5 127z" />
<glyph unicode="&#xb7;" horiz-adv-x="331" d="M237 666l43 199h46l-44 -199h-45z" />
<glyph unicode="&#xb8;" horiz-adv-x="776" d="M66 -360l8 36q57 -10 121 -10q37 0 70.5 3t58 12.5t40 28t15.5 46.5q0 47 -40 69.5t-130 22.5h-29l82 152h37l-59 -117q92 -4 136 -35.5t44 -89.5q0 -41 -18.5 -65.5t-49 -39.5t-71.5 -20.5t-86 -5.5q-41 0 -74 4t-55 9z" />
<glyph unicode="&#xb9;" horiz-adv-x="843" d="M379 1292l276 129h43l-174 -819h-43l162 768l-248 -115z" />
<glyph unicode="&#xba;" horiz-adv-x="890" d="M223 1016q0 96 30 183t86 153.5t137 106.5t181 40q147 0 227.5 -88t80.5 -244q0 -96 -30 -183t-86 -153.5t-137 -106.5t-182 -40q-147 0 -227 88t-80 244zM266 1018q0 -141 66.5 -218t199.5 -77q94 0 167 37t122 98.5t75 141t26 165.5q0 141 -67 218t-200 77 q-94 0 -166.5 -37t-122 -98t-75 -141t-25.5 -166z" />
<glyph unicode="&#xbb;" horiz-adv-x="886" d="M35 70l399 458l-198 451h45l202 -455l-397 -454h-51zM389 70l399 458l-198 451h45l202 -455l-397 -454h-51z" />
<glyph unicode="&#xbc;" horiz-adv-x="1800" d="M287 1288l276 129h43l-174 -819h-43l162 768l-248 -115zM405 0l1024 1415h51l-1024 -1415h-51zM1077 234l6 32l545 555h45l-117 -547h101l-19 -40h-90l-49 -232h-43l49 232h-428zM1145 274h368l103 480z" />
<glyph unicode="&#xbd;" horiz-adv-x="1800" d="M287 1288l276 129h43l-174 -819h-43l162 768l-248 -115zM336 0l1024 1415h51l-1024 -1415h-51zM1037 0l10 43l281 201q74 51 131 96t98 89t62.5 90t21.5 102q0 82 -46.5 133t-142.5 51t-158.5 -50t-88.5 -128l-39 10q8 35 29.5 71t57.5 67.5t86 51t115 19.5 q113 0 172.5 -61.5t59.5 -159.5q0 -63 -24.5 -115.5t-69.5 -101.5t-110.5 -99.5t-145.5 -107.5l-221 -160h466l-18 -41h-526z" />
<glyph unicode="&#xbe;" horiz-adv-x="1800" d="M219 789v14h41q2 -96 66.5 -143.5t156.5 -47.5q113 0 177.5 64.5t64.5 167.5q0 82 -41 122t-115 40h-131l9 41h94q117 0 180.5 51t63.5 139q0 80 -51.5 123t-145.5 43q-98 0 -156.5 -45t-85.5 -123l-43 6q10 35 30.5 71t55.5 65.5t85 48t118 18.5q63 0 108.5 -16.5 t74 -44t42 -64.5t13.5 -76q0 -88 -54.5 -146.5t-126.5 -68.5q35 -10 58.5 -28.5t37 -44t19.5 -55.5t6 -58q0 -117 -76.5 -194t-207.5 -77q-51 0 -100.5 13.5t-85.5 40t-58.5 67.5t-22.5 97zM514 0l1024 1415h51l-1024 -1415h-51zM1077 234l6 32l545 555h45l-117 -547h101 l-19 -40h-90l-49 -232h-43l49 232h-428zM1145 274h368l103 480z" />
<glyph unicode="&#xbf;" horiz-adv-x="937" d="M-8 -123q0 72 25.5 136.5t66.5 115.5t92 96t103 84q61 47 107 86t80 78t55.5 84t33.5 105l4 20h45l-2 -12q-12 -72 -37.5 -125t-64.5 -98.5t-91.5 -87.5t-117.5 -91q-129 -96 -191.5 -190t-62.5 -203q0 -131 85 -201.5t238 -70.5q156 0 255.5 78.5t154.5 244.5l41 -10 q-109 -356 -455 -356q-96 0 -164.5 25.5t-113.5 69.5t-65.5 101.5t-20.5 120.5zM598 858l39 189h45l-39 -189h-45z" />
<glyph unicode="&#xc0;" horiz-adv-x="1304" d="M-29 0l883 1462h51l266 -1462h-49l-86 483h-723l-288 -483h-54zM338 526h690l-158 885zM754 1837h51l176 -252h-45z" />
<glyph unicode="&#xc1;" horiz-adv-x="1304" d="M-29 0l883 1462h51l266 -1462h-49l-86 483h-723l-288 -483h-54zM338 526h690l-158 885zM787 1585l286 252h64l-293 -252h-57z" />
<glyph unicode="&#xc2;" horiz-adv-x="1304" d="M-29 0l883 1462h51l266 -1462h-49l-86 483h-723l-288 -483h-54zM338 526h690l-158 885zM639 1585l281 252h45l170 -252h-47l-150 215l-243 -215h-56z" />
<glyph unicode="&#xc3;" horiz-adv-x="1304" d="M-29 0l883 1462h51l266 -1462h-49l-86 483h-723l-288 -483h-54zM338 526h690l-158 885zM570 1602q14 78 63 126t125 48q49 0 87 -20.5t69.5 -48.5t66.5 -48.5t78 -20.5q35 0 59.5 12.5t42 32t27.5 43t14 46.5h43q-14 -80 -64 -127.5t-124 -47.5q-51 0 -89 21.5 t-67.5 47.5t-64.5 47.5t-80 21.5q-35 0 -59.5 -12.5t-42 -32t-27.5 -43t-14 -45.5h-43z" />
<glyph unicode="&#xc4;" horiz-adv-x="1304" d="M-29 0l883 1462h51l266 -1462h-49l-86 483h-723l-288 -483h-54zM338 526h690l-158 885zM711 1628l39 189h45l-39 -189h-45zM1037 1628l38 189h46l-39 -189h-45z" />
<glyph unicode="&#xc5;" horiz-adv-x="1304" d="M-29 0l863 1430q-35 12 -62 36q-47 47 -47 129q0 84 48 129t122 45t122 -45t48 -129q0 -82 -49 -129q-41 -39 -105 -45l260 -1421h-49l-86 483h-723l-288 -483h-54zM338 526h690l-158 885zM768 1595q0 -66 36 -99.5t91 -33.5q57 0 92 33.5t35 99.5t-36 100t-91 34 q-57 0 -92 -34t-35 -100z" />
<glyph unicode="&#xc6;" horiz-adv-x="2052" d="M-29 0l1180 1462h1022l-8 -43h-793l-137 -643h752l-9 -43h-751l-148 -690h809l-16 -43h-846l115 547h-672l-440 -547h-58zM504 590h647l176 829h-156z" />
<glyph unicode="&#xc7;" horiz-adv-x="1402" d="M170 575q0 168 48 334t141.5 297t233.5 212t316 81q219 0 346 -122t150 -339l-43 -6q-23 213 -141.5 318.5t-311.5 105.5q-162 0 -292 -72.5t-219 -197.5t-135 -280.5t-46 -323.5q0 -283 129 -429.5t373 -146.5q117 0 209 32t160.5 88t114.5 132t73 164h43 q-27 -102 -78 -185t-125 -143.5t-171 -94.5t-214 -36l-57 -104q104 -4 150 -37t46 -90q0 -41 -18 -67.5t-51 -42t-75 -20.5t-87 -5q-41 0 -75 4t-56 8l8 37q57 -10 125 -11q37 0 70.5 3.5t60.5 13.5t42 27.5t15 48.5q0 47 -42 71.5t-146 24.5h-31l80 139q-254 10 -387 169 t-133 443z" />
<glyph unicode="&#xc8;" horiz-adv-x="1173" d="M94 0l309 1462h891l-8 -43h-846l-137 -643h805l-8 -43h-805l-148 -690h861l-17 -43h-897zM733 1837h51l176 -252h-45z" />
<glyph unicode="&#xc9;" horiz-adv-x="1173" d="M94 0l309 1462h891l-8 -43h-846l-137 -643h805l-8 -43h-805l-148 -690h861l-17 -43h-897zM750 1585l286 252h64l-293 -252h-57z" />
<glyph unicode="&#xca;" horiz-adv-x="1173" d="M94 0l309 1462h891l-8 -43h-846l-137 -643h805l-8 -43h-805l-148 -690h861l-17 -43h-897zM620 1585l281 252h45l170 -252h-47l-150 215l-243 -215h-56z" />
<glyph unicode="&#xcb;" horiz-adv-x="1173" d="M94 0l309 1462h891l-8 -43h-846l-137 -643h805l-8 -43h-805l-148 -690h861l-17 -43h-897zM688 1628l39 189h45l-39 -189h-45zM1014 1628l38 189h46l-39 -189h-45z" />
<glyph unicode="&#xcc;" horiz-adv-x="397" d="M94 0l309 1462h46l-310 -1462h-45zM287 1837h51l176 -252h-45z" />
<glyph unicode="&#xcd;" horiz-adv-x="397" d="M94 0l309 1462h46l-310 -1462h-45zM357 1585l286 252h64l-293 -252h-57z" />
<glyph unicode="&#xce;" horiz-adv-x="397" d="M94 0l309 1462h46l-310 -1462h-45zM207 1585l281 252h45l170 -252h-47l-150 215l-243 -215h-56z" />
<glyph unicode="&#xcf;" horiz-adv-x="397" d="M94 0l309 1462h46l-310 -1462h-45zM256 1628l39 189h45l-39 -189h-45zM582 1628l38 189h46l-39 -189h-45z" />
<glyph unicode="&#xd0;" horiz-adv-x="1419" d="M94 733l8 43h168l146 686h393q125 0 232.5 -34.5t186.5 -107.5t123 -186.5t44 -271.5q0 -162 -49.5 -315.5t-151.5 -276.5t-258 -196.5t-367 -73.5h-463l154 733h-166zM160 43h420q182 0 325.5 64.5t241.5 175t149.5 259t51.5 316.5q0 145 -38 250.5t-109 175.5 t-172 102.5t-228 32.5h-350l-138 -643h465l-8 -43h-465z" />
<glyph unicode="&#xd1;" horiz-adv-x="1380" d="M94 0l309 1462h52l635 -1407l296 1407h46l-310 -1462h-53l-633 1401l-297 -1401h-45zM621 1602q14 78 63 126t125 48q49 0 87 -20.5t69.5 -48.5t66.5 -48.5t78 -20.5q35 0 59.5 12.5t42 32t27.5 43t14 46.5h43q-14 -80 -64 -127.5t-124 -47.5q-51 0 -89 21.5t-67.5 47.5 t-64.5 47.5t-80 21.5q-35 0 -59.5 -12.5t-42 -32t-27.5 -43t-14 -45.5h-43z" />
<glyph unicode="&#xd2;" horiz-adv-x="1507" d="M168 580q0 174 55.5 339.5t155.5 294.5t246.5 207t318.5 78q129 0 230.5 -44t169 -125t103.5 -194.5t36 -252.5q0 -176 -54.5 -341t-154.5 -294t-246.5 -207t-320.5 -78q-129 0 -229.5 44t-169 125t-104.5 195t-36 253zM215 580q0 -268 132 -421t364 -153q162 0 297 73 t230 195.5t146.5 280.5t51.5 328q0 274 -134.5 423.5t-361.5 149.5q-162 0 -297 -72.5t-230.5 -195.5t-146.5 -281.5t-51 -326.5zM827 1837h51l176 -252h-45z" />
<glyph unicode="&#xd3;" horiz-adv-x="1507" d="M168 580q0 174 55.5 339.5t155.5 294.5t246.5 207t318.5 78q129 0 230.5 -44t169 -125t103.5 -194.5t36 -252.5q0 -176 -54.5 -341t-154.5 -294t-246.5 -207t-320.5 -78q-129 0 -229.5 44t-169 125t-104.5 195t-36 253zM215 580q0 -268 132 -421t364 -153q162 0 297 73 t230 195.5t146.5 280.5t51.5 328q0 274 -134.5 423.5t-361.5 149.5q-162 0 -297 -72.5t-230.5 -195.5t-146.5 -281.5t-51 -326.5zM844 1585l286 252h64l-293 -252h-57z" />
<glyph unicode="&#xd4;" horiz-adv-x="1507" d="M168 580q0 174 55.5 339.5t155.5 294.5t246.5 207t318.5 78q129 0 230.5 -44t169 -125t103.5 -194.5t36 -252.5q0 -176 -54.5 -341t-154.5 -294t-246.5 -207t-320.5 -78q-129 0 -229.5 44t-169 125t-104.5 195t-36 253zM215 580q0 -268 132 -421t364 -153q162 0 297 73 t230 195.5t146.5 280.5t51.5 328q0 274 -134.5 423.5t-361.5 149.5q-162 0 -297 -72.5t-230.5 -195.5t-146.5 -281.5t-51 -326.5zM727 1585l281 252h45l170 -252h-47l-150 215l-243 -215h-56z" />
<glyph unicode="&#xd5;" horiz-adv-x="1507" d="M168 580q0 174 55.5 339.5t155.5 294.5t246.5 207t318.5 78q129 0 230.5 -44t169 -125t103.5 -194.5t36 -252.5q0 -176 -54.5 -341t-154.5 -294t-246.5 -207t-320.5 -78q-129 0 -229.5 44t-169 125t-104.5 195t-36 253zM215 580q0 -268 132 -421t364 -153q162 0 297 73 t230 195.5t146.5 280.5t51.5 328q0 274 -134.5 423.5t-361.5 149.5q-162 0 -297 -72.5t-230.5 -195.5t-146.5 -281.5t-51 -326.5zM639 1602q14 78 63 126t125 48q49 0 87 -20.5t69.5 -48.5t66.5 -48.5t78 -20.5q35 0 59.5 12.5t42 32t27.5 43t14 46.5h43q-14 -80 -64 -127.5 t-124 -47.5q-51 0 -89 21.5t-67.5 47.5t-64.5 47.5t-80 21.5q-35 0 -59.5 -12.5t-42 -32t-27.5 -43t-14 -45.5h-43z" />
<glyph unicode="&#xd6;" horiz-adv-x="1507" d="M168 580q0 174 55.5 339.5t155.5 294.5t246.5 207t318.5 78q129 0 230.5 -44t169 -125t103.5 -194.5t36 -252.5q0 -176 -54.5 -341t-154.5 -294t-246.5 -207t-320.5 -78q-129 0 -229.5 44t-169 125t-104.5 195t-36 253zM215 580q0 -268 132 -421t364 -153q162 0 297 73 t230 195.5t146.5 280.5t51.5 328q0 274 -134.5 423.5t-361.5 149.5q-162 0 -297 -72.5t-230.5 -195.5t-146.5 -281.5t-51 -326.5zM776 1628l39 189h45l-39 -189h-45zM1102 1628l38 189h46l-39 -189h-45z" />
<glyph unicode="&#xd7;" d="M205 334l442 364l-291 371l31 27l291 -371l457 375l24 -33l-454 -375l284 -362l-31 -27l-286 363l-443 -365z" />
<glyph unicode="&#xd8;" horiz-adv-x="1507" d="M137 -47l162 188q-66 80 -98.5 191.5t-32.5 247.5q0 174 54 339.5t155.5 294.5t247 207t319.5 78q123 0 217 -39t164 -110l158 186l30 -29l-161 -188q131 -162 131 -436q0 -176 -54.5 -342t-156 -294t-244.5 -206t-321 -78q-123 0 -218.5 38t-162.5 110l-158 -185z M215 580q0 -254 113 -402l966 1137q-129 141 -354 141q-162 0 -297 -72.5t-230.5 -195.5t-146.5 -281.5t-51 -326.5zM354 145q133 -139 357 -139q166 0 299 74t228 195.5t146.5 279.5t51.5 328q0 252 -113 399z" />
<glyph unicode="&#xd9;" horiz-adv-x="1372" d="M190 367q0 96 25 206l188 889h46l-191 -899q-23 -106 -22 -192q0 -82 21.5 -148.5t70.5 -115t126.5 -75t190.5 -26.5q131 0 221 35t151.5 105.5t101.5 174t69 242.5l190 899h45l-194 -917q-35 -160 -82 -270.5t-115.5 -179t-165 -100.5t-225.5 -32q-123 0 -208 28.5 t-139 82t-79 127t-25 166.5zM795 1837h51l176 -252h-45z" />
<glyph unicode="&#xda;" horiz-adv-x="1372" d="M190 367q0 96 25 206l188 889h46l-191 -899q-23 -106 -22 -192q0 -82 21.5 -148.5t70.5 -115t126.5 -75t190.5 -26.5q131 0 221 35t151.5 105.5t101.5 174t69 242.5l190 899h45l-194 -917q-35 -160 -82 -270.5t-115.5 -179t-165 -100.5t-225.5 -32q-123 0 -208 28.5 t-139 82t-79 127t-25 166.5zM826 1585l286 252h64l-293 -252h-57z" />
<glyph unicode="&#xdb;" horiz-adv-x="1372" d="M190 367q0 96 25 206l188 889h46l-191 -899q-23 -106 -22 -192q0 -82 21.5 -148.5t70.5 -115t126.5 -75t190.5 -26.5q131 0 221 35t151.5 105.5t101.5 174t69 242.5l190 899h45l-194 -917q-35 -160 -82 -270.5t-115.5 -179t-165 -100.5t-225.5 -32q-123 0 -208 28.5 t-139 82t-79 127t-25 166.5zM680 1585l281 252h45l170 -252h-47l-150 215l-243 -215h-56z" />
<glyph unicode="&#xdc;" horiz-adv-x="1372" d="M190 367q0 96 25 206l188 889h46l-191 -899q-23 -106 -22 -192q0 -82 21.5 -148.5t70.5 -115t126.5 -75t190.5 -26.5q131 0 221 35t151.5 105.5t101.5 174t69 242.5l190 899h45l-194 -917q-35 -160 -82 -270.5t-115.5 -179t-165 -100.5t-225.5 -32q-123 0 -208 28.5 t-139 82t-79 127t-25 166.5zM748 1628l39 189h45l-39 -189h-45zM1074 1628l38 189h46l-39 -189h-45z" />
<glyph unicode="&#xdd;" horiz-adv-x="1140" d="M279 1462h49l301 -780l635 780h53l-670 -825l-135 -637h-45l133 633zM703 1585l286 252h64l-293 -252h-57z" />
<glyph unicode="&#xde;" horiz-adv-x="1224" d="M94 0l309 1462h46l-64 -299h360q125 0 211 -30.5t136.5 -82t72 -119t21.5 -143.5q0 -117 -44 -203.5t-122 -145t-182.5 -87t-223.5 -28.5h-407l-68 -324h-45zM217 367h404q109 0 203 25.5t164.5 77.5t110.5 131t40 190q0 160 -97.5 244.5t-304.5 84.5h-360z" />
<glyph unicode="&#xdf;" horiz-adv-x="1130" d="M72 0l233 1106q37 176 145.5 274.5t286.5 98.5q88 0 151.5 -23.5t104.5 -65.5t60.5 -99.5t19.5 -125.5q0 -82 -25.5 -146.5t-68.5 -111.5t-100.5 -78.5t-118.5 -46.5q39 -4 88 -23.5t94 -59.5t76 -104.5t31 -160.5q0 -92 -31 -175t-91.5 -147.5t-149.5 -102.5t-204 -38 q-86 0 -162.5 19.5t-131.5 52.5l20 35q59 -33 130 -49.5t142 -16.5q104 0 185.5 33t135.5 90.5t83 133t29 161.5q0 168 -104.5 251t-287.5 83h-129l9 41h83q217 0 335 98t118 262q0 127 -72.5 200t-222.5 73q-160 -2 -255 -87t-136 -268l-229 -1083h-41z" />
<glyph unicode="&#xe0;" horiz-adv-x="1046" d="M74 252q0 104 45 176t125 116t190.5 66.5t243.5 26.5l235 8l7 31q8 35 12 68.5t4 60.5q-2 123 -75 179t-236 56q-139 0 -226.5 -45t-134.5 -157l-41 6q25 70 66 116t95 72.5t115.5 37.5t129.5 11q178 0 263 -67.5t85 -204.5q0 -59 -16 -137l-142 -672h-43l45 213 q-66 -109 -179.5 -173.5t-260.5 -64.5q-152 0 -229.5 70t-77.5 207zM121 252q0 -119 64.5 -177.5t201.5 -58.5q104 0 185 32t139.5 84t95.5 121t53 144l45 209l-229 -8q-291 -10 -423 -93t-132 -253zM563 1462h49l176 -262h-43z" />
<glyph unicode="&#xe1;" horiz-adv-x="1046" d="M74 252q0 104 45 176t125 116t190.5 66.5t243.5 26.5l235 8l7 31q8 35 12 68.5t4 60.5q-2 123 -75 179t-236 56q-139 0 -226.5 -45t-134.5 -157l-41 6q25 70 66 116t95 72.5t115.5 37.5t129.5 11q178 0 263 -67.5t85 -204.5q0 -59 -16 -137l-142 -672h-43l45 213 q-66 -109 -179.5 -173.5t-260.5 -64.5q-152 0 -229.5 70t-77.5 207zM121 252q0 -119 64.5 -177.5t201.5 -58.5q104 0 185 32t139.5 84t95.5 121t53 144l45 209l-229 -8q-291 -10 -423 -93t-132 -253zM557 1200l286 262h60l-293 -262h-53z" />
<glyph unicode="&#xe2;" horiz-adv-x="1046" d="M74 252q0 104 45 176t125 116t190.5 66.5t243.5 26.5l235 8l7 31q8 35 12 68.5t4 60.5q-2 123 -75 179t-236 56q-139 0 -226.5 -45t-134.5 -157l-41 6q25 70 66 116t95 72.5t115.5 37.5t129.5 11q178 0 263 -67.5t85 -204.5q0 -59 -16 -137l-142 -672h-43l45 213 q-66 -109 -179.5 -173.5t-260.5 -64.5q-152 0 -229.5 70t-77.5 207zM121 252q0 -119 64.5 -177.5t201.5 -58.5q104 0 185 32t139.5 84t95.5 121t53 144l45 209l-229 -8q-291 -10 -423 -93t-132 -253zM424 1200l283 262h41l172 -262h-45l-152 225l-245 -225h-54z" />
<glyph unicode="&#xe3;" horiz-adv-x="1046" d="M74 252q0 104 45 176t125 116t190.5 66.5t243.5 26.5l235 8l7 31q8 35 12 68.5t4 60.5q-2 123 -75 179t-236 56q-139 0 -226.5 -45t-134.5 -157l-41 6q25 70 66 116t95 72.5t115.5 37.5t129.5 11q178 0 263 -67.5t85 -204.5q0 -59 -16 -137l-142 -672h-43l45 213 q-66 -109 -179.5 -173.5t-260.5 -64.5q-152 0 -229.5 70t-77.5 207zM121 252q0 -119 64.5 -177.5t201.5 -58.5q104 0 185 32t139.5 84t95.5 121t53 144l45 209l-229 -8q-291 -10 -423 -93t-132 -253zM354 1241q14 78 63.5 126t120.5 48q49 0 84 -21.5t65 -48t62.5 -48 t73.5 -21.5q33 0 58.5 13.5t43 32.5t26.5 43t13 46h41q-14 -78 -62 -126t-120 -48q-49 0 -85 21.5t-65.5 48t-61.5 48t-75 21.5q-35 0 -59.5 -13t-40.5 -32.5t-26.5 -44t-14.5 -45.5h-41z" />
<glyph unicode="&#xe4;" horiz-adv-x="1046" d="M74 252q0 104 45 176t125 116t190.5 66.5t243.5 26.5l235 8l7 31q8 35 12 68.5t4 60.5q-2 123 -75 179t-236 56q-139 0 -226.5 -45t-134.5 -157l-41 6q25 70 66 116t95 72.5t115.5 37.5t129.5 11q178 0 263 -67.5t85 -204.5q0 -59 -16 -137l-142 -672h-43l45 213 q-66 -109 -179.5 -173.5t-260.5 -64.5q-152 0 -229.5 70t-77.5 207zM121 252q0 -119 64.5 -177.5t201.5 -58.5q104 0 185 32t139.5 84t95.5 121t53 144l45 209l-229 -8q-291 -10 -423 -93t-132 -253zM502 1274l38 188h43l-38 -188h-43zM805 1274l39 188h43l-39 -188h-43z " />
<glyph unicode="&#xe5;" horiz-adv-x="1046" d="M74 252q0 104 45 176t125 116t190.5 66.5t243.5 26.5l235 8l7 31q8 35 12 68.5t4 60.5q-2 123 -75 179t-236 56q-139 0 -226.5 -45t-134.5 -157l-41 6q25 70 66 116t95 72.5t115.5 37.5t129.5 11q178 0 263 -67.5t85 -204.5q0 -59 -16 -137l-142 -672h-43l45 213 q-66 -109 -179.5 -173.5t-260.5 -64.5q-152 0 -229.5 70t-77.5 207zM121 252q0 -119 64.5 -177.5t201.5 -58.5q104 0 185 32t139.5 84t95.5 121t53 144l45 209l-229 -8q-291 -10 -423 -93t-132 -253zM536 1382q0 84 49 129t121 45q74 0 122 -45t48 -129t-48 -129t-122 -45 t-122 45t-48 129zM577 1382q0 -68 37 -101.5t92 -33.5q57 0 93 33.5t36 101.5t-37 102t-92 34q-57 0 -93 -34t-36 -102z" />
<glyph unicode="&#xe6;" horiz-adv-x="1826" d="M74 252q0 104 44 176t124 117t187.5 66.5t236.5 25.5l231 8l6 31q8 35 11.5 68.5t3.5 62.5q0 119 -71 176t-233 57q-133 0 -218 -45t-132 -157l-41 6q25 70 65 115t91 72.5t111.5 38.5t127.5 11q174 0 256 -69.5t82 -204.5q0 -10 -1 -18.5t-1 -18.5q70 143 190 226 t263 83q88 0 156.5 -32.5t115.5 -89t71 -134.5t24 -166q0 -31 -3.5 -67.5t-7.5 -65.5l-2 -12h-841q-2 -23 -3.5 -46.5t-1.5 -45.5q0 -201 93.5 -306.5t277.5 -105.5q86 0 145.5 21.5t101.5 55.5t69.5 77t48.5 88h43q-18 -49 -48 -99.5t-78 -91.5t-118 -66.5t-168 -25.5 q-193 0 -293 105.5t-110 310.5q-23 -104 -72 -181t-115.5 -127t-148.5 -75t-170 -25q-147 0 -223 70t-76 207zM121 252q0 -113 60.5 -174.5t195.5 -61.5q96 0 175 29t137.5 80t97 119.5t57.5 152.5l45 209l-225 -8q-287 -10 -415 -94t-128 -252zM926 551h798q4 23 6.5 49.5 t2.5 54.5q0 76 -20.5 145.5t-61.5 123t-102.5 84t-145.5 30.5q-90 0 -170 -36.5t-142.5 -101t-105.5 -154t-59 -195.5z" />
<glyph unicode="&#xe7;" horiz-adv-x="1091" d="M125 416q0 133 40 252.5t111.5 211t175 145.5t226.5 54q90 0 155.5 -28.5t108.5 -75.5t65.5 -105.5t28.5 -128.5l-41 -6q-6 61 -24.5 112.5t-56 95.5t-96 69.5t-142.5 25.5q-117 0 -211 -52t-159.5 -138t-100.5 -198.5t-35 -235.5q0 -197 92 -301.5t275 -104.5 q94 0 161.5 26.5t112.5 68.5t73.5 95.5t47.5 108.5h43q-51 -164 -158.5 -252t-279.5 -88h-11l-43 -84q94 -4 137.5 -35.5t43.5 -89.5q0 -41 -18.5 -65.5t-49.5 -39.5t-72 -20.5t-86 -5.5q-41 0 -73.5 4t-55.5 9l8 36q57 -10 121 -10q37 0 71 3t58.5 12.5t40 28t15.5 46.5 q0 45 -38 68.5t-132 23.5h-29l65 121q-182 16 -273 132t-91 315z" />
<glyph unicode="&#xe8;" horiz-adv-x="1091" d="M121 420q0 145 43 267t116.5 209t172 135t209.5 48q92 0 161.5 -32.5t116.5 -89t71.5 -134.5t24.5 -166q0 -31 -3 -67.5t-7 -65.5l-2 -12h-856q-2 -23 -3 -46.5t-1 -45.5q0 -205 94 -308.5t281 -103.5q88 0 149.5 21.5t104.5 55.5t71.5 77t48.5 88h43 q-18 -49 -48.5 -99.5t-80 -91.5t-121 -66.5t-171.5 -25.5q-201 0 -307.5 115t-106.5 338zM172 551h815q4 23 6 49.5t2 54.5q0 76 -20.5 145.5t-62.5 123t-105.5 84t-149.5 30.5q-92 0 -173 -35.5t-145.5 -101t-107.5 -155t-59 -195.5zM579 1462h49l176 -262h-43z" />
<glyph unicode="&#xe9;" horiz-adv-x="1091" d="M121 420q0 145 43 267t116.5 209t172 135t209.5 48q92 0 161.5 -32.5t116.5 -89t71.5 -134.5t24.5 -166q0 -31 -3 -67.5t-7 -65.5l-2 -12h-856q-2 -23 -3 -46.5t-1 -45.5q0 -205 94 -308.5t281 -103.5q88 0 149.5 21.5t104.5 55.5t71.5 77t48.5 88h43 q-18 -49 -48.5 -99.5t-80 -91.5t-121 -66.5t-171.5 -25.5q-201 0 -307.5 115t-106.5 338zM172 551h815q4 23 6 49.5t2 54.5q0 76 -20.5 145.5t-62.5 123t-105.5 84t-149.5 30.5q-92 0 -173 -35.5t-145.5 -101t-107.5 -155t-59 -195.5zM580 1200l286 262h60l-293 -262h-53z " />
<glyph unicode="&#xea;" horiz-adv-x="1091" d="M121 420q0 145 43 267t116.5 209t172 135t209.5 48q92 0 161.5 -32.5t116.5 -89t71.5 -134.5t24.5 -166q0 -31 -3 -67.5t-7 -65.5l-2 -12h-856q-2 -23 -3 -46.5t-1 -45.5q0 -205 94 -308.5t281 -103.5q88 0 149.5 21.5t104.5 55.5t71.5 77t48.5 88h43 q-18 -49 -48.5 -99.5t-80 -91.5t-121 -66.5t-171.5 -25.5q-201 0 -307.5 115t-106.5 338zM172 551h815q4 23 6 49.5t2 54.5q0 76 -20.5 145.5t-62.5 123t-105.5 84t-149.5 30.5q-92 0 -173 -35.5t-145.5 -101t-107.5 -155t-59 -195.5zM442 1200l283 262h41l172 -262h-45 l-152 225l-245 -225h-54z" />
<glyph unicode="&#xeb;" horiz-adv-x="1091" d="M121 420q0 145 43 267t116.5 209t172 135t209.5 48q92 0 161.5 -32.5t116.5 -89t71.5 -134.5t24.5 -166q0 -31 -3 -67.5t-7 -65.5l-2 -12h-856q-2 -23 -3 -46.5t-1 -45.5q0 -205 94 -308.5t281 -103.5q88 0 149.5 21.5t104.5 55.5t71.5 77t48.5 88h43 q-18 -49 -48.5 -99.5t-80 -91.5t-121 -66.5t-171.5 -25.5q-201 0 -307.5 115t-106.5 338zM172 551h815q4 23 6 49.5t2 54.5q0 76 -20.5 145.5t-62.5 123t-105.5 84t-149.5 30.5q-92 0 -173 -35.5t-145.5 -101t-107.5 -155t-59 -195.5zM519 1274l38 188h43l-38 -188h-43z M822 1274l39 188h43l-39 -188h-43z" />
<glyph unicode="&#xec;" horiz-adv-x="346" d="M72 0l219 1047h43l-221 -1047h-41zM149 1462h49l176 -262h-43z" />
<glyph unicode="&#xed;" horiz-adv-x="346" d="M72 0l219 1047h43l-221 -1047h-41zM266 1200l286 262h60l-293 -262h-53z" />
<glyph unicode="&#xee;" horiz-adv-x="346" d="M72 0l219 1047h43l-221 -1047h-41zM86 1200l283 262h41l172 -262h-45l-152 225l-245 -225h-54z" />
<glyph unicode="&#xef;" horiz-adv-x="346" d="M72 0l219 1047h43l-221 -1047h-41zM170 1274l38 188h43l-38 -188h-43zM473 1274l39 188h43l-39 -188h-43z" />
<glyph unicode="&#xf0;" horiz-adv-x="1157" d="M123 385q0 117 41 226.5t114.5 195.5t175 138t224.5 52q135 0 231.5 -58t137.5 -163q-43 377 -267 539l-178 -154l-27 31l170 147q-63 37 -136.5 60.5t-162.5 34.5l3 34q98 -8 179 -34.5t146 -69.5l178 154l27 -31l-170 -148q76 -57 129 -134t88 -168t51.5 -191.5 t16.5 -204.5q0 -154 -32 -260.5t-85 -183.5q-78 -113 -190.5 -171.5t-247.5 -58.5q-92 0 -169 28t-132.5 82t-85 132t-29.5 176zM168 389q0 -178 99.5 -279.5t273.5 -101.5q117 0 212 47t160.5 125t101.5 180.5t36 212.5q0 184 -97.5 283.5t-267.5 99.5q-125 0 -221 -51 t-162.5 -132t-100.5 -182.5t-34 -201.5z" />
<glyph unicode="&#xf1;" horiz-adv-x="1110" d="M70 0l221 1047h43l-39 -189q53 61 111.5 104.5t117 69t115.5 36.5t106 11q141 0 216 -78.5t75 -216.5q0 -66 -14 -129l-139 -655h-43l139 657q14 63 14 123q0 121 -64.5 189.5t-191.5 68.5q-86 0 -175 -32.5t-161 -92.5q-39 -33 -63.5 -59.5t-40.5 -58t-28.5 -75.5 t-26.5 -112l-129 -608h-43zM434 1241q14 78 63.5 126t120.5 48q49 0 84 -21.5t65 -48t62.5 -48t73.5 -21.5q33 0 58.5 13.5t43 32.5t26.5 43t13 46h41q-14 -78 -62 -126t-120 -48q-49 0 -85 21.5t-65.5 48t-61.5 48t-75 21.5q-35 0 -59.5 -13t-40.5 -32.5t-26.5 -44 t-14.5 -45.5h-41z" />
<glyph unicode="&#xf2;" horiz-adv-x="1157" d="M123 420q0 131 39 249.5t112.5 210t178 145.5t235.5 54q195 0 298.5 -120.5t103.5 -331.5q0 -131 -39 -250t-112 -210t-178.5 -145.5t-236.5 -54.5q-195 0 -298 121t-103 332zM168 420q0 -193 90 -302.5t268 -109.5q123 0 219.5 51.5t163 137.5t101 197.5t34.5 232.5 q0 193 -90 302t-268 109q-123 0 -220 -52t-162.5 -138t-100.5 -197.5t-35 -230.5zM600 1462h49l176 -262h-43z" />
<glyph unicode="&#xf3;" horiz-adv-x="1157" d="M123 420q0 131 39 249.5t112.5 210t178 145.5t235.5 54q195 0 298.5 -120.5t103.5 -331.5q0 -131 -39 -250t-112 -210t-178.5 -145.5t-236.5 -54.5q-195 0 -298 121t-103 332zM168 420q0 -193 90 -302.5t268 -109.5q123 0 219.5 51.5t163 137.5t101 197.5t34.5 232.5 q0 193 -90 302t-268 109q-123 0 -220 -52t-162.5 -138t-100.5 -197.5t-35 -230.5zM647 1200l286 262h60l-293 -262h-53z" />
<glyph unicode="&#xf4;" horiz-adv-x="1157" d="M123 420q0 131 39 249.5t112.5 210t178 145.5t235.5 54q195 0 298.5 -120.5t103.5 -331.5q0 -131 -39 -250t-112 -210t-178.5 -145.5t-236.5 -54.5q-195 0 -298 121t-103 332zM168 420q0 -193 90 -302.5t268 -109.5q123 0 219.5 51.5t163 137.5t101 197.5t34.5 232.5 q0 193 -90 302t-268 109q-123 0 -220 -52t-162.5 -138t-100.5 -197.5t-35 -230.5zM493 1200l283 262h41l172 -262h-45l-152 225l-245 -225h-54z" />
<glyph unicode="&#xf5;" horiz-adv-x="1157" d="M123 420q0 131 39 249.5t112.5 210t178 145.5t235.5 54q195 0 298.5 -120.5t103.5 -331.5q0 -131 -39 -250t-112 -210t-178.5 -145.5t-236.5 -54.5q-195 0 -298 121t-103 332zM168 420q0 -193 90 -302.5t268 -109.5q123 0 219.5 51.5t163 137.5t101 197.5t34.5 232.5 q0 193 -90 302t-268 109q-123 0 -220 -52t-162.5 -138t-100.5 -197.5t-35 -230.5zM432 1241q14 78 63.5 126t120.5 48q49 0 84 -21.5t65 -48t62.5 -48t73.5 -21.5q33 0 58.5 13.5t43 32.5t26.5 43t13 46h41q-14 -78 -62 -126t-120 -48q-49 0 -85 21.5t-65.5 48t-61.5 48 t-75 21.5q-35 0 -59.5 -13t-40.5 -32.5t-26.5 -44t-14.5 -45.5h-41z" />
<glyph unicode="&#xf6;" horiz-adv-x="1157" d="M123 420q0 131 39 249.5t112.5 210t178 145.5t235.5 54q195 0 298.5 -120.5t103.5 -331.5q0 -131 -39 -250t-112 -210t-178.5 -145.5t-236.5 -54.5q-195 0 -298 121t-103 332zM168 420q0 -193 90 -302.5t268 -109.5q123 0 219.5 51.5t163 137.5t101 197.5t34.5 232.5 q0 193 -90 302t-268 109q-123 0 -220 -52t-162.5 -138t-100.5 -197.5t-35 -230.5zM572 1274l38 188h43l-38 -188h-43zM875 1274l39 188h43l-39 -188h-43z" />
<glyph unicode="&#xf7;" d="M231 676l11 41h872l-10 -41h-873zM551 231l39 179h45l-39 -179h-45zM711 985l39 178h45l-39 -178h-45z" />
<glyph unicode="&#xf8;" horiz-adv-x="1157" d="M82 -55l135 153q-94 115 -94 322q0 131 39 249.5t112.5 210t178 145.5t235.5 54q94 0 167 -29.5t124 -82.5l139 159l29 -26l-143 -164q41 -57 63.5 -135t22.5 -174q0 -131 -39 -250t-113 -211t-178.5 -145.5t-235.5 -53.5q-180 0 -282 103l-131 -152zM168 420 q0 -180 78 -289l702 803q-45 49 -109.5 76.5t-152.5 27.5q-123 0 -220 -52t-162.5 -138t-100.5 -197.5t-35 -230.5zM272 102q90 -94 254 -94q123 0 220.5 51.5t163 137.5t100 197.5t34.5 232.5q0 170 -71 276z" />
<glyph unicode="&#xf9;" horiz-adv-x="1089" d="M131 260q0 66 14 131l140 656h43l-140 -658q-14 -63 -14 -125q0 -121 62.5 -188.5t187.5 -67.5q84 0 169 33t157 92q39 33 61.5 58.5t38.5 58.5t28.5 77t26.5 111l129 609h43l-221 -1047h-43l39 188q-53 -63 -108.5 -105t-113 -67.5t-112.5 -37t-104 -11.5 q-137 0 -210 78t-73 215zM538 1462h49l176 -262h-43z" />
<glyph unicode="&#xfa;" horiz-adv-x="1089" d="M131 260q0 66 14 131l140 656h43l-140 -658q-14 -63 -14 -125q0 -121 62.5 -188.5t187.5 -67.5q84 0 169 33t157 92q39 33 61.5 58.5t38.5 58.5t28.5 77t26.5 111l129 609h43l-221 -1047h-43l39 188q-53 -63 -108.5 -105t-113 -67.5t-112.5 -37t-104 -11.5 q-137 0 -210 78t-73 215zM600 1200l286 262h60l-293 -262h-53z" />
<glyph unicode="&#xfb;" horiz-adv-x="1089" d="M131 260q0 66 14 131l140 656h43l-140 -658q-14 -63 -14 -125q0 -121 62.5 -188.5t187.5 -67.5q84 0 169 33t157 92q39 33 61.5 58.5t38.5 58.5t28.5 77t26.5 111l129 609h43l-221 -1047h-43l39 188q-53 -63 -108.5 -105t-113 -67.5t-112.5 -37t-104 -11.5 q-137 0 -210 78t-73 215zM448 1200l283 262h41l172 -262h-45l-152 225l-245 -225h-54z" />
<glyph unicode="&#xfc;" horiz-adv-x="1089" d="M131 260q0 66 14 131l140 656h43l-140 -658q-14 -63 -14 -125q0 -121 62.5 -188.5t187.5 -67.5q84 0 169 33t157 92q39 33 61.5 58.5t38.5 58.5t28.5 77t26.5 111l129 609h43l-221 -1047h-43l39 188q-53 -63 -108.5 -105t-113 -67.5t-112.5 -37t-104 -11.5 q-137 0 -210 78t-73 215zM531 1274l38 188h43l-38 -188h-43zM834 1274l39 188h43l-39 -188h-43z" />
<glyph unicode="&#xfd;" horiz-adv-x="956" d="M-59 -373l12 35q29 -10 56.5 -15t56.5 -5q35 0 60.5 9t51 31.5t50 58.5t57.5 89l114 186l-239 1031h45l223 -981l602 981h45l-756 -1235q-39 -63 -68.5 -103.5t-59 -64t-60.5 -32.5t-70 -9q-33 0 -59.5 6t-60.5 18zM504 1200l286 262h60l-293 -262h-53z" />
<glyph unicode="&#xfe;" horiz-adv-x="1161" d="M-14 -397l393 1859h43l-141 -667q35 61 77.5 112t96 90t120 60.5t148.5 21.5q180 0 278.5 -110.5t98.5 -311.5q0 -133 -41 -258t-117 -221t-181.5 -153.5t-234.5 -57.5q-145 0 -241.5 72t-120.5 209l-135 -645h-43zM197 332q0 -92 28 -156q35 -80 113 -124t192 -44 q119 0 216.5 54.5t166 146.5t105.5 207.5t37 240.5q0 190 -88 285.5t-246 95.5q-102 0 -186 -42t-150 -115q-111 -127 -152 -314l-20 -90q-10 -39 -13 -74.5t-3 -70.5z" />
<glyph unicode="&#xff;" horiz-adv-x="956" d="M-59 -373l12 35q29 -10 56.5 -15t56.5 -5q35 0 60.5 9t51 31.5t50 58.5t57.5 89l114 186l-239 1031h45l223 -981l602 981h45l-756 -1235q-39 -63 -68.5 -103.5t-59 -64t-60.5 -32.5t-70 -9q-33 0 -59.5 6t-60.5 18zM455 1274l38 188h43l-38 -188h-43zM758 1274l39 188h43 l-39 -188h-43z" />
<glyph unicode="&#x152;" horiz-adv-x="2222" d="M168 580q0 174 52 339.5t147.5 294.5t232.5 207t299 78q117 0 207 -40t153.5 -113.5t99.5 -178t42 -233.5l112 528h830l-8 -43h-785l-137 -643h744l-9 -43h-743l-148 -690h799l-16 -43h-836l80 377q-47 -92 -109.5 -168t-139.5 -130t-167 -85t-192 -31q-123 0 -217 44 t-158.5 125t-98.5 195t-34 253zM215 582q0 -272 125 -424t342 -152q154 0 281 74t216 195.5t137 279.5t48 326q0 274 -125 424.5t-342 150.5q-152 0 -280 -73.5t-217 -195.5t-137 -279.5t-48 -325.5z" />
<glyph unicode="&#x153;" horiz-adv-x="1984" d="M121 420q0 131 40 251t112.5 210t176 144t232.5 54q180 0 279.5 -107.5t109.5 -297.5q31 92 80 168t112.5 128t139.5 80.5t160 28.5q88 0 157.5 -32.5t115.5 -90t69.5 -134.5t23.5 -165q0 -31 -3 -67.5t-7 -65.5l-2 -12h-842q-2 -23 -3 -46.5t-1 -45.5q0 -203 93 -307.5 t278 -104.5q86 0 146.5 21.5t101.5 55.5t68.5 76t47.5 89h43q-18 -51 -47.5 -99.5t-77 -90.5t-118 -67.5t-168.5 -25.5q-190 0 -292 104.5t-112 301.5q-29 -86 -76 -161t-111.5 -129t-147.5 -85t-181 -31q-195 0 -296 121t-101 332zM166 420q0 -190 87 -301t269 -111 q123 0 219.5 51.5t162 137.5t100 197.5t34.5 232.5q0 193 -89 302t-267 109q-123 0 -219 -52t-161.5 -138t-100.5 -197.5t-35 -230.5zM1081 551h799q4 23 6 49.5t2 54.5q0 76 -20.5 146.5t-61.5 123t-102 83t-145 30.5q-90 0 -170 -36.5t-142.5 -101t-105.5 -154t-60 -195.5 z" />
<glyph unicode="&#x178;" horiz-adv-x="1140" d="M279 1462h49l301 -780l635 780h53l-670 -825l-135 -637h-45l133 633zM635 1628l39 189h45l-39 -189h-45zM961 1628l38 189h46l-39 -189h-45z" />
<glyph unicode="&#x2c6;" horiz-adv-x="776" d="M313 1200l283 262h41l172 -262h-45l-152 225l-245 -225h-54z" />
<glyph unicode="&#x2dc;" horiz-adv-x="776" d="M260 1241q14 78 63.5 126t120.5 48q49 0 84 -21.5t65 -48t62.5 -48t73.5 -21.5q33 0 58.5 13.5t43 32.5t26.5 43t13 46h41q-14 -78 -62 -126t-120 -48q-49 0 -85 21.5t-65.5 48t-61.5 48t-75 21.5q-35 0 -59.5 -13t-40.5 -32.5t-26.5 -44t-14.5 -45.5h-41z" />
<glyph unicode="&#x2000;" horiz-adv-x="918" />
<glyph unicode="&#x2001;" horiz-adv-x="1837" />
<glyph unicode="&#x2002;" horiz-adv-x="918" />
<glyph unicode="&#x2003;" horiz-adv-x="1837" />
<glyph unicode="&#x2004;" horiz-adv-x="612" />
<glyph unicode="&#x2005;" horiz-adv-x="459" />
<glyph unicode="&#x2006;" horiz-adv-x="306" />
<glyph unicode="&#x2007;" horiz-adv-x="306" />
<glyph unicode="&#x2008;" horiz-adv-x="229" />
<glyph unicode="&#x2009;" horiz-adv-x="367" />
<glyph unicode="&#x200a;" horiz-adv-x="102" />
<glyph unicode="&#x2010;" horiz-adv-x="792" d="M143 569l9 41h587l-8 -41h-588z" />
<glyph unicode="&#x2011;" horiz-adv-x="792" d="M143 569l9 41h587l-8 -41h-588z" />
<glyph unicode="&#x2012;" horiz-adv-x="792" d="M143 569l9 41h587l-8 -41h-588z" />
<glyph unicode="&#x2013;" horiz-adv-x="1024" d="M41 573l8 41h1024l-10 -41h-1022z" />
<glyph unicode="&#x2014;" horiz-adv-x="2048" d="M39 573l10 41h2048l-10 -41h-2048z" />
<glyph unicode="&#x2018;" horiz-adv-x="321" d="M248 1087l158 375h40l-149 -375h-49z" />
<glyph unicode="&#x2019;" horiz-adv-x="321" d="M248 1087l149 375h49l-157 -375h-41z" />
<glyph unicode="&#x201a;" horiz-adv-x="331" d="M-8 -176l149 375h49l-157 -375h-41z" />
<glyph unicode="&#x201c;" horiz-adv-x="552" d="M248 1087l158 375h40l-149 -375h-49zM479 1087l158 375h40l-149 -375h-49z" />
<glyph unicode="&#x201d;" horiz-adv-x="552" d="M248 1087l149 375h49l-157 -375h-41zM479 1087l149 375h49l-157 -375h-41z" />
<glyph unicode="&#x201e;" horiz-adv-x="563" d="M-8 -176l149 375h49l-157 -375h-41zM224 -176l149 375h49l-157 -375h-41z" />
<glyph unicode="&#x2022;" horiz-adv-x="585" d="M170 748q0 86 57.5 141t143.5 55t143 -55t57 -141t-57 -141.5t-143 -55.5t-143.5 55.5t-57.5 141.5z" />
<glyph unicode="&#x2026;" horiz-adv-x="1359" d="M61 0l43 199h46l-44 -199h-45zM575 0l43 199h46l-44 -199h-45zM1089 0l43 199h46l-44 -199h-45z" />
<glyph unicode="&#x202f;" horiz-adv-x="367" />
<glyph unicode="&#x2039;" horiz-adv-x="532" d="M109 524l397 455h51l-401 -459l200 -450h-45z" />
<glyph unicode="&#x203a;" horiz-adv-x="532" d="M35 70l399 458l-198 451h45l202 -455l-397 -454h-51z" />
<glyph unicode="&#x205f;" horiz-adv-x="459" />
<glyph unicode="&#x20ac;" d="M59 528l13 39h145q6 141 47 295h-135l12 39h133q33 111 85.5 209t126 175t172 123t221.5 46q180 0 284.5 -100.5t122.5 -272.5l-41 -6q-25 176 -121 256t-243 80q-117 0 -208 -42t-160 -112.5t-117 -163t-79 -192.5h609l-13 -39h-606q-20 -76 -30.5 -150.5t-14.5 -144.5 h533l-13 -39h-520v-16q0 -260 106.5 -383t311.5 -123q115 0 193.5 35t131 92t82 125t48.5 139h43q-20 -88 -56.5 -166.5t-95.5 -138t-145 -94.5t-203 -35q-225 0 -343 138.5t-118 408.5v18h-158z" />
<glyph unicode="&#x2122;" horiz-adv-x="1785" d="M260 1421l8 41h633l-8 -41h-295l-166 -778h-43l166 778h-295zM868 643l174 819h56l184 -762l508 762h59l-174 -819h-43l160 752l-502 -752h-37l-182 752l-160 -752h-43z" />
<glyph unicode="&#xe000;" horiz-adv-x="1044" d="M0 0v1044h1044v-1044h-1044z" />
</font>
</defs>
</svg>
