<?xml version="1.0" standalone="no"?>
<!DOCTYPE svg PUBLIC "-//W3C//DTD SVG 1.1//EN" "http://www.w3.org/Graphics/SVG/1.1/DTD/svg11.dtd" >
<svg xmlns="http://www.w3.org/2000/svg">
<metadata></metadata>
<defs>
<font id="eau_doucesans_bold" horiz-adv-x="1148" >
<font-face units-per-em="2048" ascent="1638" descent="-410" />
<missing-glyph horiz-adv-x="477" />
<glyph horiz-adv-x="0" />
<glyph horiz-adv-x="682" />
<glyph unicode=" "  horiz-adv-x="477" />
<glyph unicode="&#x09;" horiz-adv-x="477" />
<glyph unicode="&#xa0;" horiz-adv-x="477" />
<glyph unicode="!" horiz-adv-x="598" d="M131 1366h336l-72 -930h-192zM150 0v297h299v-297h-299z" />
<glyph unicode="&#x22;" horiz-adv-x="956" d="M125 846l63 520h295l-209 -520h-149zM526 846l64 520h295l-209 -520h-150z" />
<glyph unicode="#" horiz-adv-x="1165" d="M51 500v180h211l70 278h-166v181h211l55 227h180l-57 -227h213l57 227h181l-58 -227h166v-181h-211l-69 -278h165v-180h-208l-58 -228h-180l57 228h-213l-57 -228h-178l55 228h-166zM442 680h213l68 278h-211z" />
<glyph unicode="$" horiz-adv-x="1015" d="M72 219l164 164q41 -41 102 -67.5t131 -26.5q80 0 130 40t50 95q0 37 -23.5 65t-61.5 45t-87 35.5t-100.5 34.5t-100.5 45t-87 64t-61.5 93t-23.5 132q0 129 91.5 228.5t242.5 123.5v211h127v-205q114 -7 209 -47.5t156 -101.5l-164 -164q-94 94 -209 94 q-79 0 -122.5 -35t-43.5 -84q0 -42 30 -72.5t78 -50t105.5 -38.5t115.5 -45.5t106 -63t78 -99t30 -145.5q0 -143 -99 -244t-270 -124v-213h-127v207q-107 6 -205.5 47t-160.5 102z" />
<glyph unicode="%" horiz-adv-x="1828" d="M76 989q0 179 88 284t237 105t237.5 -105.5t88.5 -283.5q0 -177 -88.5 -283t-237.5 -106t-237 106t-88 283zM283 989q0 -117 32.5 -172t85.5 -55t86 55.5t33 171.5q0 118 -33 174t-86 56t-85.5 -56t-32.5 -174zM322 0l956 1366h219l-956 -1366h-219zM1104 375 q0 179 87 284t236 105t237.5 -105.5t88.5 -283.5q0 -177 -88.5 -283t-237.5 -106t-236 105.5t-87 283.5zM1309 375q0 -117 32.5 -172.5t85.5 -55.5q55 0 88 55.5t33 172.5q0 118 -33 173.5t-88 55.5q-53 0 -85.5 -55.5t-32.5 -173.5z" />
<glyph unicode="&#x26;" horiz-adv-x="1357" d="M80 354q0 130 67 225.5t199 172.5q-90 91 -128 164t-38 159q0 58 26 115t74 104t123.5 76t165.5 29q167 0 278 -96t111 -228q0 -98 -54 -181.5t-171 -166.5l234 -233q32 100 32 258h275q0 -274 -103 -463l289 -289h-360l-99 98q-158 -131 -399 -131q-248 0 -385 108.5 t-137 278.5zM371 377q0 -82 66.5 -139.5t172.5 -57.5q135 0 221 86l-323 324q-137 -91 -137 -213zM449 1069q0 -48 23 -87t85 -101q73 54 104 94t31 94q0 47 -34.5 82t-88.5 35t-87 -35t-33 -82z" />
<glyph unicode="'" horiz-adv-x="555" d="M125 846l63 520h295l-209 -520h-149z" />
<glyph unicode="(" horiz-adv-x="743" d="M166 682q0 242 78.5 456t218.5 388l254 -86q-130 -169 -198 -351t-68 -407q0 -223 68 -405t198 -351l-254 -88q-140 174 -218.5 388.5t-78.5 455.5z" />
<glyph unicode=")" horiz-adv-x="743" d="M27 -74q129 170 196.5 351.5t67.5 404.5q0 224 -67.5 406t-196.5 352l254 86q140 -173 217 -387t77 -457q0 -242 -77.5 -456.5t-216.5 -387.5z" />
<glyph unicode="*" horiz-adv-x="956" d="M111 1044l45 142l247 -80v260h150v-260l246 80l47 -142l-248 -79l152 -213l-119 -86l-154 211l-151 -211l-121 86l153 213z" />
<glyph unicode="+" horiz-adv-x="1105" d="M109 563v211h337v338h213v-338h338v-211h-338v-338h-213v338h-337z" />
<glyph unicode="," horiz-adv-x="565" d="M94 -264l68 561h295l-209 -561h-154z" />
<glyph unicode="-" horiz-adv-x="759" d="M106 406v212h547v-212h-547z" />
<glyph unicode="." horiz-adv-x="565" d="M133 0v297h299v-297h-299z" />
<glyph unicode="/" horiz-adv-x="690" d="M39 -137l410 1638h202l-407 -1638h-205z" />
<glyph unicode="0" d="M86 682q0 340 131 521t358 181q226 0 357 -181.5t131 -520.5q0 -338 -131 -519t-357 -181q-227 0 -358 181t-131 519zM367 682q0 -477 208 -477q99 0 154 115.5t55 361.5q0 479 -209 479q-208 0 -208 -479z" />
<glyph unicode="1" d="M131 934v237q108 13 211.5 66t183.5 131h244v-1368h-274v1075q-52 -52 -154.5 -90t-210.5 -51z" />
<glyph unicode="2" d="M80 0v182q328 257 471 439t143 337q0 93 -51 146t-137 53q-130 0 -238 -98l-174 174q185 158 412 158q215 0 341 -116.5t126 -293.5q0 -186 -123.5 -366.5t-355.5 -374.5h540v-240h-954z" />
<glyph unicode="3" d="M59 133l174 172q118 -96 252 -96q117 0 180.5 50.5t63.5 129.5q0 78 -66.5 126t-164.5 48h-179v240h173q107 0 166 49.5t59 132.5q0 76 -54.5 124t-154.5 48q-137 0 -242 -98l-174 174q79 71 187.5 114.5t234.5 43.5q214 0 342.5 -109t128.5 -274q0 -109 -63 -192 t-162 -120q112 -29 185 -115.5t73 -203.5q0 -177 -134 -290.5t-376 -113.5q-136 0 -254 44t-195 116z" />
<glyph unicode="4" d="M37 295v254l555 817h295v-836h217v-235h-217v-295h-262v295h-588zM287 530h338v508z" />
<glyph unicode="5" d="M102 133l174 172q115 -96 242 -96q110 0 177 62.5t67 156.5q0 101 -68 163t-176 62q-70 0 -139 -51l-209 105v659h784v-240h-512v-290q63 34 158 34q186 0 308 -123.5t122 -318.5q0 -198 -139.5 -326.5t-360.5 -128.5q-132 0 -241.5 43.5t-186.5 116.5z" />
<glyph unicode="6" d="M80 682q0 329 156.5 519t425.5 190q120 0 222.5 -43t174.5 -115l-174 -174q-98 98 -230 98q-134 0 -220 -121.5t-83 -335.5q110 158 299 158q175 0 297.5 -123t122.5 -315q0 -91 -34 -172.5t-94.5 -142.5t-151 -96.5t-197.5 -35.5q-240 0 -377 180.5t-137 528.5zM385 420 q0 -101 58.5 -164t150.5 -63q91 0 150 63t59 164t-59 164t-150 63q-92 0 -150.5 -63t-58.5 -164z" />
<glyph unicode="7" d="M90 1126v240h959v-180q-136 -186 -225.5 -347.5t-160 -372t-110.5 -466.5h-297q65 363 173 620t278 506h-617z" />
<glyph unicode="8" d="M68 379q0 108 61 194.5t160 120.5q-76 30 -133.5 112.5t-57.5 186.5q0 171 137 284.5t340 113.5t339.5 -113.5t136.5 -284.5q0 -104 -57.5 -186.5t-133.5 -112.5q100 -34 161.5 -121t61.5 -194q0 -178 -137 -292t-371 -114q-236 0 -371.5 114t-135.5 292zM346 389 q0 -91 62 -150t167 -59t166.5 59t61.5 150q0 89 -61 148t-167 59t-167.5 -59t-61.5 -148zM360 987q0 -84 57.5 -142.5t157.5 -58.5q99 0 157.5 59t58.5 142t-58.5 142t-157.5 59q-100 0 -157.5 -58.5t-57.5 -142.5z" />
<glyph unicode="9" d="M80 946q0 189 131 317t346 128q239 0 376.5 -180t137.5 -529q0 -328 -157 -518.5t-425 -190.5q-120 0 -222.5 44t-174.5 116l172 172q99 -96 230 -96q134 0 220 121t83 336q-106 -158 -299 -158q-85 0 -161 31.5t-133 88t-90.5 139t-33.5 179.5zM348 946 q0 -102 58 -164.5t151 -62.5q92 0 150.5 62.5t58.5 164.5q0 101 -59 164.5t-150 63.5q-92 0 -150.5 -63.5t-58.5 -164.5z" />
<glyph unicode=":" horiz-adv-x="565" d="M133 0v297h299v-297h-299zM133 645v297h299v-297h-299z" />
<glyph unicode=";" horiz-adv-x="565" d="M94 -264l68 561h295l-209 -561h-154zM133 645v297h299v-297h-299z" />
<glyph unicode="&#x3c;" horiz-adv-x="645" d="M104 471l191 383h264l-190 -383l190 -383h-264z" />
<glyph unicode="=" horiz-adv-x="1105" d="M109 358v211h888v-211h-888zM109 768v211h888v-211h-888z" />
<glyph unicode="&#x3e;" horiz-adv-x="645" d="M86 88l190 383l-190 383h264l193 -383l-193 -383h-264z" />
<glyph unicode="?" horiz-adv-x="985" d="M35 1227q76 76 182 121t236 45q209 0 338 -105.5t129 -259.5q0 -65 -20 -121t-51.5 -97t-70 -77.5t-76.5 -70t-69.5 -66.5t-51.5 -74t-20 -86h-262q0 61 17.5 113t45 90t60.5 72.5t66.5 65.5t61 62.5t45 71t17.5 84.5q0 71 -50 116.5t-132 45.5q-117 0 -223 -102zM283 0 v297h297v-297h-297z" />
<glyph unicode="@" horiz-adv-x="1587" d="M66 612q0 117 35 230.5t105.5 214t167.5 177t229 121t282 44.5q280 0 458.5 -168t178.5 -428q0 -103 -33 -199.5t-85.5 -164t-119 -108t-131.5 -40.5q-82 0 -131.5 49t-40.5 125q-42 -81 -122 -129.5t-177 -48.5q-108 0 -187 87.5t-79 235.5q0 122 56 227t148 165.5 t195 60.5q67 0 120 -32t71 -87l18 103h209l-86 -500q-19 -103 41 -103t124 103t64 246q0 210 -135 335t-356 125q-118 0 -223 -36.5t-181.5 -99t-132.5 -144.5t-84 -174.5t-28 -186.5q0 -236 127.5 -367.5t326.5 -131.5q113 0 216 39.5t167 103.5l109 -109 q-84 -84 -213 -133t-279 -49q-280 0 -452 177.5t-172 469.5zM635 623q0 -82 33.5 -123t91.5 -41q84 0 143.5 77.5t59.5 190.5q0 82 -33.5 123t-91.5 41q-84 0 -143.5 -77.5t-59.5 -190.5z" />
<glyph unicode="A" horiz-adv-x="1247" d="M-25 0l498 1366h303l496 -1366h-297l-101 307h-501l-101 -307h-297zM446 537h355l-176 534z" />
<glyph unicode="B" horiz-adv-x="1206" d="M154 0v1366h501q213 0 334 -95.5t121 -252.5q0 -114 -70.5 -208.5t-193.5 -125.5q128 -22 204 -107.5t76 -216.5q0 -69 -28.5 -133.5t-79.5 -115t-129.5 -81t-171.5 -30.5h-563zM438 219h203q90 0 141.5 51t51.5 127t-51.5 127t-141.5 51h-203v-356zM438 791h191 q84 0 136 51.5t52 126.5q0 73 -52 124.5t-136 51.5h-191v-354z" />
<glyph unicode="C" horiz-adv-x="1230" d="M80 682q0 327 180.5 522t491.5 195q136 0 253.5 -46.5t190.5 -119.5l-174 -174q-95 98 -238 98q-186 0 -291.5 -129t-105.5 -346q0 -216 106 -345.5t291 -129.5q140 0 238 98l174 -172q-73 -73 -190.5 -119.5t-253.5 -46.5q-311 0 -491.5 195t-180.5 520z" />
<glyph unicode="D" horiz-adv-x="1351" d="M154 0v1366h417q321 0 511 -180t190 -504q0 -322 -190 -502t-511 -180h-417zM449 240h112q185 0 294.5 119.5t109.5 322.5q0 205 -109.5 324.5t-294.5 119.5h-112v-886z" />
<glyph unicode="E" horiz-adv-x="1028" d="M154 0v1366h755v-240h-460v-323h448v-240h-448v-323h475v-240h-770z" />
<glyph unicode="F" horiz-adv-x="987" d="M154 0v1366h770v-240h-475v-323h460v-240h-460v-563h-295z" />
<glyph unicode="G" horiz-adv-x="1308" d="M80 682q0 208 81 369.5t239 254.5t370 93q138 0 255 -46.5t189 -119.5l-172 -174q-45 45 -111.5 71.5t-137.5 26.5q-190 0 -298 -130t-108 -345q0 -218 106 -343.5t267 -125.5q89 0 155 47v279h-210v239h505v-645q-159 -166 -456 -166q-202 0 -355 88.5t-236 251 t-83 375.5z" />
<glyph unicode="H" horiz-adv-x="1353" d="M154 0v1366h295v-563h454v563h297v-1366h-297v563h-454v-563h-295z" />
<glyph unicode="I" horiz-adv-x="602" d="M154 0v1366h295v-1366h-295z" />
<glyph unicode="J" horiz-adv-x="987" d="M-2 137l172 174q55 -52 99 -77t96 -25q76 0 125 52t49 132v973h295v-963q0 -200 -115.5 -318t-337.5 -118q-119 0 -209.5 42t-173.5 128z" />
<glyph unicode="K" horiz-adv-x="1269" d="M154 0v1366h295v-618l471 618h360l-545 -670l565 -696h-360l-491 643v-643h-295z" />
<glyph unicode="L" horiz-adv-x="929" d="M154 0v1366h295v-1126h475v-240h-770z" />
<glyph unicode="M" horiz-adv-x="1757" d="M154 0v1366h444l281 -1069l280 1069h445v-1366h-269v1087l-284 -1087h-344l-285 1087v-1087h-268z" />
<glyph unicode="N" horiz-adv-x="1404" d="M154 0v1366h354l469 -960v960h274v-1366h-354l-469 961v-961h-274z" />
<glyph unicode="O" horiz-adv-x="1417" d="M80 682q0 324 171.5 520.5t457.5 196.5t457 -196.5t171 -520.5t-171 -519.5t-457 -195.5t-457.5 196t-171.5 519zM387 682q0 -220 86.5 -346.5t235.5 -126.5t235 126.5t86 346.5q0 221 -86 348t-235 127t-235.5 -127t-86.5 -348z" />
<glyph unicode="P" horiz-adv-x="1163" d="M154 0v1366h508q195 0 324.5 -121.5t129.5 -294.5q0 -171 -129.5 -292t-324.5 -121h-213v-537h-295zM449 776h176q83 0 136.5 50.5t53.5 123.5q0 72 -53.5 124t-136.5 52h-176v-350z" />
<glyph unicode="Q" horiz-adv-x="1417" d="M80 682q0 324 171.5 520.5t457.5 196.5t457 -196.5t171 -520.5q0 -251 -127 -440l211 -105l-198 -200l-213 106q-136 -76 -301 -76q-286 0 -457.5 196t-171.5 519zM387 682q0 -220 86.5 -346.5t235.5 -126.5t235 126.5t86 346.5q0 221 -86 348t-235 127t-235.5 -127 t-86.5 -348z" />
<glyph unicode="R" horiz-adv-x="1247" d="M154 0v1366h501q213 0 341 -105t128 -282q0 -109 -67 -201.5t-183 -122.5q167 -29 211 -219l97 -436h-312l-79 383q-19 89 -63.5 125.5t-133.5 36.5h-145v-545h-295zM449 776h178q85 0 139.5 50t54.5 128q0 77 -55 128t-139 51h-178v-357z" />
<glyph unicode="S" horiz-adv-x="1075" d="M47 133l174 172q46 -44 118 -73t146 -29q105 0 166.5 49t61.5 123q0 53 -35 90.5t-90.5 60.5t-123 45t-134.5 53t-122.5 74t-90.5 119t-35 178q0 78 35 150.5t97 129t154 90.5t199 34q141 0 255.5 -45.5t189.5 -120.5l-174 -174q-42 44 -108.5 74t-133.5 30 q-95 0 -151 -46.5t-56 -110.5q0 -52 35 -88.5t90.5 -59.5t123.5 -44.5t135.5 -53t123 -75t90.5 -120.5t35 -180q0 -182 -145 -300t-381 -118q-280 0 -449 166z" />
<glyph unicode="T" horiz-adv-x="1085" d="M6 1124v242h1073v-242h-389v-1124h-295v1124h-389z" />
<glyph unicode="U" horiz-adv-x="1374" d="M154 465v901h295v-901q0 -121 66.5 -189.5t170.5 -68.5q105 0 171.5 68.5t66.5 189.5v901h297v-901q0 -229 -144.5 -363.5t-390.5 -134.5t-389 134.5t-143 363.5z" />
<glyph unicode="V" horiz-adv-x="1247" d="M-25 1366h314l336 -1038l333 1038h314l-496 -1366h-303z" />
<glyph unicode="W" horiz-adv-x="1751" d="M-12 1366h299l213 -1034l207 1034h335l207 -1034l215 1034h299l-329 -1366h-353l-207 1032l-206 -1032h-351z" />
<glyph unicode="X" horiz-adv-x="1280" d="M2 0l440 702l-415 664h354l258 -473l260 473h352l-413 -664l438 -702h-358l-279 512l-279 -512h-358z" />
<glyph unicode="Y" horiz-adv-x="1208" d="M-33 1366h359l278 -512l279 512h358l-489 -791v-575h-295v575z" />
<glyph unicode="Z" horiz-adv-x="1073" d="M57 0v172l555 954h-538v240h925v-174l-555 -952h572v-240h-959z" />
<glyph unicode="[" horiz-adv-x="786" d="M180 -137v1638h502v-201h-250v-1234h250v-203h-502z" />
<glyph unicode="\" horiz-adv-x="690" d="M39 1501h205l407 -1638h-202z" />
<glyph unicode="]" horiz-adv-x="786" d="M104 66h250v1234h-250v201h502v-1638h-502v203z" />
<glyph unicode="^" horiz-adv-x="579" d="M27 1075l157 291h211l156 -291h-174l-88 174l-86 -174h-176z" />
<glyph unicode="_" horiz-adv-x="786" d="M0 0v180h786v-180h-786z" />
<glyph unicode="`" horiz-adv-x="579" d="M72 1366h305l106 -291h-141z" />
<glyph unicode="a" horiz-adv-x="1075" d="M68 252q0 138 102 219.5t307 81.5h189v41q0 78 -46 123t-135 45q-103 0 -200 -80l-154 154q173 133 393 133q186 0 301 -101.5t115 -271.5v-596h-262v135q-91 -162 -301 -162q-143 0 -226 79.5t-83 199.5zM342 285q0 -49 34.5 -81t98.5 -32q86 0 138.5 54t52.5 145v24 h-150q-91 0 -132.5 -30t-41.5 -80z" />
<glyph unicode="b" horiz-adv-x="1171" d="M137 0v1366h273v-557q39 70 112 115t164 45q83 0 157 -32.5t132 -93.5t91.5 -157t33.5 -215t-34.5 -215t-93 -157t-133.5 -93.5t-159 -32.5q-91 0 -162.5 46.5t-118.5 125.5v-145h-262zM410 471q0 -139 58 -212t146 -73q89 0 148 73t59 212t-59 212t-148 73 q-88 0 -146 -73t-58 -212z" />
<glyph unicode="c" horiz-adv-x="970" d="M72 471q0 225 142 361.5t364 136.5q110 0 201 -37t149 -96l-154 -154q-74 74 -170 74q-107 0 -177.5 -77.5t-70.5 -207.5t70.5 -207.5t177.5 -77.5q96 0 170 74l154 -154q-58 -59 -149 -96t-201 -37q-222 0 -364 136.5t-142 361.5z" />
<glyph unicode="d" horiz-adv-x="1171" d="M72 471q0 119 33.5 215t90.5 157t131 93.5t158 32.5q91 0 163.5 -45t113.5 -115v557h272v-1366h-262v145q-47 -79 -119.5 -125.5t-163.5 -46.5q-83 0 -157.5 32.5t-133 93.5t-92.5 157.5t-34 214.5zM350 471q0 -139 58.5 -212t146.5 -73q89 0 148 73t59 212t-59 212 t-148 73q-88 0 -146.5 -73t-58.5 -212z" />
<glyph unicode="e" horiz-adv-x="1046" d="M72 471q0 137 57 250t163.5 180.5t242.5 67.5q199 0 311 -120.5t112 -352.5v-76h-614q26 -240 260 -240q44 0 95.5 21.5t88.5 58.5l154 -154q-133 -133 -358 -133q-236 0 -374 136t-138 362zM350 596h352v14q0 85 -43 128.5t-124 43.5q-73 0 -121.5 -48t-63.5 -138z" />
<glyph unicode="f" horiz-adv-x="776" d="M18 729v213h193v158q0 129 86 210t231 81q97 0 199 -25v-213q-59 27 -123 27q-63 0 -91 -28t-28 -85v-125h242v-213h-242v-729h-274v729h-193z" />
<glyph unicode="g" horiz-adv-x="1171" d="M72 471q0 118 34 214.5t92.5 157.5t133 93.5t157.5 32.5q91 0 163.5 -46.5t119.5 -125.5v145h262v-924q0 -205 -136 -336t-376 -131q-124 0 -231.5 41t-159.5 91l154 155q35 -35 94 -57.5t127 -22.5q125 0 190.5 67.5t65.5 192.5v115q-41 -70 -113.5 -115t-163.5 -45 q-84 0 -158 32.5t-131 93.5t-90.5 157t-33.5 215zM350 471q0 -139 58.5 -212t146.5 -73q89 0 148 73t59 212t-59 212t-148 73q-88 0 -146.5 -73t-58.5 -212z" />
<glyph unicode="h" horiz-adv-x="1187" d="M137 0v1366h273v-569q98 172 288 172q158 0 255.5 -104.5t97.5 -280.5v-584h-273v522q0 113 -44 168t-122 55q-202 0 -202 -284v-461h-273z" />
<glyph unicode="i" horiz-adv-x="546" d="M137 0v942h273v-942h-273zM137 1106v260h273v-260h-273z" />
<glyph unicode="j" horiz-adv-x="563" d="M-90 -211q59 -27 125 -27q119 0 119 113v1067h272v-1100q0 -129 -86 -210t-229 -81q-96 0 -201 25v213zM154 1106v260h272v-260h-272z" />
<glyph unicode="k" horiz-adv-x="1058" d="M137 0v1366h273v-834l321 410h316l-394 -457l420 -485h-332l-331 422v-422h-273z" />
<glyph unicode="l" horiz-adv-x="546" d="M137 0v1366h273v-1366h-273z" />
<glyph unicode="m" horiz-adv-x="1714" d="M137 0v942h262v-162q36 84 106 136.5t165 52.5q105 0 183.5 -57t109.5 -156q96 213 292 213q143 0 233.5 -101.5t90.5 -283.5v-584h-274v522q0 122 -35 172.5t-103 50.5q-75 0 -124.5 -72t-49.5 -190v-483h-272v522q0 122 -34.5 172.5t-102.5 50.5q-75 0 -124.5 -72 t-49.5 -190v-483h-273z" />
<glyph unicode="n" horiz-adv-x="1187" d="M137 0v942h262v-162q44 84 121.5 136.5t177.5 52.5q158 0 255.5 -104.5t97.5 -280.5v-584h-273v522q0 113 -44 168t-122 55q-202 0 -202 -284v-461h-273z" />
<glyph unicode="o" horiz-adv-x="1112" d="M72 471q0 226 133.5 362t349.5 136q217 0 351 -136t134 -362t-134 -362t-351 -136q-216 0 -349.5 136t-133.5 362zM350 471q0 -139 58.5 -212t146.5 -73q89 0 148 73t59 212t-59 212t-148 73q-88 0 -146.5 -73t-58.5 -212z" />
<glyph unicode="p" horiz-adv-x="1171" d="M137 -424v1366h262v-145q47 79 118.5 125.5t162.5 46.5q84 0 159 -32.5t133.5 -93.5t93 -157t34.5 -215t-33.5 -215t-91.5 -157t-132 -93.5t-157 -32.5q-91 0 -164 45t-112 115v-557h-273zM410 471q0 -139 58 -212t146 -73q89 0 148 73t59 212t-59 212t-148 73 q-88 0 -146 -73t-58 -212z" />
<glyph unicode="q" horiz-adv-x="1171" d="M72 471q0 118 34 214.5t92.5 157.5t133 93.5t157.5 32.5q91 0 163.5 -46.5t119.5 -125.5v145h262v-1366h-272v557q-41 -70 -113.5 -115t-163.5 -45q-84 0 -158 32.5t-131 93.5t-90.5 157t-33.5 215zM350 471q0 -139 58.5 -212t146.5 -73q89 0 148 73t59 212t-59 212 t-148 73q-88 0 -146.5 -73t-58.5 -212z" />
<glyph unicode="r" horiz-adv-x="835" d="M137 0v942h262v-172q90 199 312 199q6 0 86 -8v-244v-2q-62 24 -131 24q-130 0 -193 -73.5t-63 -221.5v-444h-273z" />
<glyph unicode="s" horiz-adv-x="890" d="M47 106l154 154q42 -39 100.5 -61.5t116.5 -22.5q61 0 94 24t33 60q0 29 -25 51t-65.5 37.5t-89.5 31.5t-97.5 39.5t-89 55t-65.5 84t-25 121.5q0 112 100.5 200.5t272.5 88.5q105 0 197 -36.5t155 -96.5l-154 -154q-84 84 -188 84q-54 0 -83.5 -24.5t-29.5 -55.5 q0 -28 25 -49.5t65.5 -37.5t89 -32t97.5 -39t89.5 -54t65.5 -82t25 -116q0 -131 -104.5 -217t-298.5 -86q-219 0 -365 133z" />
<glyph unicode="t" horiz-adv-x="802" d="M18 729v213h193v287h274v-287h242v-213h-242v-430q0 -57 28 -85t91 -28q64 0 123 27v-213q-96 -27 -199 -27q-144 0 -230.5 82t-86.5 211v463h-193z" />
<glyph unicode="u" horiz-adv-x="1187" d="M137 358v584h273v-522q0 -113 43.5 -168t121.5 -55q203 0 203 284v461h273v-942h-263v162q-44 -84 -121.5 -136.5t-177.5 -52.5q-158 0 -255 104.5t-97 280.5z" />
<glyph unicode="v" horiz-adv-x="985" d="M-14 942h297l211 -672l208 672h297l-364 -942h-283z" />
<glyph unicode="w" horiz-adv-x="1462" d="M-2 942h260l164 -739l162 739h295l161 -739l164 739h260l-245 -942h-336l-152 686l-151 -686h-338z" />
<glyph unicode="x" horiz-adv-x="980" d="M8 0l328 485l-309 457h309l153 -291l156 291h297l-297 -457l328 -485h-318l-166 311l-163 -311h-318z" />
<glyph unicode="y" horiz-adv-x="985" d="M-14 942h290l218 -688l215 688h290l-444 -1149q-52 -128 -124 -185t-175 -57q-94 0 -199 25v213q59 -27 125 -27q88 0 111 60l61 170z" />
<glyph unicode="z" horiz-adv-x="946" d="M80 0v154l405 575h-393v213h760v-160l-408 -569h422v-213h-786z" />
<glyph unicode="{" horiz-adv-x="778" d="M72 567v230h51q64 0 110 48.5t46 119.5v282q0 122 70 201.5t186 79.5q105 0 194 -27v-201q-46 21 -100 21q-48 0 -73.5 -28.5t-25.5 -75.5v-285q0 -105 -50 -171.5t-140 -78.5q90 -12 140 -77.5t50 -170.5v-287q0 -47 25.5 -74.5t73.5 -27.5q53 0 100 18v-200 q-92 -25 -194 -25q-116 0 -186 79.5t-70 201.5v282q0 70 -46 118t-110 48h-51z" />
<glyph unicode="|" horiz-adv-x="624" d="M215 -424v1790h193v-1790h-193z" />
<glyph unicode="}" horiz-adv-x="778" d="M49 63q47 -18 101 -18q48 0 73 27.5t25 74.5v287q0 105 50 170.5t140 77.5q-90 12 -140 78.5t-50 171.5v285q0 47 -25 75.5t-73 28.5q-54 0 -101 -21v201q89 27 195 27q116 0 186 -79.5t70 -201.5v-282q0 -71 45.5 -119.5t109.5 -48.5h52v-230h-52q-64 0 -109.5 -48 t-45.5 -118v-282q0 -122 -70 -201.5t-186 -79.5q-103 0 -195 25v200z" />
<glyph unicode="~" horiz-adv-x="872" d="M80 588l28.5 28.5l28.5 28.5t24.5 22.5t27 21.5t26 15t31 13t32.5 6.5t39 3.5q45 0 85.5 -17.5t64 -38t47.5 -38t41 -17.5q11 0 22.5 5.5t25 17t23 21t25 25.5t21.5 22l121 -119q-5 -5 -23 -23.5t-23 -23t-20.5 -19t-21.5 -19t-20.5 -15.5t-23 -14t-22.5 -10t-26 -9 t-27 -4t-31 -2q-46 0 -86.5 17t-63.5 38t-47 38t-41 17q-11 0 -23 -5.5t-26 -17t-23 -20t-24.5 -25t-21.5 -22.5z" />
<glyph unicode="&#xa1;" horiz-adv-x="598" d="M131 0l72 928h192l72 -928h-336zM150 1067v299h299v-299h-299z" />
<glyph unicode="&#xa2;" horiz-adv-x="970" d="M72 682q0 209 121 341t319 153v190h125v-190q177 -17 291 -127l-154 -156q-71 74 -170 74q-107 0 -177.5 -77t-70.5 -208q0 -130 70.5 -207.5t177.5 -77.5q98 0 170 76l154 -156q-112 -112 -291 -129v-188h-125v188q-198 21 -319 153.5t-121 340.5z" />
<glyph unicode="&#xa3;" horiz-adv-x="1134" d="M72 0v240h118v335h-118v125h118v252q0 204 117 325.5t346 121.5q118 0 209.5 -44t175.5 -128l-174 -172q-52 51 -96.5 76.5t-97.5 25.5q-86 0 -139.5 -54.5t-53.5 -139.5v-263h217v-125h-217v-335h545v-240h-950z" />
<glyph unicode="&#xa5;" horiz-adv-x="1208" d="M-33 1366h359l278 -512l279 512h358l-383 -616h209v-125h-285l-30 -50v-92h315v-125h-315v-358h-295v358h-316v125h316v92l-31 50h-285v125h209z" />
<glyph unicode="&#xa6;" horiz-adv-x="624" d="M215 -137v717h193v-717h-193zM215 784v717h193v-717h-193z" />
<glyph unicode="&#xa7;" horiz-adv-x="1071" d="M104 403q0 106 65.5 196t182.5 122q-101 43 -158 122t-57 189q0 147 117.5 253t302.5 106q126 0 232.5 -41.5t173.5 -108.5l-164 -164q-94 94 -209 94q-79 0 -122.5 -34.5t-43.5 -83.5q0 -42 30 -73.5t78 -53t105.5 -42t115.5 -48t106 -64t78 -96.5t30 -139 q0 -105 -65.5 -194.5t-182.5 -121.5q100 -43 156.5 -121.5t56.5 -189.5q0 -148 -116.5 -253.5t-301.5 -105.5q-127 0 -233 41.5t-175 108.5l164 164q98 -94 211 -94q79 0 121.5 34.5t42.5 83.5q0 42 -30 73.5t-77.5 53t-105.5 42t-115.5 48t-105 63.5t-77.5 96t-30 138z M383 471q0 -47 30.5 -81t90.5 -46q82 0 132 42t50 101q0 48 -30 81.5t-91 45.5q-81 0 -131.5 -42t-50.5 -101z" />
<glyph unicode="&#xa8;" horiz-adv-x="569" d="M-6 1106v260h235v-260h-235zM340 1106v260h235v-260h-235z" />
<glyph unicode="&#xa9;" horiz-adv-x="1597" d="M117 682q0 139 54 265.5t145 218t217.5 146t265.5 54.5t265.5 -54.5t217.5 -146t145 -218t54 -265.5t-54 -265.5t-145 -217.5t-217.5 -145t-265.5 -54t-265.5 54t-217.5 145t-145 217.5t-54 265.5zM246 682q0 -112 44 -214.5t118 -176.5t176.5 -118t214.5 -44t214.5 44 t176.5 118t118 176.5t44 214.5t-44 214.5t-118 176.5t-176.5 118t-214.5 44t-214.5 -44t-176.5 -118t-118 -176.5t-44 -214.5zM438 682q0 186 103 297t282 111q79 0 146 -27t108 -68l-98 -100q-55 55 -137 55q-104 0 -165 -72.5t-61 -195.5q0 -122 61 -194t165 -72 q84 0 137 53l98 -98q-41 -42 -108 -69.5t-146 -27.5q-179 0 -282 111t-103 297z" />
<glyph unicode="&#xaa;" horiz-adv-x="800" d="M68 881q0 93 72.5 151t215.5 58h131v32q0 54 -31.5 84.5t-90.5 30.5q-74 0 -142 -55l-108 108q122 92 276 92q129 0 209 -70.5t80 -189.5v-415h-186v102q-66 -121 -209 -121q-100 0 -158.5 55.5t-58.5 137.5zM262 905q0 -34 24.5 -57t67.5 -23q60 0 96.5 38t36.5 104v22 h-104q-60 0 -90.5 -24.5t-30.5 -59.5z" />
<glyph unicode="&#xab;" horiz-adv-x="1046" d="M104 471l191 383h264l-190 -383l190 -383h-264zM506 471l190 383h265l-191 -383l191 -383h-265z" />
<glyph unicode="&#xad;" horiz-adv-x="759" d="M106 406v212h547v-212h-547z" />
<glyph unicode="&#xae;" horiz-adv-x="1597" d="M117 682q0 139 54 265.5t145 218t217.5 146t265.5 54.5t265.5 -54.5t217.5 -146t145 -218t54 -265.5t-54 -265.5t-145 -217.5t-217.5 -145t-265.5 -54t-265.5 54t-217.5 145t-145 217.5t-54 265.5zM246 682q0 -112 44 -214.5t118 -176.5t176.5 -118t214.5 -44t214.5 44 t176.5 118t118 176.5t44 214.5t-44 214.5t-118 176.5t-176.5 118t-214.5 44t-214.5 -44t-176.5 -118t-118 -176.5t-44 -214.5zM510 293v778h262q144 0 218.5 -58.5t74.5 -160.5q0 -63 -38 -115.5t-103 -70.5q91 -13 114 -123l54 -250h-183l-41 219q-10 51 -35 70.5t-77 19.5 h-74v-309h-172zM682 737h98q49 0 80 28.5t31 72.5t-30.5 71t-80.5 27h-98v-199z" />
<glyph unicode="&#xaf;" horiz-adv-x="614" d="M80 1178v174h455v-174h-455z" />
<glyph unicode="&#xb0;" horiz-adv-x="706" d="M68 1100q0 118 84 202t202 84t201.5 -83.5t83.5 -202.5q0 -118 -83.5 -201.5t-201.5 -83.5q-119 0 -202.5 83.5t-83.5 201.5zM231 1100q0 -51 36 -87t87 -36t87 36t36 87t-36 87t-87 36t-87 -36t-36 -87z" />
<glyph unicode="&#xb1;" horiz-adv-x="1105" d="M109 45v211h888v-211h-888zM109 762v211h337v338h213v-338h338v-211h-338v-338h-213v338h-337z" />
<glyph unicode="&#xb2;" horiz-adv-x="937" d="M150 446v127q216 166 310.5 287t94.5 223q0 59 -33 93t-88 34q-81 0 -155 -63l-121 121q126 106 276 106q147 0 232.5 -78t85.5 -198q0 -122 -81.5 -240.5t-232.5 -243.5h350v-168h-638z" />
<glyph unicode="&#xb3;" horiz-adv-x="937" d="M127 535l121 120q80 -63 166 -63q75 0 115 33.5t40 81.5q0 49 -42.5 79.5t-106.5 30.5h-117v168h115q68 0 106.5 32t38.5 85q0 47 -35.5 77.5t-99.5 30.5q-90 0 -160 -63l-121 121q123 106 285 106q145 0 232.5 -73t87.5 -183q0 -72 -42 -127.5t-108 -79.5 q74 -19 123 -78t49 -135q0 -118 -90.5 -194t-255.5 -76q-92 0 -170.5 29.5t-130.5 77.5z" />
<glyph unicode="&#xb4;" horiz-adv-x="579" d="M96 1075l107 291h305l-270 -291h-142z" />
<glyph unicode="&#xb6;" horiz-adv-x="1349" d="M47 989q0 155 110 266t265 111h672v-1790h-273v1577h-127v-1577h-272v1038q-155 0 -265 110.5t-110 264.5z" />
<glyph unicode="&#xb7;" horiz-adv-x="565" d="M133 397v297h299v-297h-299z" />
<glyph unicode="&#xb8;" horiz-adv-x="641" d="M104 -309l74 71q43 -43 103 -43q33 0 52 17t19 39q0 38 -33.5 60t-103.5 22l72 143h141l-33 -63q58 -14 91.5 -51t33.5 -89q0 -76 -60 -128t-169 -52q-110 0 -187 74z" />
<glyph unicode="&#xb9;" horiz-adv-x="937" d="M172 1067v168q72 9 141 44t121 87h172v-920h-190v717q-35 -35 -103 -60.5t-141 -35.5z" />
<glyph unicode="&#xba;" horiz-adv-x="813" d="M66 1036q0 157 94 251.5t246 94.5t247 -94.5t95 -251.5q0 -158 -95 -253t-247 -95t-246 95t-94 253zM264 1036q0 -97 40.5 -147.5t101.5 -50.5q63 0 103 50t40 148q0 97 -40.5 147t-102.5 50q-61 0 -101.5 -50.5t-40.5 -146.5z" />
<glyph unicode="&#xbb;" horiz-adv-x="1046" d="M86 88l190 383l-190 383h264l193 -383l-193 -383h-264zM487 88l191 383l-191 383h265l192 -383l-192 -383h-265z" />
<glyph unicode="&#xbc;" horiz-adv-x="2050" d="M172 1067v168q72 9 141 44t121 87h172v-920h-190v717q-35 -35 -103 -60.5t-141 -35.5zM459 0l954 1366h227l-956 -1366h-225zM1178 193v178l366 540h207v-553h145v-165h-145v-193h-184v193h-389zM1352 358h215v324z" />
<glyph unicode="&#xbd;" horiz-adv-x="2050" d="M172 1067v168q72 9 141 44t121 87h172v-920h-190v717q-35 -35 -103 -60.5t-141 -35.5zM410 0l954 1366h227l-956 -1366h-225zM1294 0v127q217 168 311.5 288.5t94.5 221.5q0 60 -33 93.5t-88 33.5q-81 0 -156 -64l-120 121q125 109 276 109q147 0 232 -78t85 -199 q0 -123 -81 -241.5t-232 -243.5h350v-168h-639z" />
<glyph unicode="&#xbe;" horiz-adv-x="2050" d="M127 535l121 120q80 -63 166 -63q75 0 115 33.5t40 81.5q0 49 -42.5 79.5t-106.5 30.5h-117v168h115q68 0 106.5 32t38.5 85q0 47 -35.5 77.5t-99.5 30.5q-90 0 -160 -63l-121 121q123 106 285 106q145 0 232.5 -73t87.5 -183q0 -72 -42 -127.5t-108 -79.5 q74 -19 123 -78t49 -135q0 -118 -90.5 -194t-255.5 -76q-92 0 -170.5 29.5t-130.5 77.5zM459 0l954 1366h227l-956 -1366h-225zM1178 193v178l366 540h207v-553h145v-165h-145v-193h-184v193h-389zM1352 358h215v324z" />
<glyph unicode="&#xbf;" horiz-adv-x="985" d="M63 338q0 64 20 120t51.5 96.5t69.5 77.5t76.5 70t70 66t51.5 74t20 86h262q0 -61 -17 -113t-44.5 -90t-61 -72t-66.5 -65t-60.5 -62.5t-44.5 -71t-17 -83.5q0 -72 49.5 -117t132.5 -45q119 0 221 102l174 -174q-75 -75 -181.5 -119.5t-236.5 -44.5q-209 0 -339 105.5 t-130 259.5zM403 1067v299h299v-299h-299z" />
<glyph unicode="&#xc0;" horiz-adv-x="1247" d="M-25 0l498 1366h303l496 -1366h-297l-101 307h-501l-101 -307h-297zM338 1776h305l107 -291h-142zM446 537h355l-176 534z" />
<glyph unicode="&#xc1;" horiz-adv-x="1247" d="M-25 0l498 1366h303l496 -1366h-297l-101 307h-501l-101 -307h-297zM446 537h355l-176 534zM492 1485l106 291h305l-270 -291h-141z" />
<glyph unicode="&#xc2;" horiz-adv-x="1247" d="M-25 0l498 1366h303l496 -1366h-297l-101 307h-501l-101 -307h-297zM362 1485l158 291h211l156 -291h-174l-88 174l-86 -174h-177zM446 537h355l-176 534z" />
<glyph unicode="&#xc3;" horiz-adv-x="1247" d="M-25 0l498 1366h303l496 -1366h-297l-101 307h-501l-101 -307h-297zM272 1563q0 95 69 162t165 67q43 0 76.5 -11.5t54 -28t37 -33.5t33.5 -28.5t36 -11.5q26 0 46 19t20 45h168q0 -96 -69 -164t-165 -68q-43 0 -76.5 11.5t-54 28.5t-37 33.5t-33.5 28t-36 11.5 q-25 0 -44.5 -18.5t-19.5 -42.5h-170zM446 537h355l-176 534z" />
<glyph unicode="&#xc4;" horiz-adv-x="1247" d="M-25 0l498 1366h303l496 -1366h-297l-101 307h-501l-101 -307h-297zM334 1516v260h235v-260h-235zM446 537h355l-176 534zM680 1516v260h235v-260h-235z" />
<glyph unicode="&#xc5;" horiz-adv-x="1247" d="M-25 0l498 1366h303l496 -1366h-297l-101 307h-501l-101 -307h-297zM446 537h355l-176 534zM453 1636q0 71 50 121.5t122 50.5q71 0 121.5 -51t50.5 -121q0 -72 -50.5 -122t-121.5 -50q-72 0 -122 50t-50 122zM537 1636q0 -37 25.5 -62.5t62.5 -25.5q35 0 60.5 25.5 t25.5 62.5q0 35 -25.5 60.5t-60.5 25.5q-37 0 -62.5 -25.5t-25.5 -60.5z" />
<glyph unicode="&#xc6;" horiz-adv-x="1607" d="M-135 0l809 1366h815v-240h-461v-323h449v-240h-449v-323h475v-240h-760v303h-376l-164 -303h-338zM494 543h249v458z" />
<glyph unicode="&#xc7;" horiz-adv-x="1230" d="M80 682q0 327 180.5 522t491.5 195q136 0 253.5 -46.5t190.5 -119.5l-174 -174q-95 98 -238 98q-192 0 -294.5 -127t-102.5 -348q0 -220 103 -347.5t294 -127.5q140 0 238 98l174 -172q-68 -68 -173.5 -113t-229.5 -51l-17 -32q56 -14 89.5 -51t33.5 -89q0 -76 -60 -128 t-169 -52q-111 0 -185 74l72 71q46 -43 102 -43q33 0 52.5 17t19.5 39q0 38 -32.5 61t-102.5 23l57 114q-269 31 -421 220.5t-152 488.5z" />
<glyph unicode="&#xc8;" horiz-adv-x="1028" d="M154 0v1366h755v-240h-460v-323h448v-240h-448v-323h475v-240h-770zM205 1776h305l106 -291h-141z" />
<glyph unicode="&#xc9;" horiz-adv-x="1028" d="M154 0v1366h755v-240h-460v-323h448v-240h-448v-323h475v-240h-770zM385 1485l107 291h305l-271 -291h-141z" />
<glyph unicode="&#xca;" horiz-adv-x="1028" d="M154 0v1366h755v-240h-460v-323h448v-240h-448v-323h475v-240h-770zM270 1485l158 291h211l156 -291h-174l-89 174l-86 -174h-176z" />
<glyph unicode="&#xcb;" horiz-adv-x="1028" d="M154 0v1366h755v-240h-460v-323h448v-240h-448v-323h475v-240h-770zM250 1516v260h235v-260h-235zM596 1516v260h235v-260h-235z" />
<glyph unicode="&#xcc;" horiz-adv-x="602" d="M45 1776h305l107 -291h-142zM154 0v1366h295v-1366h-295z" />
<glyph unicode="&#xcd;" horiz-adv-x="602" d="M143 1485l107 291h305l-270 -291h-142zM154 0v1366h295v-1366h-295z" />
<glyph unicode="&#xce;" horiz-adv-x="602" d="M39 1485l158 291h211l155 -291h-174l-88 174l-86 -174h-176zM154 0v1366h295v-1366h-295z" />
<glyph unicode="&#xcf;" horiz-adv-x="602" d="M10 1516v260h236v-260h-236zM154 0v1366h295v-1366h-295zM356 1516v260h236v-260h-236z" />
<glyph unicode="&#xd0;" horiz-adv-x="1363" d="M23 590v186h143v590h418q321 0 510.5 -180t189.5 -504q0 -323 -189.5 -502.5t-510.5 -179.5h-418v590h-143zM461 240h112q185 0 294.5 119.5t109.5 322.5q0 205 -109.5 324.5t-294.5 119.5h-112v-350h157v-186h-157v-350z" />
<glyph unicode="&#xd1;" horiz-adv-x="1404" d="M154 0v1366h354l469 -960v960h274v-1366h-354l-469 961v-961h-274zM348 1563q0 95 70 162t166 67q42 0 75.5 -11.5t53.5 -28t36.5 -33.5t33.5 -28.5t36 -11.5q26 0 46 19t20 45h168q0 -96 -69 -163t-165 -67q-52 0 -91.5 17.5t-58 38t-41 38t-44.5 17.5q-26 0 -46 -18 t-20 -43h-170z" />
<glyph unicode="&#xd2;" horiz-adv-x="1417" d="M80 682q0 324 171.5 520.5t457.5 196.5t457 -196.5t171 -520.5t-171 -519.5t-457 -195.5t-457.5 196t-171.5 519zM387 682q0 -220 86.5 -346.5t235.5 -126.5t235 126.5t86 346.5q0 221 -86 348t-235 127t-235.5 -127t-86.5 -348zM399 1776h306l106 -291h-141z" />
<glyph unicode="&#xd3;" horiz-adv-x="1417" d="M80 682q0 324 171.5 520.5t457.5 196.5t457 -196.5t171 -520.5t-171 -519.5t-457 -195.5t-457.5 196t-171.5 519zM387 682q0 -220 86.5 -346.5t235.5 -126.5t235 126.5t86 346.5q0 221 -86 348t-235 127t-235.5 -127t-86.5 -348zM604 1485l107 291h305l-271 -291h-141z " />
<glyph unicode="&#xd4;" horiz-adv-x="1417" d="M80 682q0 324 171.5 520.5t457.5 196.5t457 -196.5t171 -520.5t-171 -519.5t-457 -195.5t-457.5 196t-171.5 519zM387 682q0 -220 86.5 -346.5t235.5 -126.5t235 126.5t86 346.5q0 221 -86 348t-235 127t-235.5 -127t-86.5 -348zM449 1485l157 291h211l156 -291h-174 l-88 174l-86 -174h-176z" />
<glyph unicode="&#xd5;" horiz-adv-x="1417" d="M80 682q0 324 171.5 520.5t457.5 196.5t457 -196.5t171 -520.5t-171 -519.5t-457 -195.5t-457.5 196t-171.5 519zM352 1563q0 95 69 162t165 67q43 0 76.5 -11.5t54 -28t37 -33.5t33.5 -28.5t36 -11.5q26 0 46 19t20 45h168q0 -96 -69 -164t-165 -68q-43 0 -76.5 11.5 t-54 28.5t-37 33.5t-33.5 28t-36 11.5q-25 0 -44.5 -18.5t-19.5 -42.5h-170zM387 682q0 -220 86.5 -346.5t235.5 -126.5t235 126.5t86 346.5q0 221 -86 348t-235 127t-235.5 -127t-86.5 -348z" />
<glyph unicode="&#xd6;" horiz-adv-x="1417" d="M80 682q0 324 171.5 520.5t457.5 196.5t457 -196.5t171 -520.5t-171 -519.5t-457 -195.5t-457.5 196t-171.5 519zM387 682q0 -220 86.5 -346.5t235.5 -126.5t235 126.5t86 346.5q0 221 -86 348t-235 127t-235.5 -127t-86.5 -348zM418 1516v260h235v-260h-235zM764 1516 v260h235v-260h-235z" />
<glyph unicode="&#xd7;" horiz-adv-x="1105" d="M131 395l272 275l-272 272l150 150l272 -273l272 273l150 -150l-273 -272l273 -275l-150 -149l-272 274l-272 -274z" />
<glyph unicode="&#xd8;" horiz-adv-x="1417" d="M80 682q0 324 171.5 520.5t457.5 196.5q175 0 313 -80l76 115h207l-146 -224q178 -193 178 -528q0 -324 -171 -519.5t-457 -195.5q-173 0 -316 78l-74 -113h-208l147 224q-178 193 -178 526zM387 682q0 -157 43 -264l449 682q-72 57 -170 57q-149 0 -235.5 -127 t-86.5 -348zM539 264q70 -55 170 -55q149 0 235 126.5t86 346.5q0 148 -43 266z" />
<glyph unicode="&#xd9;" horiz-adv-x="1374" d="M154 465v901h295v-901q0 -121 66.5 -189.5t170.5 -68.5q105 0 171.5 68.5t66.5 189.5v901h297v-901q0 -229 -144.5 -363.5t-390.5 -134.5t-389 134.5t-143 363.5zM389 1776h307l107 -291h-144z" />
<glyph unicode="&#xda;" horiz-adv-x="1374" d="M154 465v901h295v-901q0 -121 66.5 -189.5t170.5 -68.5q105 0 171.5 68.5t66.5 189.5v901h297v-901q0 -229 -144.5 -363.5t-390.5 -134.5t-389 134.5t-143 363.5zM569 1485l107 291h305l-270 -291h-142z" />
<glyph unicode="&#xdb;" horiz-adv-x="1374" d="M154 465v901h295v-901q0 -121 66.5 -189.5t170.5 -68.5q105 0 171.5 68.5t66.5 189.5v901h297v-901q0 -229 -144.5 -363.5t-390.5 -134.5t-389 134.5t-143 363.5zM424 1485l156 291h213l155 -291h-176l-86 172l-86 -172h-176z" />
<glyph unicode="&#xdc;" horiz-adv-x="1374" d="M154 465v901h295v-901q0 -121 66.5 -189.5t170.5 -68.5q105 0 171.5 68.5t66.5 189.5v901h297v-901q0 -229 -144.5 -363.5t-390.5 -134.5t-389 134.5t-143 363.5zM395 1516v260h236v-260h-236zM739 1516v260h238v-260h-238z" />
<glyph unicode="&#xdd;" horiz-adv-x="1208" d="M-33 1366h359l278 -512l279 512h358l-489 -791v-575h-295v575zM489 1485l107 291h305l-270 -291h-142z" />
<glyph unicode="&#xde;" horiz-adv-x="1163" d="M154 0v1366h295v-268h213q195 0 324.5 -121.5t129.5 -294.5q0 -172 -129.5 -293t-324.5 -121h-213v-268h-295zM449 508h176q83 0 135.5 51t52.5 123q0 74 -52.5 125t-135.5 51h-176v-350z" />
<glyph unicode="&#xdf;" horiz-adv-x="1185" d="M137 0v946q0 197 128 321t353 124q197 0 314 -97.5t117 -238.5q0 -105 -60.5 -195t-154.5 -127q129 -32 205.5 -116t76.5 -207q0 -192 -125.5 -311t-359.5 -119q-63 0 -121 26v227q48 -30 111 -30q98 0 154 58t56 149q0 90 -56 147t-154 57h-111v211h68q85 0 135.5 53.5 t50.5 131.5q0 68 -47 112.5t-119 44.5q-89 0 -138.5 -59t-49.5 -156v-952h-273z" />
<glyph unicode="&#xe0;" horiz-adv-x="1075" d="M68 252q0 138 102 219.5t307 81.5h189v41q0 78 -46 123t-135 45q-103 0 -200 -80l-154 154q173 133 393 133q186 0 301 -101.5t115 -271.5v-596h-262v135q-91 -162 -301 -162q-143 0 -226 79.5t-83 199.5zM238 1366h305l106 -291h-141zM342 285q0 -49 34.5 -81t98.5 -32 q86 0 138.5 54t52.5 145v24h-150q-91 0 -132.5 -30t-41.5 -80z" />
<glyph unicode="&#xe1;" horiz-adv-x="1075" d="M68 252q0 138 102 219.5t307 81.5h189v41q0 78 -46 123t-135 45q-103 0 -200 -80l-154 154q173 133 393 133q186 0 301 -101.5t115 -271.5v-596h-262v135q-91 -162 -301 -162q-143 0 -226 79.5t-83 199.5zM342 285q0 -49 34.5 -81t98.5 -32q86 0 138.5 54t52.5 145v24 h-150q-91 0 -132.5 -30t-41.5 -80zM408 1075l106 291h305l-270 -291h-141z" />
<glyph unicode="&#xe2;" horiz-adv-x="1075" d="M68 252q0 138 102 219.5t307 81.5h189v41q0 78 -46 123t-135 45q-103 0 -200 -80l-154 154q173 133 393 133q186 0 301 -101.5t115 -271.5v-596h-262v135q-91 -162 -301 -162q-143 0 -226 79.5t-83 199.5zM260 1075l158 291h211l155 -291h-174l-88 174l-86 -174h-176z M342 285q0 -49 34.5 -81t98.5 -32q86 0 138.5 54t52.5 145v24h-150q-91 0 -132.5 -30t-41.5 -80z" />
<glyph unicode="&#xe3;" horiz-adv-x="1075" d="M68 252q0 138 102 219.5t307 81.5h189v41q0 78 -46 123t-135 45q-103 0 -200 -80l-154 154q173 133 393 133q186 0 301 -101.5t115 -271.5v-596h-262v135q-91 -162 -301 -162q-143 0 -226 79.5t-83 199.5zM186 1153q0 95 69 162t165 67q43 0 76.5 -11.5t54 -28t37 -33 t33.5 -28t36 -11.5q27 0 46.5 18.5t19.5 44.5h168q0 -96 -69 -163.5t-165 -67.5q-43 0 -76.5 11.5t-54 28t-37 33t-33.5 28t-36 11.5q-25 0 -44.5 -18.5t-19.5 -42.5h-170zM342 285q0 -49 34.5 -81t98.5 -32q86 0 138.5 54t52.5 145v24h-150q-91 0 -132.5 -30t-41.5 -80z " />
<glyph unicode="&#xe4;" horiz-adv-x="1075" d="M68 252q0 138 102 219.5t307 81.5h189v41q0 78 -46 123t-135 45q-103 0 -200 -80l-154 154q173 133 393 133q186 0 301 -101.5t115 -271.5v-596h-262v135q-91 -162 -301 -162q-143 0 -226 79.5t-83 199.5zM246 1106v260h235v-260h-235zM342 285q0 -49 34.5 -81t98.5 -32 q86 0 138.5 54t52.5 145v24h-150q-91 0 -132.5 -30t-41.5 -80zM592 1106v260h235v-260h-235z" />
<glyph unicode="&#xe5;" horiz-adv-x="1075" d="M68 252q0 138 102 219.5t307 81.5h189v41q0 78 -46 123t-135 45q-103 0 -200 -80l-154 154q173 133 393 133q186 0 301 -101.5t115 -271.5v-596h-262v135q-91 -162 -301 -162q-143 0 -226 79.5t-83 199.5zM342 285q0 -49 34.5 -81t98.5 -32q86 0 138.5 54t52.5 145v24 h-150q-91 0 -132.5 -30t-41.5 -80zM352 1227q0 71 50 121.5t122 50.5q70 0 121 -50.5t51 -121.5q0 -72 -50.5 -122t-121.5 -50q-72 0 -122 50t-50 122zM436 1227q0 -37 25.5 -62.5t62.5 -25.5q35 0 60.5 25.5t25.5 62.5q0 35 -25.5 60.5t-60.5 25.5q-37 0 -62.5 -25.5 t-25.5 -60.5z" />
<glyph unicode="&#xe6;" horiz-adv-x="1646" d="M68 272q0 58 24.5 111.5t72.5 98.5t128.5 71.5t183.5 26.5h189v14q0 78 -46 123t-135 45q-103 0 -200 -80l-154 154q173 133 393 133q121 0 200.5 -43.5t109.5 -112.5q50 68 137 112t190 44q178 0 288 -122t110 -351v-86h-668l-25 176h437v24q0 86 -44 132t-124 46 q-88 0 -141.5 -76.5t-53.5 -215.5q0 -320 264 -320q44 0 95.5 23t89.5 61l153 -154q-133 -133 -358 -133q-143 0 -253.5 59t-158.5 169q-32 -95 -136.5 -161.5t-236.5 -66.5q-151 0 -241 84t-90 215zM342 281q0 -48 37 -78.5t96 -30.5q79 0 135 57t56 142v45h-150 q-86 0 -130 -39t-44 -96z" />
<glyph unicode="&#xe7;" horiz-adv-x="970" d="M72 471q0 225 142 361.5t364 136.5q110 0 201 -37t149 -96l-154 -154q-74 74 -170 74q-107 0 -177.5 -77.5t-70.5 -207.5t70.5 -207.5t177.5 -77.5q96 0 170 74l154 -154q-48 -49 -122.5 -84t-164.5 -45l-20 -40q56 -14 90 -51t34 -89q0 -76 -60 -128t-169 -52 q-112 0 -186 74l71 71q46 -43 103 -43q35 0 54.5 17t19.5 39q0 37 -34 59.5t-104 22.5l62 123q-193 22 -311.5 154.5t-118.5 336.5z" />
<glyph unicode="&#xe8;" horiz-adv-x="1046" d="M72 471q0 137 57 250t163.5 180.5t242.5 67.5q199 0 311 -120.5t112 -352.5v-76h-614q26 -240 260 -240q44 0 95.5 21.5t88.5 58.5l154 -154q-133 -133 -358 -133q-236 0 -374 136t-138 362zM246 1366h305l106 -291h-141zM350 596h352v14q0 85 -43 128.5t-124 43.5 q-73 0 -121.5 -48t-63.5 -138z" />
<glyph unicode="&#xe9;" horiz-adv-x="1046" d="M72 471q0 137 57 250t163.5 180.5t242.5 67.5q199 0 311 -120.5t112 -352.5v-76h-614q26 -240 260 -240q44 0 95.5 21.5t88.5 58.5l154 -154q-133 -133 -358 -133q-236 0 -374 136t-138 362zM350 596h352v14q0 85 -43 128.5t-124 43.5q-73 0 -121.5 -48t-63.5 -138z M410 1075l106 291h305l-270 -291h-141z" />
<glyph unicode="&#xea;" horiz-adv-x="1046" d="M72 471q0 137 57 250t163.5 180.5t242.5 67.5q199 0 311 -120.5t112 -352.5v-76h-614q26 -240 260 -240q44 0 95.5 21.5t88.5 58.5l154 -154q-133 -133 -358 -133q-236 0 -374 136t-138 362zM272 1075l158 291h211l156 -291h-174l-88 174l-86 -174h-177zM350 596h352v14 q0 85 -43 128.5t-124 43.5q-73 0 -121.5 -48t-63.5 -138z" />
<glyph unicode="&#xeb;" horiz-adv-x="1046" d="M72 471q0 137 57 250t163.5 180.5t242.5 67.5q199 0 311 -120.5t112 -352.5v-76h-614q26 -240 260 -240q44 0 95.5 21.5t88.5 58.5l154 -154q-133 -133 -358 -133q-236 0 -374 136t-138 362zM242 1106v260h235v-260h-235zM350 596h352v14q0 85 -43 128.5t-124 43.5 q-73 0 -121.5 -48t-63.5 -138zM588 1106v260h235v-260h-235z" />
<glyph unicode="&#xec;" horiz-adv-x="546" d="M0 1366h305l107 -291h-142zM137 0v942h273v-942h-273z" />
<glyph unicode="&#xed;" horiz-adv-x="546" d="M135 1075l107 291h305l-271 -291h-141zM137 0v942h273v-942h-273z" />
<glyph unicode="&#xee;" horiz-adv-x="546" d="M10 1075l158 291h211l156 -291h-175l-88 174l-86 -174h-176zM137 0v942h273v-942h-273z" />
<glyph unicode="&#xef;" horiz-adv-x="546" d="M-16 1106v260h235v-260h-235zM137 0v942h273v-942h-273zM330 1106v260h235v-260h-235z" />
<glyph unicode="&#xf0;" horiz-adv-x="1112" d="M72 410q0 112 53.5 208.5t154 156t226.5 59.5q62 0 122 -24t101 -65q-48 108 -188 244l-172 -115l-101 156l125 82q-62 47 -145 96l184 183q93 -55 182 -131l201 131l100 -156l-163 -107q133 -149 210.5 -321t77.5 -344q0 -135 -58.5 -246t-170 -177.5t-256.5 -66.5 q-211 0 -347 124t-136 313zM350 410q0 -97 59 -160.5t146 -63.5q88 0 147.5 63.5t59.5 160.5q0 96 -59.5 158.5t-147.5 62.5q-87 0 -146 -62.5t-59 -158.5z" />
<glyph unicode="&#xf1;" horiz-adv-x="1187" d="M137 0v942h262v-162q44 84 121.5 136.5t177.5 52.5q158 0 255.5 -104.5t97.5 -280.5v-584h-273v522q0 113 -44 168t-122 55q-202 0 -202 -284v-461h-273zM238 1153q0 95 68.5 162t164.5 67q52 0 92 -17.5t59 -38.5t42 -38.5t45 -17.5q26 0 45.5 18.5t19.5 44.5h168 q0 -96 -68.5 -163.5t-164.5 -67.5q-52 0 -92 17.5t-59 38.5t-42 38.5t-45 17.5q-25 0 -44 -18t-19 -43h-170z" />
<glyph unicode="&#xf2;" horiz-adv-x="1112" d="M72 471q0 226 133.5 362t349.5 136q217 0 351 -136t134 -362t-134 -362t-351 -136q-216 0 -349.5 136t-133.5 362zM268 1366h305l107 -291h-141zM350 471q0 -139 58.5 -212t146.5 -73q89 0 148 73t59 212t-59 212t-148 73q-88 0 -146.5 -73t-58.5 -212z" />
<glyph unicode="&#xf3;" horiz-adv-x="1112" d="M72 471q0 226 133.5 362t349.5 136q217 0 351 -136t134 -362t-134 -362t-351 -136q-216 0 -349.5 136t-133.5 362zM350 471q0 -139 58.5 -212t146.5 -73q89 0 148 73t59 212t-59 212t-148 73q-88 0 -146.5 -73t-58.5 -212zM432 1075l107 291h305l-271 -291h-141z" />
<glyph unicode="&#xf4;" horiz-adv-x="1112" d="M72 471q0 226 133.5 362t349.5 136q217 0 351 -136t134 -362t-134 -362t-351 -136q-216 0 -349.5 136t-133.5 362zM295 1075l158 291h211l155 -291h-174l-88 174l-86 -174h-176zM350 471q0 -139 58.5 -212t146.5 -73q89 0 148 73t59 212t-59 212t-148 73 q-88 0 -146.5 -73t-58.5 -212z" />
<glyph unicode="&#xf5;" horiz-adv-x="1112" d="M72 471q0 226 133.5 362t349.5 136q217 0 351 -136t134 -362t-134 -362t-351 -136q-216 0 -349.5 136t-133.5 362zM205 1153q0 95 68.5 162t164.5 67q52 0 92 -17.5t59 -38.5t42 -38.5t45 -17.5q26 0 45.5 18.5t19.5 44.5h168q0 -96 -68.5 -163.5t-164.5 -67.5 q-52 0 -92 17.5t-59 38.5t-42 38.5t-45 17.5q-25 0 -44 -18t-19 -43h-170zM350 471q0 -139 58.5 -212t146.5 -73q89 0 148 73t59 212t-59 212t-148 73q-88 0 -146.5 -73t-58.5 -212z" />
<glyph unicode="&#xf6;" horiz-adv-x="1112" d="M72 471q0 226 133.5 362t349.5 136q217 0 351 -136t134 -362t-134 -362t-351 -136q-216 0 -349.5 136t-133.5 362zM266 1106v260h236v-260h-236zM350 471q0 -139 58.5 -212t146.5 -73q89 0 148 73t59 212t-59 212t-148 73q-88 0 -146.5 -73t-58.5 -212zM612 1106v260h236 v-260h-236z" />
<glyph unicode="&#xf7;" horiz-adv-x="1105" d="M109 563v211h888v-211h-888zM432 199v241h242v-241h-242zM432 897v244h242v-244h-242z" />
<glyph unicode="&#xf8;" horiz-adv-x="1112" d="M72 471q0 226 133.5 362t349.5 136q111 0 203 -39l49 80h174l-98 -156q157 -135 157 -383q0 -226 -134 -362t-351 -136q-109 0 -201 39l-51 -80h-174l98 156q-155 136 -155 383zM350 471q0 -85 25 -149l262 415q-43 19 -82 19q-88 0 -146.5 -73t-58.5 -212zM475 205 q40 -19 80 -19q89 0 148 73t59 212q0 77 -25 150z" />
<glyph unicode="&#xf9;" horiz-adv-x="1187" d="M137 358v584h273v-522q0 -113 43.5 -168t121.5 -55q203 0 203 284v461h273v-942h-263v162q-44 -84 -121.5 -136.5t-177.5 -52.5q-158 0 -255 104.5t-97 280.5zM311 1366h305l107 -291h-141z" />
<glyph unicode="&#xfa;" horiz-adv-x="1187" d="M137 358v584h273v-522q0 -113 43.5 -168t121.5 -55q203 0 203 284v461h273v-942h-263v162q-44 -84 -121.5 -136.5t-177.5 -52.5q-158 0 -255 104.5t-97 280.5zM467 1075l106 291h306l-271 -291h-141z" />
<glyph unicode="&#xfb;" horiz-adv-x="1187" d="M137 358v584h273v-522q0 -113 43.5 -168t121.5 -55q203 0 203 284v461h273v-942h-263v162q-44 -84 -121.5 -136.5t-177.5 -52.5q-158 0 -255 104.5t-97 280.5zM332 1075l157 291h211l156 -291h-174l-88 174l-86 -174h-176z" />
<glyph unicode="&#xfc;" horiz-adv-x="1187" d="M137 358v584h273v-522q0 -113 43.5 -168t121.5 -55q203 0 203 284v461h273v-942h-263v162q-44 -84 -121.5 -136.5t-177.5 -52.5q-158 0 -255 104.5t-97 280.5zM305 1106v260h236v-260h-236zM651 1106v260h236v-260h-236z" />
<glyph unicode="&#xfd;" horiz-adv-x="985" d="M-14 942h290l218 -688l215 688h290l-444 -1149q-52 -128 -124 -185t-175 -57q-94 0 -199 25v213q59 -27 125 -27q88 0 111 60l61 170zM350 1075l107 291h305l-270 -291h-142z" />
<glyph unicode="&#xfe;" horiz-adv-x="1171" d="M137 -424v1790h273v-557q39 70 112 115t164 45q83 0 157 -32.5t132 -93.5t91.5 -157t33.5 -215t-33.5 -215t-91.5 -157t-132 -93.5t-157 -32.5q-91 0 -164 45t-112 115v-557h-273zM410 471q0 -139 58 -212t146 -73q89 0 148 73t59 212t-59 212t-148 73q-88 0 -146 -73 t-58 -212z" />
<glyph unicode="&#xff;" horiz-adv-x="985" d="M-14 942h290l218 -688l215 688h290l-444 -1149q-52 -128 -124 -185t-175 -57q-94 0 -199 25v213q59 -27 125 -27q88 0 111 60l61 170zM203 1106v260h235v-260h-235zM549 1106v260h235v-260h-235z" />
<glyph unicode="&#x152;" horiz-adv-x="1904" d="M80 682q0 321 168.5 519t437.5 198q106 0 201 -43t143 -109v119h756v-240h-461v-323h449v-240h-449v-323h475v-240h-770v117q-48 -66 -142.5 -108t-201.5 -42q-270 0 -438 197t-168 518zM387 682q0 -220 86.5 -346.5t235.5 -126.5t235 126.5t86 346.5q0 221 -86 348 t-235 127t-235.5 -127t-86.5 -348z" />
<glyph unicode="&#x153;" horiz-adv-x="1736" d="M72 471q0 224 131.5 361t335.5 137q119 0 214.5 -50t147.5 -135q48 84 135 134.5t189 50.5q200 0 312 -120.5t112 -352.5v-76h-613q26 -240 260 -240q43 0 94.5 21.5t88.5 58.5l153 -154q-133 -133 -358 -133q-120 0 -221 50t-150 135q-55 -85 -148.5 -135t-215.5 -50 q-204 0 -335.5 137t-131.5 361zM350 471q0 -139 58.5 -212t146.5 -73q89 0 148 73t59 212t-59 212t-148 73q-88 0 -146.5 -73t-58.5 -212zM1040 596h353q2 14 0 14q0 85 -43.5 128.5t-124.5 43.5q-72 0 -120 -48t-65 -138z" />
<glyph unicode="&#x178;" horiz-adv-x="1208" d="M-33 1366h359l278 -512l279 512h358l-489 -791v-575h-295v575zM313 1516v260h236v-260h-236zM659 1516v260h236v-260h-236z" />
<glyph unicode="&#x2c6;" horiz-adv-x="579" d="M27 1075l157 291h211l156 -291h-174l-88 174l-86 -174h-176z" />
<glyph unicode="&#x2dc;" horiz-adv-x="780" d="M37 1153q0 95 68.5 162t164.5 67q52 0 92 -17.5t59 -38.5t42 -38.5t45 -17.5q26 0 45.5 18.5t19.5 44.5h168q0 -96 -68.5 -163.5t-164.5 -67.5q-52 0 -92 17.5t-59 38.5t-42 38.5t-45 17.5q-25 0 -44 -18t-19 -43h-170z" />
<glyph unicode="&#x2000;" horiz-adv-x="904" />
<glyph unicode="&#x2001;" horiz-adv-x="1808" />
<glyph unicode="&#x2002;" horiz-adv-x="904" />
<glyph unicode="&#x2003;" horiz-adv-x="1808" />
<glyph unicode="&#x2004;" horiz-adv-x="602" />
<glyph unicode="&#x2005;" horiz-adv-x="452" />
<glyph unicode="&#x2006;" horiz-adv-x="301" />
<glyph unicode="&#x2007;" horiz-adv-x="301" />
<glyph unicode="&#x2008;" horiz-adv-x="226" />
<glyph unicode="&#x2009;" horiz-adv-x="361" />
<glyph unicode="&#x200a;" horiz-adv-x="100" />
<glyph unicode="&#x2010;" horiz-adv-x="759" d="M106 406v212h547v-212h-547z" />
<glyph unicode="&#x2011;" horiz-adv-x="759" d="M106 406v212h547v-212h-547z" />
<glyph unicode="&#x2012;" horiz-adv-x="759" d="M106 406v212h547v-212h-547z" />
<glyph unicode="&#x2013;" horiz-adv-x="1261" d="M106 406v212h1049v-212h-1049z" />
<glyph unicode="&#x2014;" horiz-adv-x="2048" d="M106 406v212h1836v-212h-1836z" />
<glyph unicode="&#x2018;" horiz-adv-x="555" d="M72 846l209 520h149l-63 -520h-295z" />
<glyph unicode="&#x2019;" horiz-adv-x="555" d="M125 846l63 520h295l-209 -520h-149z" />
<glyph unicode="&#x201a;" horiz-adv-x="555" d="M125 -221l63 518h295l-209 -518h-149z" />
<glyph unicode="&#x201c;" horiz-adv-x="956" d="M72 846l209 520h149l-63 -520h-295zM473 846l209 520h149l-63 -520h-295z" />
<glyph unicode="&#x201d;" horiz-adv-x="956" d="M125 846l63 520h295l-209 -520h-149zM526 846l64 520h295l-209 -520h-150z" />
<glyph unicode="&#x201e;" horiz-adv-x="956" d="M125 -221l63 518h295l-209 -518h-149zM526 -221l64 518h295l-209 -518h-150z" />
<glyph unicode="&#x2022;" horiz-adv-x="661" d="M150 547q0 73 53 126.5t127 53.5q75 0 127.5 -53t52.5 -127q0 -75 -52.5 -127.5t-127.5 -52.5q-74 0 -127 52.5t-53 127.5z" />
<glyph unicode="&#x2026;" horiz-adv-x="1695" d="M133 0v297h299v-297h-299zM698 0v297h299v-297h-299zM1264 0v297h299v-297h-299z" />
<glyph unicode="&#x202f;" horiz-adv-x="361" />
<glyph unicode="&#x2039;" horiz-adv-x="645" d="M104 471l191 383h264l-190 -383l190 -383h-264z" />
<glyph unicode="&#x203a;" horiz-adv-x="645" d="M86 88l190 383l-190 383h264l193 -383l-193 -383h-264z" />
<glyph unicode="&#x205f;" horiz-adv-x="452" />
<glyph unicode="&#x20ac;" horiz-adv-x="1275" d="M-16 485v127h141q0 11 -1 34t-1 36t1 37t1 35h-141v125h157q52 242 223.5 381t430.5 139q136 0 253.5 -46.5t190.5 -119.5l-174 -174q-95 98 -238 98q-140 0 -234.5 -73.5t-133.5 -204.5h475v-125h-500q-2 -23 -2 -72q0 -47 2 -70h500v-127h-475q39 -131 133.5 -204.5 t234.5 -73.5t238 98l174 -172q-73 -73 -190.5 -119.5t-253.5 -46.5q-259 0 -430.5 138.5t-223.5 379.5h-157z" />
<glyph unicode="&#x2122;" horiz-adv-x="878" d="M47 1282v84h299v-84h-96v-258h-105v258h-98zM383 1024v342h133l68 -231l69 231h133v-342h-92v231l-69 -231h-82l-68 231v-231h-92z" />
<glyph unicode="&#x25fc;" horiz-adv-x="942" d="M0 0v942h942v-942h-942z" />
<glyph unicode="&#xfb01;" horiz-adv-x="1323" d="M18 729v213h193v158q0 129 86 210t231 81q97 0 199 -25v-213q-59 27 -123 27q-63 0 -91 -28t-28 -85v-125h242v-213h-242v-729h-274v729h-193zM911 0v942h275v-942h-275zM911 1106v260h275v-260h-275z" />
<glyph unicode="&#xfb02;" horiz-adv-x="1316" d="M18 729v213h193v158q0 129 86 210t231 81q97 0 199 -25v-213q-59 27 -123 27q-63 0 -91 -28t-28 -85v-125h242v-213h-242v-729h-274v729h-193zM907 0v1366h273v-1366h-273z" />
</font>
</defs>
</svg>
